<svg width="335" height="74" viewBox="0 0 335 74" fill="none" xmlns="http://www.w3.org/2000/svg">
<rect x="-0.00390625" y="0.397949" width="73.5994" height="73.5994" rx="12.2666" fill="#ECECEC"/>
<path d="M58.7588 61.435L50.7768 37.2231H36.4093L34.5469 43.0766H46.2537L51.9458 61.435L58.7588 61.435Z" fill="#0A0A0A"/>
<path d="M20.4799 57.5589L36.4024 13.0312L28.1544 17.5543L17.168 48.175L20.4799 57.5589Z" fill="#0A0A0A"/>
<path d="M48.9131 31.3693H42.5275L40.2302 24.4398L41.5182 21.791H45.7203L48.9131 31.3693Z" fill="#0A0A0A"/>
<path d="M105.728 56.1978L119.859 15.9021H130.844L145.417 56.1978H138.572L125.821 20.318L128.526 21.5876H121.846L124.717 20.318L112.352 56.1978H105.728ZM114.891 44.8266L116.989 39.0859H133.88L136.033 44.8266H114.891ZM157.839 56.1978V20.6492H164.463V56.1978H157.839ZM145.916 21.7532V15.9021H176.442V21.7532H145.916ZM184.256 56.1978V15.6261H190.88V56.1978H184.256ZM208.985 56.1978L196.179 38.4787H203.686L216.879 56.1978H208.985ZM188.727 42.1771V36.6019H199.215C200.797 36.6019 202.159 36.2891 203.3 35.6635C204.441 35.0011 205.305 34.0995 205.894 32.9587C206.52 31.8179 206.833 30.4932 206.833 28.9844C206.833 27.5124 206.52 26.206 205.894 25.0652C205.305 23.9244 204.441 23.0228 203.3 22.3604C202.159 21.698 200.797 21.3668 199.215 21.3668H188.727V15.6261H198.332C201.423 15.6261 204.109 16.1045 206.391 17.0613C208.673 17.9813 210.439 19.3796 211.69 21.2564C212.941 23.1332 213.567 25.5436 213.567 28.4876V29.3708C213.567 32.3147 212.923 34.7251 211.635 36.6019C210.384 38.4787 208.617 39.8771 206.336 40.7971C204.091 41.7171 201.423 42.1771 198.332 42.1771H188.727ZM224.66 56.1978V15.9021H231.284V56.1978H224.66ZM259.618 57.1913C255.902 57.1913 252.774 56.4922 250.234 55.0938C247.732 53.6586 245.819 51.653 244.494 49.077C243.206 46.501 242.562 43.5019 242.562 40.0795V15.9021H249.186V40.6315C249.186 42.6923 249.59 44.5138 250.4 46.0962C251.21 47.6786 252.387 48.9114 253.933 49.7946C255.478 50.641 257.374 51.0642 259.618 51.0642C261.863 51.0642 263.74 50.641 265.249 49.7946C266.794 48.9482 267.972 47.7338 268.782 46.1514C269.591 44.569 269.996 42.7291 269.996 40.6315V15.9021H276.62V40.0795C276.62 43.5019 275.976 46.501 274.688 49.077C273.4 51.653 271.486 53.6586 268.947 55.0938C266.445 56.4922 263.335 57.1913 259.618 57.1913ZM287.779 56.1978V15.9021H296.721L307.761 41.3491H308.699L319.629 15.9021H328.682V56.1978H322.113V21.8084L322.775 21.9188L311.625 47.9178H304.339L293.078 21.9188L293.851 21.8084V56.1978H287.779Z" fill="#ECECEC"/>
</svg>
