<svg width="231" height="71" viewBox="0 0 231 71" fill="none" xmlns="http://www.w3.org/2000/svg">
<path d="M2.2652 54.2642L16.3963 13.9685H27.381L41.9537 54.2642H35.1089L22.3578 18.3844L25.0626 19.654H18.3835L21.2538 18.3844L8.88914 54.2642H2.2652ZM11.4283 42.8931L13.5259 37.1523H30.417L32.5698 42.8931H11.4283ZM54.3766 54.2642V18.7156H61.0005V54.2642H54.3766ZM42.4535 19.8196V13.9685H72.9789V19.8196H42.4535ZM80.793 54.2642V13.6925H87.417V54.2642H80.793ZM105.522 54.2642L92.7161 36.5451H100.223L113.416 54.2642H105.522ZM85.2642 40.2435V34.6683H95.7521C97.3345 34.6683 98.6961 34.3555 99.8369 33.7299C100.978 33.0675 101.842 32.1659 102.431 31.0251C103.057 29.8844 103.37 28.5596 103.37 27.0508C103.37 25.5788 103.057 24.2724 102.431 23.1316C101.842 21.9908 100.978 21.0892 99.8369 20.4268C98.6961 19.7644 97.3345 19.4332 95.7521 19.4332H85.2642V13.6925H94.8689C97.9601 13.6925 100.646 14.1709 102.928 15.1277C105.21 16.0477 106.976 17.4461 108.227 19.3228C109.478 21.1996 110.104 23.61 110.104 26.554V27.4372C110.104 30.3812 109.46 32.7915 108.172 34.6683C106.921 36.5451 105.154 37.9435 102.873 38.8635C100.628 39.7835 97.9601 40.2435 94.8689 40.2435H85.2642ZM121.197 54.2642V13.9685H127.821V54.2642H121.197ZM156.156 55.2578C152.439 55.2578 149.311 54.5586 146.772 53.1602C144.269 51.725 142.356 49.7194 141.031 47.1434C139.743 44.5674 139.099 41.5683 139.099 38.1459V13.9685H145.723V38.6979C145.723 40.7587 146.128 42.5803 146.937 44.1626C147.747 45.745 148.924 46.9778 150.47 47.861C152.016 48.7074 153.911 49.1306 156.156 49.1306C158.4 49.1306 160.277 48.7074 161.786 47.861C163.331 47.0146 164.509 45.8002 165.319 44.2178C166.128 42.6355 166.533 40.7955 166.533 38.6979V13.9685H173.157V38.1459C173.157 41.5683 172.513 44.5674 171.225 47.1434C169.937 49.7194 168.023 51.725 165.484 53.1602C162.982 54.5586 159.872 55.2578 156.156 55.2578ZM184.316 54.2642V13.9685H193.258L204.298 39.4155H205.237L216.166 13.9685H225.219V54.2642H218.65V19.8748L219.312 19.9852L208.162 45.9842H200.876L189.615 19.9852L190.388 19.8748V54.2642H184.316Z" fill="#ECECEC"/>
</svg>
