<svg width="67" height="17" viewBox="0 0 67 17" fill="none" xmlns="http://www.w3.org/2000/svg">
<g clip-path="url(#clip0_3130_31862)">
<path d="M15.9045 14.966H12.1616L11.0509 12.2205H4.86915L3.83081 14.966H0.18457L5.73845 1.06836H9.72275L15.9045 14.966ZM7.81511 4.37269L5.7626 9.79083H10.0125L7.81511 4.37269Z" fill="black"/>
<path d="M29.3304 1.06836H32.3247V14.966H28.8716V6.31642L25.153 10.6655H24.6217L20.903 6.29212V14.9417H17.4741V1.06836H20.4684L24.9115 6.24353L29.3304 1.06836Z" fill="black"/>
<path d="M41.0421 1.06836C46.0889 1.06836 48.6968 4.22691 48.6968 8.04147C48.6968 12.0261 46.1855 14.966 40.6799 14.966H34.957V1.06836H41.0421ZM38.4101 12.4149H40.6558C44.1089 12.4149 45.1472 10.0581 45.1472 8.01718C45.1472 5.61182 43.8674 3.6195 40.6075 3.6195H38.4101V12.4149Z" fill="black"/>
<path d="M62.6536 4.37338H55.5301L51.1836 0H67.0001V15.89L62.6536 11.5409V4.37338Z" fill="black"/>
<path d="M55.5302 11.5409V5.24805L51.063 9.74291V16.0357H57.3171L61.7844 11.5409H55.5302Z" fill="black"/>
</g>
<defs>
<clipPath id="clip0_3130_31862">
<rect width="66.8156" height="16.0357" fill="white" transform="translate(0.18457)"/>
</clipPath>
</defs>
</svg>
