<svg width="462" height="427" viewBox="0 0 462 427" fill="none" xmlns="http://www.w3.org/2000/svg">
<g clip-path="url(#clip0_3798_42852)">
<g opacity="0.2">
<path d="M375.383 362.907L324.954 209.937H234.18L222.413 246.918H296.377L332.339 362.907H375.383Z" stroke="#0A0A0A" stroke-width="1.00649"/>
<path d="M133.542 338.419L234.14 57.0938L182.029 85.6706L112.617 279.131L133.542 338.419Z" stroke="#0A0A0A" stroke-width="1.00649"/>
<path d="M313.179 172.951H272.835L258.32 129.171L266.458 112.436H293.007L313.179 172.951Z" stroke="#0A0A0A" stroke-width="1.00649"/>
</g>
<g opacity="0.2">
<line x1="237.237" y1="-72.2432" x2="15.3054" y2="554.802" stroke="#0A0A0A" stroke-width="0.503247"/>
<line x1="279.007" y1="-72.2432" x2="57.0749" y2="554.802" stroke="#0A0A0A" stroke-width="0.503247"/>
<line x1="222.141" y1="-104.614" x2="431.995" y2="529.98" stroke="#0A0A0A" stroke-width="0.503247"/>
<line x1="191.445" y1="-85.4874" x2="392.241" y2="555.146" stroke="#0A0A0A" stroke-width="0.503247"/>
<line x1="-50.7754" y1="211.252" x2="475.117" y2="211.252" stroke="#0A0A0A" stroke-width="0.503247"/>
<line x1="-9.50977" y1="247.486" x2="516.383" y2="247.486" stroke="#0A0A0A" stroke-width="0.503247"/>
</g>
</g>
<defs>
<clipPath id="clip0_3798_42852">
<rect width="462" height="427" rx="20" fill="white"/>
</clipPath>
</defs>
</svg>
