<svg width="89" height="26" viewBox="0 0 89 26" fill="none" xmlns="http://www.w3.org/2000/svg">
<g clip-path="url(#clip0_3130_31826)">
<path d="M8.14177 19.2831C12.2257 19.2831 14.6599 16.8975 14.6599 14.1182C14.6599 11.9287 13.3315 10.5266 11.142 9.76426C12.373 9.02697 13.4302 7.67352 13.4302 6.0503C13.4302 3.41845 11.2408 1.79509 7.40435 1.79509C5.75598 1.79509 5.36233 1.94255 3.8127 1.94255C2.26308 1.94255 1.23088 1.82011 0.589699 1.82011C0.197488 1.82024 0 2.04143 0 2.36136C0 2.63258 0.147458 2.85376 0.66356 2.95119C1.99331 3.14736 2.31193 3.41858 2.31193 4.08214C2.33694 6.17288 2.36064 7.74751 2.36064 10.5018C2.36064 13.2561 2.36064 14.8806 2.31193 16.9714C2.28691 17.685 2.04071 17.8811 0.71359 18.0049C0.197488 18.0786 0.0500303 18.3248 0.0500303 18.5947C0.0500303 18.9147 0.247518 19.1357 0.639861 19.1357C1.59965 19.1357 2.50941 19.0871 3.81283 19.0871C5.04253 19.0871 6.17479 19.2845 8.14177 19.2845V19.2831ZM5.28873 4.08201C5.28873 3.5896 5.41249 3.39343 5.78113 3.24597C6.07605 3.14723 6.51842 3.09852 7.20831 3.09852C9.25021 3.09852 10.5049 4.20576 10.5049 6.37023C10.5049 7.57491 10.1113 8.58341 9.47271 9.34704C8.21668 9.12585 6.79082 9.05212 5.2412 9.12585C5.2412 7.18257 5.2412 5.7804 5.28991 4.08332L5.28873 4.08201ZM6.29855 17.7836C5.55995 17.6111 5.31374 17.3649 5.28873 16.4802C5.24001 14.6106 5.24001 13.1597 5.24001 10.5029V10.4542C9.42268 10.3554 11.6108 11.2902 11.6108 14.3407C11.6108 16.1365 10.3324 17.9324 7.7493 17.9324C7.08442 17.9324 6.66575 17.8836 6.29842 17.7849L6.29855 17.7836ZM21.3008 19.3318C23.4414 19.3318 24.9173 18.2747 25.8021 17.2161C26.1957 16.7488 25.9495 16.3301 25.5572 16.3301C25.4584 16.3301 25.3597 16.3788 25.2623 16.4288C24.2301 17.0687 23.4177 17.4123 22.3105 17.4123C19.8749 17.4123 18.4227 15.2729 18.4227 12.8372V12.7885C20.8347 12.4435 23.1952 11.9761 25.6309 11.4113C25.9495 11.3376 26.1707 11.0914 26.097 10.7227C25.7046 8.95193 24.0813 7.00865 21.2771 7.00865C18.4728 7.00865 15.8896 9.61549 15.8896 13.3796C15.8896 16.9212 18.1778 19.3318 21.3008 19.3318ZM21.1296 8.26348C22.7041 8.26348 23.4164 9.69066 23.4164 10.2555C23.4164 10.4517 23.3177 10.6004 23.0965 10.6491C21.7682 10.9941 20.1698 11.3127 18.4965 11.6089C18.7914 9.37073 19.8986 8.26348 21.1296 8.26348ZM27.1055 19.1356C27.8928 19.1356 28.7288 19.062 29.6886 19.062C30.6484 19.062 31.7542 19.1356 32.5415 19.1356C32.8865 19.1356 33.0576 18.9145 33.0576 18.6683C33.0576 18.3984 32.9115 18.1759 32.4191 18.1022C31.1644 17.9547 31.042 17.8323 31.0169 17.3149C30.9684 15.9614 30.9684 14.7568 30.9684 13.1821V11.1164C32.2466 9.41932 32.8378 9.07437 33.4763 9.07437C34.2399 9.07437 34.8785 10.0342 35.1984 10.0342C35.3709 10.0342 35.4696 9.98545 35.5921 9.73925C35.8383 9.24684 36.0832 8.75576 36.3294 8.23834C36.4768 7.91841 36.4031 7.74593 36.1082 7.54976C35.5183 7.1561 34.9035 6.8862 34.2887 6.8862C33.2051 6.8862 32.2216 7.79596 30.9921 9.81297C30.9921 9.00064 31.0171 8.1159 31.0408 7.1324C31.0408 6.81247 30.8433 6.73875 30.5734 6.81247C29.295 7.1561 28.089 7.35359 27.0555 7.42732C26.6381 7.47603 26.4906 7.64851 26.4906 7.91972C26.4906 8.19094 26.6381 8.38711 27.1042 8.46084C28.1877 8.65701 28.3102 8.78077 28.3352 9.32189C28.3839 10.5516 28.3839 11.855 28.3839 13.1834C28.3839 14.7581 28.3839 15.9628 28.3352 17.3162C28.3102 17.8323 28.2364 17.9561 27.1529 18.1035C26.7105 18.2023 26.5631 18.3984 26.5631 18.6697C26.5631 18.9159 26.7355 19.1369 27.1029 19.1369L27.1055 19.1356ZM36.2306 19.1356C37.043 19.1356 37.854 19.062 38.8388 19.062C39.8236 19.062 40.6582 19.1356 41.4705 19.1356C41.8391 19.1356 42.0103 18.9145 42.0103 18.6683C42.0103 18.3984 41.8628 18.2009 41.4205 18.1022C40.3145 17.9297 40.1908 17.856 40.1908 17.3399C40.1658 16.5526 40.1658 15.7653 40.1658 15.003C40.7056 14.658 41.248 14.2894 41.7641 13.9207C42.7963 15.4703 43.8535 17.0687 44.887 18.5446C45.207 19.012 45.3794 19.1106 45.8969 19.1106C46.6342 19.1106 47.5452 19.0856 48.6025 19.1106C48.9723 19.1106 49.1685 18.8895 49.1685 18.6183C49.1685 18.3721 49.0697 18.1509 48.5524 18.1022C47.8638 18.0285 47.4952 17.6835 46.9041 16.9212C45.8719 15.5191 44.7896 13.9207 43.7798 12.3711C43.7798 12.3461 43.8048 12.3461 43.8285 12.3224C45.7231 10.674 46.9778 9.41932 47.9112 8.18962C48.0337 8.01715 48.1087 7.86969 48.1087 7.72224C48.1087 7.42732 47.9112 7.22983 47.5189 7.25485C46.3629 7.35359 45.3044 7.35359 44.001 7.27986C43.4836 7.25485 43.3374 7.50105 43.3374 7.74725C43.3374 7.96844 43.5086 8.21464 43.8535 8.28837L44.3459 8.41081C45.1569 8.6083 45.1569 9.27186 44.1484 10.3291C43.0662 11.485 41.664 12.5923 40.1394 13.5508V10.5002C40.1394 8.45821 40.1394 6.22014 40.2132 1.25148C40.2132 0.931545 40.0157 0.857817 39.7459 0.931545C38.4675 1.25148 37.2378 1.44765 36.228 1.54639C35.8106 1.57141 35.6382 1.76758 35.6382 2.01378C35.6382 2.28368 35.8106 2.48117 36.2767 2.5549C37.3603 2.75107 37.4814 2.87483 37.5064 3.44096C37.5551 5.92523 37.5551 8.26217 37.5551 10.5004C37.5551 12.7386 37.5551 14.9529 37.5064 17.3386C37.4814 17.8547 37.3826 17.9284 36.2767 18.1009C35.8343 18.1996 35.6869 18.3958 35.6869 18.667C35.6869 18.9132 35.8593 19.1344 36.2267 19.1344L36.2306 19.1356ZM53.9898 19.3318C56.1306 19.3318 57.6063 18.2747 58.4911 17.2161C58.8847 16.7488 58.6385 16.3301 58.2462 16.3301C58.1474 16.3301 58.0487 16.3788 57.9513 16.4288C56.9179 17.0687 56.1069 17.4123 54.9996 17.4123C52.5639 17.4123 51.1117 15.2729 51.1117 12.8372V12.7885C53.5237 12.4435 55.8844 11.9761 58.3199 11.4113C58.6385 11.3376 58.8597 11.0914 58.786 10.7227C58.3923 8.95193 56.7704 7.00865 53.9648 7.00865C51.1591 7.00865 48.5788 9.61549 48.5788 13.3796C48.5788 16.9212 50.8669 19.3318 53.9898 19.3318ZM53.8186 8.26348C55.392 8.26348 56.1055 9.69066 56.1055 10.2555C56.1055 10.4517 56.0068 10.6004 55.7856 10.6491C54.4572 10.9941 52.8588 11.3127 51.1855 11.6089C51.4804 9.37073 52.5876 8.26348 53.8186 8.26348ZM59.3771 19.1356C60.1882 19.1356 61.0505 19.062 62.0327 19.062C63.0149 19.062 63.9273 19.1356 64.7383 19.1356C65.1082 19.1356 65.2794 18.9145 65.2794 18.6683C65.2794 18.3984 65.1069 18.1522 64.6882 18.1022C63.5823 17.9798 63.3848 17.856 63.3848 17.3399C63.3361 14.9542 63.3361 12.716 63.3361 10.5015C63.3361 8.45952 63.3361 6.22146 63.4098 1.25279C63.4098 0.932862 63.2123 0.859133 62.9424 0.932862C61.664 1.25279 60.4344 1.44896 59.4258 1.54771C59.0072 1.57272 58.8347 1.76889 58.8347 2.0151C58.8347 2.285 59.0072 2.48248 59.4746 2.55621C60.5568 2.75238 60.6792 2.87614 60.7043 3.44228C60.753 5.92654 60.753 8.26348 60.753 10.5015C60.753 12.7397 60.753 14.9542 60.7043 17.3399C60.6792 17.856 60.5318 17.9547 59.4258 18.1022C58.9822 18.1509 58.8347 18.3971 58.8347 18.6683C58.8347 18.9145 59.0072 19.1356 59.3758 19.1356H59.3771ZM70.8642 19.3318C73.005 19.3318 74.4809 18.2747 75.3656 17.2161C75.7592 16.7488 75.513 16.3301 75.1194 16.3301C75.0207 16.3301 74.9219 16.3788 74.8245 16.4288C73.7923 17.0687 72.9813 17.4123 71.8727 17.4123C69.4384 17.4123 67.9875 15.2729 67.9875 12.8372V12.7885C70.3968 12.4435 72.7601 11.9761 75.1945 11.4113C75.5144 11.3376 75.7355 11.0914 75.6617 10.7227C75.2682 8.95193 73.6449 7.00865 70.8405 7.00865C68.0362 7.00865 65.4545 9.61549 65.4545 13.3796C65.4545 16.9212 67.7413 19.3318 70.8655 19.3318H70.8642ZM70.6917 8.26348C72.2664 8.26348 72.98 9.69066 72.98 10.2555C72.98 10.4517 72.8812 10.6004 72.66 10.6491C71.3316 10.9941 69.7333 11.3127 68.0599 11.6089C68.3548 9.37073 69.4621 8.26348 70.6917 8.26348ZM78.366 25.0642C79.5957 25.0642 80.7517 24.1544 83.0649 19.3081C84.6395 15.864 85.8191 12.8148 87.0488 9.69066C87.4424 8.68216 87.6399 8.48599 88.2534 8.31351C88.6971 8.19107 88.8696 8.0186 88.8696 7.74738C88.8696 7.50118 88.7221 7.27999 88.3522 7.27999C87.8124 7.27999 87.1712 7.35372 86.4352 7.35372C85.6993 7.35372 85.1055 7.27999 84.5407 7.27999C84.1958 7.27999 84.0234 7.47617 84.0234 7.72237C84.0234 7.99227 84.1958 8.16474 84.5894 8.2885C85.6716 8.58341 85.7704 9.0508 85.3517 10.3305C84.6881 12.3475 83.9496 14.2907 82.8187 16.8738C81.8602 14.4882 81.0479 12.3474 80.2369 9.93673C79.942 9.00196 80.0394 8.6083 81.1953 8.28837C81.639 8.16593 81.7865 8.01847 81.7865 7.74725C81.7865 7.47603 81.589 7.27986 81.2454 7.27986C80.5081 7.27986 79.7445 7.35359 78.7373 7.35359C77.6537 7.35359 76.8677 7.27986 76.1041 7.27986C75.7369 7.27986 75.5643 7.50105 75.5643 7.74725C75.5643 8.04217 75.7119 8.18962 76.1541 8.31338C76.7203 8.46084 76.8927 8.65701 77.2377 9.54307C78.5898 12.9122 79.7958 15.889 81.3691 19.9229C80.3119 21.8662 79.5246 22.3086 78.4661 22.5061C77.6037 22.6535 77.0389 23.1946 77.0389 23.8832C77.0389 24.4493 77.4325 25.0642 78.3673 25.0642H78.366Z" fill="#002676"/>
</g>
<defs>
<clipPath id="clip0_3130_31826">
<rect width="88.8696" height="24.2252" fill="white" transform="translate(0 0.905273)"/>
</clipPath>
</defs>
</svg>
