<svg width="104" height="24" viewBox="0 0 104 24" fill="none" xmlns="http://www.w3.org/2000/svg">
<rect x="0.333252" width="103" height="24" rx="3" fill="#8B5CF6" fill-opacity="0.1"/>
<path d="M9.83301 8.5V7C9.83301 6.72386 10.0569 6.5 10.333 6.5H14.333C14.6092 6.5 14.833 6.72386 14.833 7V8.5H16.833C17.1092 8.5 17.333 8.72386 17.333 9V16C17.333 16.2761 17.1092 16.5 16.833 16.5H7.83301C7.55687 16.5 7.33301 16.2761 7.33301 16V9C7.33301 8.72386 7.55687 8.5 7.83301 8.5H9.83301ZM8.33301 13.5V15.5H16.333V13.5H8.33301ZM11.833 11.5V12.5H12.833V11.5H11.833ZM10.833 7.5V8.5H13.833V7.5H10.833Z" fill="#8B5CF6"/>
<path d="M32.9083 10.1293H31.3572C31.2975 9.79782 31.1865 9.50615 31.0241 9.25426C30.8617 9.00237 30.6628 8.78859 30.4275 8.61293C30.1921 8.43726 29.9287 8.30469 29.637 8.2152C29.3486 8.12571 29.0421 8.08097 28.7172 8.08097C28.1306 8.08097 27.6053 8.22846 27.1412 8.52344C26.6805 8.81842 26.316 9.25095 26.0475 9.82102C25.7823 10.3911 25.6498 11.0871 25.6498 11.9091C25.6498 12.7377 25.7823 13.437 26.0475 14.0071C26.316 14.5772 26.6822 15.008 27.1462 15.2997C27.6102 15.5914 28.1323 15.7372 28.7123 15.7372C29.0338 15.7372 29.3387 15.6941 29.627 15.608C29.9187 15.5185 30.1822 15.3875 30.4175 15.2152C30.6528 15.0429 30.8517 14.8324 31.0141 14.5838C31.1798 14.3319 31.2942 14.0436 31.3572 13.7188L32.9083 13.7237C32.8254 14.2242 32.6647 14.6849 32.426 15.1058C32.1907 15.5234 31.8875 15.8847 31.5162 16.1896C31.1483 16.4912 30.7274 16.7249 30.2535 16.8906C29.7795 17.0563 29.2625 17.1392 28.7023 17.1392C27.8207 17.1392 27.0352 16.9304 26.3458 16.5128C25.6564 16.0919 25.1128 15.4903 24.7151 14.7081C24.3207 13.9259 24.1235 12.9929 24.1235 11.9091C24.1235 10.822 24.3224 9.88897 24.7201 9.11008C25.1178 8.32789 25.6614 7.72798 26.3508 7.31037C27.0402 6.88944 27.824 6.67898 28.7023 6.67898C29.2426 6.67898 29.7464 6.75687 30.2137 6.91264C30.6843 7.0651 31.1069 7.29048 31.4814 7.58878C31.856 7.88376 32.1659 8.24503 32.4111 8.67258C32.6564 9.09683 32.8221 9.58239 32.9083 10.1293ZM37.8438 17.1541C37.1279 17.1541 36.5032 16.9901 35.9695 16.6619C35.4359 16.3338 35.0216 15.8748 34.7267 15.2848C34.4317 14.6948 34.2842 14.0054 34.2842 13.2166C34.2842 12.4245 34.4317 11.7318 34.7267 11.1385C35.0216 10.5452 35.4359 10.0845 35.9695 9.75639C36.5032 9.42827 37.1279 9.2642 37.8438 9.2642C38.5597 9.2642 39.1845 9.42827 39.7181 9.75639C40.2517 10.0845 40.666 10.5452 40.961 11.1385C41.256 11.7318 41.4035 12.4245 41.4035 13.2166C41.4035 14.0054 41.256 14.6948 40.961 15.2848C40.666 15.8748 40.2517 16.3338 39.7181 16.6619C39.1845 16.9901 38.5597 17.1541 37.8438 17.1541ZM37.8488 15.9062C38.3128 15.9062 38.6973 15.7836 39.0022 15.5384C39.3071 15.2931 39.5325 14.9666 39.6784 14.5589C39.8275 14.1513 39.9021 13.7022 39.9021 13.2116C39.9021 12.7244 39.8275 12.277 39.6784 11.8693C39.5325 11.4583 39.3071 11.1286 39.0022 10.88C38.6973 10.6314 38.3128 10.5071 37.8488 10.5071C37.3815 10.5071 36.9937 10.6314 36.6855 10.88C36.3805 11.1286 36.1535 11.4583 36.0044 11.8693C35.8585 12.277 35.7856 12.7244 35.7856 13.2116C35.7856 13.7022 35.8585 14.1513 36.0044 14.5589C36.1535 14.9666 36.3805 15.2931 36.6855 15.5384C36.9937 15.7836 37.3815 15.9062 37.8488 15.9062ZM43.0628 17V9.36364H44.4896V10.6065H44.5841C44.7432 10.1856 45.0033 9.85748 45.3646 9.62216C45.7259 9.38352 46.1584 9.2642 46.6622 9.2642C47.1726 9.2642 47.6002 9.38352 47.9449 9.62216C48.2929 9.8608 48.5497 10.1889 48.7155 10.6065H48.795C48.9773 10.1989 49.2673 9.87405 49.665 9.6321C50.0628 9.38684 50.5367 9.2642 51.0869 9.2642C51.7796 9.2642 52.3447 9.4813 52.7822 9.91548C53.223 10.3497 53.4434 11.0043 53.4434 11.8793V17H51.9569V12.0185C51.9569 11.5014 51.8161 11.1269 51.5344 10.8949C51.2526 10.6629 50.9162 10.5469 50.5251 10.5469C50.0412 10.5469 49.665 10.696 49.3966 10.9943C49.1281 11.2893 48.9939 11.6688 48.9939 12.1328V17H47.5123V11.924C47.5123 11.5097 47.3831 11.1766 47.1246 10.9247C46.866 10.6728 46.5296 10.5469 46.1153 10.5469C45.8336 10.5469 45.5734 10.6214 45.3348 10.7706C45.0995 10.9164 44.9089 11.1203 44.7631 11.3821C44.6205 11.6439 44.5493 11.9472 44.5493 12.2919V17H43.0628ZM55.4358 19.8636V9.36364H56.8875V10.6016H57.0118C57.098 10.4425 57.2223 10.2585 57.3847 10.0497C57.5471 9.84091 57.7725 9.65862 58.0608 9.50284C58.3492 9.34375 58.7303 9.2642 59.2043 9.2642C59.8208 9.2642 60.3709 9.41998 60.8548 9.73153C61.3387 10.0431 61.7182 10.4922 61.9933 11.0788C62.2718 11.6655 62.411 12.3714 62.411 13.1967C62.411 14.022 62.2734 14.7296 61.9983 15.3196C61.7232 15.9062 61.3454 16.3587 60.8648 16.6768C60.3842 16.9917 59.8357 17.1491 59.2192 17.1491C58.7552 17.1491 58.3757 17.0713 58.0807 16.9155C57.789 16.7597 57.5603 16.5774 57.3946 16.3686C57.2289 16.1598 57.1013 15.9742 57.0118 15.8118H56.9223V19.8636H55.4358ZM56.8925 13.1818C56.8925 13.7187 56.9704 14.1894 57.1262 14.5938C57.2819 14.9981 57.5073 15.3146 57.8023 15.5433C58.0973 15.7687 58.4585 15.8814 58.8861 15.8814C59.3302 15.8814 59.7014 15.7637 59.9997 15.5284C60.298 15.2898 60.5234 14.9666 60.6759 14.5589C60.8316 14.1513 60.9095 13.6922 60.9095 13.1818C60.9095 12.678 60.8333 12.2256 60.6808 11.8246C60.5317 11.4235 60.3063 11.107 60.0047 10.875C59.7064 10.643 59.3335 10.527 58.8861 10.527C58.4552 10.527 58.0906 10.638 57.7923 10.8601C57.4974 11.0821 57.2736 11.392 57.1212 11.7898C56.9687 12.1875 56.8925 12.6515 56.8925 13.1818ZM66.2987 17.169C65.8148 17.169 65.3773 17.0795 64.9862 16.9006C64.5951 16.7183 64.2852 16.4548 64.0566 16.1101C63.8312 15.7654 63.7185 15.3428 63.7185 14.8423C63.7185 14.4115 63.8013 14.0568 63.9671 13.7784C64.1328 13.5 64.3565 13.2796 64.6382 13.1172C64.92 12.9548 65.2348 12.8321 65.5828 12.7493C65.9308 12.6664 66.2855 12.6035 66.6468 12.5604C67.1041 12.5073 67.4753 12.4643 67.7604 12.4311C68.0454 12.3946 68.2526 12.3366 68.3818 12.2571C68.5111 12.1776 68.5757 12.0483 68.5757 11.8693V11.8345C68.5757 11.4003 68.4531 11.0639 68.2078 10.8253C67.9659 10.5866 67.6046 10.4673 67.124 10.4673C66.6235 10.4673 66.2291 10.5784 65.9408 10.8004C65.6557 11.0192 65.4585 11.2628 65.3492 11.5312L63.9521 11.2131C64.1179 10.7491 64.3598 10.3745 64.678 10.0895C64.9995 9.80114 65.3691 9.59233 65.7867 9.46307C66.2043 9.33049 66.6434 9.2642 67.1041 9.2642C67.4091 9.2642 67.7322 9.30066 68.0736 9.37358C68.4183 9.44318 68.7398 9.57244 69.0381 9.76136C69.3397 9.95028 69.5866 10.2204 69.7789 10.5717C69.9711 10.9197 70.0672 11.3722 70.0672 11.929V17H68.6155V15.956H68.5558C68.4597 16.1482 68.3155 16.3371 68.1233 16.5227C67.9311 16.7083 67.6842 16.8625 67.3825 16.9851C67.0809 17.1077 66.7197 17.169 66.2987 17.169ZM66.6219 15.9759C67.0329 15.9759 67.3842 15.8946 67.6759 15.7322C67.9709 15.5698 68.1946 15.3577 68.347 15.0959C68.5028 14.8307 68.5807 14.5473 68.5807 14.2457V13.2614C68.5277 13.3144 68.4249 13.3641 68.2725 13.4105C68.1233 13.4536 67.9526 13.4917 67.7604 13.5249C67.5682 13.5547 67.3809 13.5829 67.1986 13.6094C67.0163 13.6326 66.8638 13.6525 66.7412 13.669C66.4529 13.7055 66.1894 13.7668 65.9507 13.853C65.7154 13.9392 65.5265 14.0634 65.384 14.2259C65.2448 14.3849 65.1752 14.5971 65.1752 14.8622C65.1752 15.2301 65.311 15.5085 65.5828 15.6974C65.8546 15.883 66.201 15.9759 66.6219 15.9759ZM73.5336 12.4659V17H72.0471V9.36364H73.474V10.6065H73.5684C73.7441 10.2022 74.0192 9.87737 74.3937 9.6321C74.7716 9.38684 75.2472 9.2642 75.8206 9.2642C76.3409 9.2642 76.7967 9.37358 77.1878 9.59233C77.5789 9.80777 77.8821 10.1293 78.0976 10.5568C78.313 10.9844 78.4207 11.513 78.4207 12.1428V17H76.9342V12.3217C76.9342 11.7682 76.79 11.3357 76.5017 11.0241C76.2133 10.7093 75.8173 10.5518 75.3135 10.5518C74.9688 10.5518 74.6622 10.6264 74.3937 10.7756C74.1286 10.9247 73.9181 11.1435 73.7623 11.4318C73.6099 11.7169 73.5336 12.0616 73.5336 12.4659ZM80.4143 17V9.36364H81.9008V17H80.4143ZM81.165 8.18537C80.9065 8.18537 80.6845 8.09919 80.4988 7.92685C80.3166 7.75118 80.2254 7.54238 80.2254 7.30043C80.2254 7.05516 80.3166 6.84635 80.4988 6.67401C80.6845 6.49834 80.9065 6.41051 81.165 6.41051C81.4236 6.41051 81.644 6.49834 81.8263 6.67401C82.0119 6.84635 82.1047 7.05516 82.1047 7.30043C82.1047 7.54238 82.0119 7.75118 81.8263 7.92685C81.644 8.09919 81.4236 8.18537 81.165 8.18537ZM87.1919 17.1541C86.4395 17.1541 85.7915 16.9934 85.248 16.6719C84.7077 16.3471 84.2901 15.8913 83.9951 15.3047C83.7035 14.7147 83.5576 14.0237 83.5576 13.2315C83.5576 12.4493 83.7035 11.7599 83.9951 11.1634C84.2901 10.5668 84.7011 10.1011 85.2281 9.76633C85.7584 9.43158 86.3782 9.2642 87.0874 9.2642C87.5183 9.2642 87.9359 9.33546 88.3403 9.47798C88.7446 9.6205 89.1076 9.84422 89.4291 10.1491C89.7506 10.4541 90.0041 10.8501 90.1897 11.3374C90.3753 11.8213 90.4681 12.4096 90.4681 13.1023V13.6293H84.3978V12.5156H89.0115C89.0115 12.1245 88.9319 11.7782 88.7728 11.4766C88.6137 11.1716 88.39 10.9313 88.1017 10.7557C87.8166 10.58 87.4819 10.4922 87.0974 10.4922C86.6798 10.4922 86.3152 10.5949 86.0036 10.8004C85.6954 11.0026 85.4568 11.2678 85.2877 11.5959C85.122 11.9207 85.0392 12.2737 85.0392 12.6548V13.5249C85.0392 14.0353 85.1286 14.4695 85.3076 14.8274C85.4899 15.1854 85.7435 15.4588 86.0683 15.6477C86.3931 15.8333 86.7726 15.9261 87.2068 15.9261C87.4885 15.9261 87.7454 15.8864 87.9774 15.8068C88.2094 15.724 88.4099 15.6013 88.5789 15.4389C88.748 15.2765 88.8772 15.076 88.9667 14.8374L90.3737 15.0909C90.261 15.5052 90.0588 15.8681 89.7671 16.1797C89.4788 16.4879 89.1159 16.7282 88.6784 16.9006C88.2442 17.0696 87.7487 17.1541 87.1919 17.1541ZM97.8398 11.228L96.4925 11.4666C96.4361 11.2943 96.3466 11.1302 96.224 10.9744C96.1047 10.8187 95.9423 10.6911 95.7368 10.5916C95.5313 10.4922 95.2744 10.4425 94.9662 10.4425C94.5452 10.4425 94.1939 10.5369 93.9122 10.7259C93.6305 10.9115 93.4896 11.1518 93.4896 11.4467C93.4896 11.7019 93.5841 11.9074 93.773 12.0632C93.9619 12.219 94.2668 12.3466 94.6878 12.446L95.9008 12.7244C96.6035 12.8868 97.1272 13.1371 97.4719 13.4751C97.8166 13.8132 97.9889 14.2524 97.9889 14.7926C97.9889 15.25 97.8563 15.6577 97.5912 16.0156C97.3293 16.3703 96.9631 16.6487 96.4925 16.8509C96.0251 17.053 95.4832 17.1541 94.8667 17.1541C94.0116 17.1541 93.314 16.9718 92.7737 16.6072C92.2335 16.2393 91.902 15.7173 91.7794 15.0412L93.2162 14.8224C93.3057 15.197 93.4896 15.4804 93.768 15.6726C94.0464 15.8615 94.4094 15.956 94.8568 15.956C95.344 15.956 95.7335 15.8549 96.0251 15.6527C96.3168 15.4472 96.4626 15.197 96.4626 14.902C96.4626 14.6634 96.3731 14.4628 96.1942 14.3004C96.0185 14.138 95.7484 14.0154 95.3838 13.9325L94.0912 13.6491C93.3786 13.4867 92.8516 13.2282 92.5102 12.8736C92.1721 12.5189 92.0031 12.0698 92.0031 11.5263C92.0031 11.0755 92.1291 10.6811 92.3809 10.343C92.6328 10.005 92.9809 9.74148 93.425 9.55256C93.8691 9.36032 94.3779 9.2642 94.9513 9.2642C95.7765 9.2642 96.4262 9.44318 96.9001 9.80114C97.3741 10.1558 97.6873 10.6314 97.8398 11.228Z" fill="#8B5CF6"/>
</svg>
