<svg width="99" height="24" viewBox="0 0 99 24" fill="none" xmlns="http://www.w3.org/2000/svg">
<rect width="99" height="24" rx="3" fill="#60A5FA" fill-opacity="0.12"/>
<path d="M7 17C7 14.7908 8.79086 13 11 13C13.2092 13 15 14.7908 15 17H7ZM11 12.5C9.3425 12.5 8 11.1575 8 9.5C8 7.8425 9.3425 6.5 11 6.5C12.6575 6.5 14 7.8425 14 9.5C14 11.1575 12.6575 12.5 11 12.5ZM14.6814 13.6166C16.2241 14.0108 17.384 15.3617 17.4918 17H16C16 15.6951 15.5001 14.507 14.6814 13.6166ZM13.6701 12.4784C14.4864 11.7461 15 10.683 15 9.5C15 8.79133 14.8157 8.12571 14.4924 7.54843C15.6376 7.77698 16.5 8.78732 16.5 10C16.5 11.3812 15.3813 12.5 14 12.5C13.8882 12.5 13.778 12.4927 13.6701 12.4784Z" fill="#2563EB"/>
<path d="M25.6548 6.81818V17H24.1186V6.81818H25.6548ZM29.2592 12.4659V17H27.7727V9.36364H29.1996V10.6065H29.294C29.4697 10.2022 29.7448 9.87737 30.1193 9.6321C30.4972 9.38684 30.9728 9.2642 31.5462 9.2642C32.0665 9.2642 32.5223 9.37358 32.9134 9.59233C33.3045 9.80777 33.6077 10.1293 33.8232 10.5568C34.0386 10.9844 34.1463 11.513 34.1463 12.1428V17H32.6598V12.3217C32.6598 11.7682 32.5156 11.3357 32.2273 11.0241C31.9389 10.7093 31.5429 10.5518 31.0391 10.5518C30.6944 10.5518 30.3878 10.6264 30.1193 10.7756C29.8542 10.9247 29.6437 11.1435 29.4879 11.4318C29.3355 11.7169 29.2592 12.0616 29.2592 12.4659ZM38.9986 17.1491C38.3821 17.1491 37.8319 16.9917 37.348 16.6768C36.8674 16.3587 36.4896 15.9062 36.2145 15.3196C35.9427 14.7296 35.8068 14.022 35.8068 13.1967C35.8068 12.3714 35.9444 11.6655 36.2195 11.0788C36.4979 10.4922 36.879 10.0431 37.3629 9.73153C37.8468 9.41998 38.3954 9.2642 39.0085 9.2642C39.4825 9.2642 39.8636 9.34375 40.152 9.50284C40.4437 9.65862 40.669 9.84091 40.8281 10.0497C40.9905 10.2585 41.1165 10.4425 41.206 10.6016H41.2955V6.81818H42.782V17H41.3303V15.8118H41.206C41.1165 15.9742 40.9872 16.1598 40.8182 16.3686C40.6525 16.5774 40.4238 16.7597 40.1321 16.9155C39.8404 17.0713 39.4626 17.1491 38.9986 17.1491ZM39.3267 15.8814C39.7543 15.8814 40.1155 15.7687 40.4105 15.5433C40.7088 15.3146 40.9342 14.9981 41.0866 14.5938C41.2424 14.1894 41.3203 13.7187 41.3203 13.1818C41.3203 12.6515 41.2441 12.1875 41.0916 11.7898C40.9392 11.392 40.7154 11.0821 40.4205 10.8601C40.1255 10.638 39.7609 10.527 39.3267 10.527C38.8793 10.527 38.5064 10.643 38.2081 10.875C37.9098 11.107 37.6844 11.4235 37.532 11.8246C37.3828 12.2256 37.3082 12.678 37.3082 13.1818C37.3082 13.6922 37.3845 14.1513 37.5369 14.5589C37.6894 14.9666 37.9148 15.2898 38.2131 15.5284C38.5147 15.7637 38.8859 15.8814 39.3267 15.8814ZM44.9036 17V9.36364H46.3901V17H44.9036ZM45.6543 8.18537C45.3958 8.18537 45.1737 8.09919 44.9881 7.92685C44.8058 7.75118 44.7147 7.54238 44.7147 7.30043C44.7147 7.05516 44.8058 6.84635 44.9881 6.67401C45.1737 6.49834 45.3958 6.41051 45.6543 6.41051C45.9128 6.41051 46.1332 6.49834 46.3155 6.67401C46.5011 6.84635 46.5939 7.05516 46.5939 7.30043C46.5939 7.54238 46.5011 7.75118 46.3155 7.92685C46.1332 8.09919 45.9128 8.18537 45.6543 8.18537ZM54.9226 9.36364L52.1534 17H50.5625L47.7884 9.36364H49.3842L51.3182 15.2401H51.3977L53.3267 9.36364H54.9226ZM56.3196 17V9.36364H57.8061V17H56.3196ZM57.0703 8.18537C56.8118 8.18537 56.5897 8.09919 56.4041 7.92685C56.2218 7.75118 56.1307 7.54238 56.1307 7.30043C56.1307 7.05516 56.2218 6.84635 56.4041 6.67401C56.5897 6.49834 56.8118 6.41051 57.0703 6.41051C57.3288 6.41051 57.5492 6.49834 57.7315 6.67401C57.9171 6.84635 58.0099 7.05516 58.0099 7.30043C58.0099 7.54238 57.9171 7.75118 57.7315 7.92685C57.5492 8.09919 57.3288 8.18537 57.0703 8.18537ZM62.6646 17.1491C62.0481 17.1491 61.4979 16.9917 61.014 16.6768C60.5334 16.3587 60.1556 15.9062 59.8805 15.3196C59.6087 14.7296 59.4728 14.022 59.4728 13.1967C59.4728 12.3714 59.6104 11.6655 59.8855 11.0788C60.1639 10.4922 60.545 10.0431 61.0289 9.73153C61.5128 9.41998 62.0614 9.2642 62.6745 9.2642C63.1485 9.2642 63.5297 9.34375 63.818 9.50284C64.1097 9.65862 64.335 9.84091 64.4941 10.0497C64.6565 10.2585 64.7825 10.4425 64.872 10.6016H64.9615V6.81818H66.448V17H64.9963V15.8118H64.872C64.7825 15.9742 64.6532 16.1598 64.4842 16.3686C64.3185 16.5774 64.0898 16.7597 63.7981 16.9155C63.5065 17.0713 63.1286 17.1491 62.6646 17.1491ZM62.9927 15.8814C63.4203 15.8814 63.7815 15.7687 64.0765 15.5433C64.3748 15.3146 64.6002 14.9981 64.7527 14.5938C64.9084 14.1894 64.9863 13.7187 64.9863 13.1818C64.9863 12.6515 64.9101 12.1875 64.7576 11.7898C64.6052 11.392 64.3815 11.0821 64.0865 10.8601C63.7915 10.638 63.4269 10.527 62.9927 10.527C62.5453 10.527 62.1724 10.643 61.8741 10.875C61.5758 11.107 61.3504 11.4235 61.198 11.8246C61.0488 12.2256 60.9743 12.678 60.9743 13.1818C60.9743 13.6922 61.0505 14.1513 61.2029 14.5589C61.3554 14.9666 61.5808 15.2898 61.8791 15.5284C62.1807 15.7637 62.5519 15.8814 62.9927 15.8814ZM73.407 13.8331V9.36364H74.8984V17H73.4368V15.6776H73.3572C73.1816 16.0852 72.8999 16.425 72.5121 16.6967C72.1276 16.9652 71.6487 17.0994 71.0753 17.0994C70.5848 17.0994 70.1506 16.9917 69.7727 16.7763C69.3982 16.5575 69.1032 16.2344 68.8878 15.8068C68.6757 15.3793 68.5696 14.8506 68.5696 14.2209V9.36364H70.0561V14.0419C70.0561 14.5623 70.2003 14.9766 70.4886 15.2848C70.777 15.593 71.1515 15.7472 71.6122 15.7472C71.8906 15.7472 72.1674 15.6776 72.4425 15.5384C72.7209 15.3991 72.9512 15.1887 73.1335 14.907C73.3191 14.6252 73.4103 14.2673 73.407 13.8331ZM79.1181 17.169C78.6342 17.169 78.1967 17.0795 77.8056 16.9006C77.4145 16.7183 77.1046 16.4548 76.8759 16.1101C76.6505 15.7654 76.5378 15.3428 76.5378 14.8423C76.5378 14.4115 76.6207 14.0568 76.7864 13.7784C76.9521 13.5 77.1758 13.2796 77.4576 13.1172C77.7393 12.9548 78.0542 12.8321 78.4022 12.7493C78.7502 12.6664 79.1048 12.6035 79.4661 12.5604C79.9235 12.5073 80.2947 12.4643 80.5797 12.4311C80.8648 12.3946 81.0719 12.3366 81.2012 12.2571C81.3304 12.1776 81.3951 12.0483 81.3951 11.8693V11.8345C81.3951 11.4003 81.2724 11.0639 81.0272 10.8253C80.7852 10.5866 80.4239 10.4673 79.9434 10.4673C79.4429 10.4673 79.0485 10.5784 78.7601 10.8004C78.4751 11.0192 78.2779 11.2628 78.1685 11.5312L76.7715 11.2131C76.9372 10.7491 77.1792 10.3745 77.4973 10.0895C77.8188 9.80114 78.1884 9.59233 78.606 9.46307C79.0236 9.33049 79.4628 9.2642 79.9235 9.2642C80.2284 9.2642 80.5516 9.30066 80.8929 9.37358C81.2376 9.44318 81.5591 9.57244 81.8574 9.76136C82.159 9.95028 82.406 10.2204 82.5982 10.5717C82.7904 10.9197 82.8865 11.3722 82.8865 11.929V17H81.4348V15.956H81.3752C81.2791 16.1482 81.1349 16.3371 80.9426 16.5227C80.7504 16.7083 80.5035 16.8625 80.2019 16.9851C79.9003 17.1077 79.539 17.169 79.1181 17.169ZM79.4412 15.9759C79.8522 15.9759 80.2035 15.8946 80.4952 15.7322C80.7902 15.5698 81.0139 15.3577 81.1664 15.0959C81.3221 14.8307 81.4 14.5473 81.4 14.2457V13.2614C81.347 13.3144 81.2443 13.3641 81.0918 13.4105C80.9426 13.4536 80.772 13.4917 80.5797 13.5249C80.3875 13.5547 80.2002 13.5829 80.0179 13.6094C79.8356 13.6326 79.6832 13.6525 79.5605 13.669C79.2722 13.7055 79.0087 13.7668 78.7701 13.853C78.5347 13.9392 78.3458 14.0634 78.2033 14.2259C78.0641 14.3849 77.9945 14.5971 77.9945 14.8622C77.9945 15.2301 78.1304 15.5085 78.4022 15.6974C78.6739 15.883 79.0203 15.9759 79.4412 15.9759ZM86.353 6.81818V17H84.8665V6.81818H86.353ZM94.0751 11.228L92.7278 11.4666C92.6715 11.2943 92.582 11.1302 92.4593 10.9744C92.34 10.8187 92.1776 10.6911 91.9721 10.5916C91.7666 10.4922 91.5098 10.4425 91.2015 10.4425C90.7806 10.4425 90.4293 10.5369 90.1475 10.7259C89.8658 10.9115 89.725 11.1518 89.725 11.4467C89.725 11.7019 89.8194 11.9074 90.0083 12.0632C90.1973 12.219 90.5022 12.3466 90.9231 12.446L92.1362 12.7244C92.8388 12.8868 93.3625 13.1371 93.7072 13.4751C94.0519 13.8132 94.2243 14.2524 94.2243 14.7926C94.2243 15.25 94.0917 15.6577 93.8265 16.0156C93.5647 16.3703 93.1984 16.6487 92.7278 16.8509C92.2605 17.053 91.7186 17.1541 91.1021 17.1541C90.247 17.1541 89.5493 16.9718 89.0091 16.6072C88.4688 16.2393 88.1374 15.7173 88.0147 15.0412L89.4515 14.8224C89.541 15.197 89.725 15.4804 90.0034 15.6726C90.2818 15.8615 90.6447 15.956 91.0922 15.956C91.5794 15.956 91.9688 15.8549 92.2605 15.6527C92.5521 15.4472 92.698 15.197 92.698 14.902C92.698 14.6634 92.6085 14.4628 92.4295 14.3004C92.2538 14.138 91.9837 14.0154 91.6191 13.9325L90.3265 13.6491C89.6139 13.4867 89.0869 13.2282 88.7456 12.8736C88.4075 12.5189 88.2385 12.0698 88.2385 11.5263C88.2385 11.0755 88.3644 10.6811 88.6163 10.343C88.8682 10.005 89.2162 9.74148 89.6603 9.55256C90.1045 9.36032 90.6132 9.2642 91.1866 9.2642C92.0119 9.2642 92.6615 9.44318 93.1355 9.80114C93.6094 10.1558 93.9226 10.6314 94.0751 11.228Z" fill="#2563EB"/>
</svg>
