<svg width="53" height="22" viewBox="0 0 53 22" fill="none" xmlns="http://www.w3.org/2000/svg">
<g clip-path="url(#clip0_3130_31869)">
<path d="M4.77461 1.49707H1.08838V5.17442H4.77461V1.49707Z" fill="#0068B5"/>
<path d="M4.68331 20.6563V7.41264H1.19385V20.6563H4.68331ZM27.8764 20.7872V17.5417C27.3648 17.5417 26.9319 17.5155 26.6171 17.4632C26.2498 17.4108 25.9743 17.28 25.7906 17.0967C25.607 16.9135 25.4889 16.6518 25.4233 16.3115C25.3708 15.9844 25.3446 15.5525 25.3446 15.0291V10.3964H27.8764V7.41264H25.3446V2.24341H21.842V15.0552C21.842 16.1414 21.9338 17.0575 22.1175 17.7903C22.3012 18.5101 22.616 19.099 23.0489 19.5439C23.4818 19.9889 24.059 20.303 24.7543 20.4993C25.4627 20.6956 26.3547 20.7872 27.4173 20.7872H27.8764ZM47.9211 20.6563V1.22266H44.4186V20.6563H47.9211ZM18.4706 8.70821C17.4999 7.66128 16.1356 7.13782 14.404 7.13782C13.5644 7.13782 12.8035 7.30794 12.1083 7.6482C11.4261 7.98845 10.8358 8.45957 10.3766 9.06155L10.1799 9.3102V9.08773V7.41264H6.72976V20.6563H10.2061V13.6026V14.0868C10.2061 14.0083 10.2061 13.9298 10.2061 13.8513C10.2455 12.608 10.5472 11.692 11.1244 11.1031C11.7409 10.4749 12.4887 10.1608 13.3414 10.1608C14.3515 10.1608 15.1255 10.4749 15.6371 11.0769C16.1356 11.6789 16.3979 12.5295 16.3979 13.6157V13.6419V20.6432H19.9267V13.1315C19.9399 11.247 19.4414 9.75514 18.4706 8.70821ZM42.6082 14.0083C42.6082 13.053 42.4377 12.1631 42.1097 11.3255C41.7687 10.5011 41.2964 9.76823 40.7061 9.14007C40.1027 8.51191 39.3812 8.02771 38.5416 7.67437C37.702 7.32103 36.7706 7.1509 35.7605 7.1509C34.8029 7.1509 33.8977 7.33412 33.0581 7.68745C32.2186 8.05388 31.4839 8.53809 30.8674 9.15316C30.2508 9.76823 29.7523 10.5011 29.3981 11.3386C29.0308 12.1762 28.8603 13.0791 28.8603 14.0345C28.8603 14.9898 29.0308 15.8928 29.3719 16.7303C29.713 17.5679 30.1984 18.3007 30.8018 18.9158C31.4052 19.5309 32.153 20.0282 33.0188 20.3815C33.8846 20.7479 34.8422 20.9311 35.8654 20.9311C38.8302 20.9311 40.6667 19.5832 41.7687 18.3269L39.25 16.4162C38.7252 17.0444 37.4659 17.895 35.8917 17.895C34.9078 17.895 34.0945 17.6726 33.4779 17.2145C32.8614 16.7696 32.4416 16.1414 32.2186 15.3693L32.1792 15.2515H42.6082V14.0083ZM32.2055 12.7912C32.2055 11.8228 33.3205 10.1347 35.7212 10.1216C38.1218 10.1216 39.25 11.8097 39.25 12.7782L32.2055 12.7912Z" fill="black"/>
<path d="M51.9091 18.9288C51.8435 18.7717 51.7517 18.6408 51.6336 18.5231C51.5156 18.4053 51.3844 18.3137 51.227 18.2482C51.0695 18.1828 50.899 18.1436 50.7285 18.1436C50.5448 18.1436 50.3874 18.1828 50.23 18.2482C50.0725 18.3137 49.9414 18.4053 49.8233 18.5231C49.7052 18.6408 49.6134 18.7717 49.5478 18.9288C49.4822 19.0858 49.4429 19.2559 49.4429 19.426C49.4429 19.6093 49.4822 19.7663 49.5478 19.9233C49.6134 20.0804 49.7052 20.2112 49.8233 20.329C49.9414 20.4468 50.0725 20.5384 50.23 20.6038C50.3874 20.6693 50.5579 20.7085 50.7285 20.7085C50.9121 20.7085 51.0695 20.6693 51.227 20.6038C51.3844 20.5384 51.5156 20.4468 51.6336 20.329C51.7517 20.2112 51.8435 20.0804 51.9091 19.9233C51.9747 19.7663 52.0141 19.5962 52.0141 19.426C52.0141 19.2559 51.9747 19.0858 51.9091 18.9288ZM51.6992 19.8448C51.6467 19.9757 51.568 20.0935 51.4762 20.1851C51.3844 20.2767 51.2663 20.3552 51.1351 20.4075C51.0039 20.4599 50.8728 20.4861 50.7153 20.4861C50.571 20.4861 50.4267 20.4599 50.2956 20.4075C50.1644 20.3552 50.0463 20.2767 49.9545 20.1851C49.8627 20.0935 49.7839 19.9757 49.7315 19.8448C49.679 19.714 49.6528 19.5831 49.6528 19.426C49.6528 19.2821 49.679 19.1381 49.7315 19.0073C49.7839 18.8764 49.8627 18.7586 49.9545 18.667C50.0463 18.5754 50.1644 18.4969 50.2956 18.4445C50.4267 18.3922 50.5579 18.366 50.7153 18.366C50.8596 18.366 51.0039 18.3922 51.1351 18.4445C51.2663 18.4969 51.3844 18.5754 51.4762 18.667C51.568 18.7586 51.6467 18.8764 51.6992 19.0073C51.7517 19.1381 51.7779 19.269 51.7779 19.426C51.791 19.5831 51.7517 19.714 51.6992 19.8448ZM50.9646 19.5307C51.0695 19.5177 51.1482 19.4784 51.2138 19.413C51.2794 19.3475 51.3188 19.2559 51.3188 19.1251C51.3188 18.9811 51.2794 18.8764 51.1876 18.7979C51.1089 18.7194 50.9646 18.6801 50.7941 18.6801H50.2169V20.1589H50.4923V19.5569H50.6891L51.0564 20.1589H51.345L50.9646 19.5307ZM50.8203 19.3214C50.7809 19.3214 50.7416 19.3214 50.6891 19.3214H50.4923V18.9026H50.6891C50.7285 18.9026 50.7678 18.9026 50.8203 18.9026C50.8596 18.9026 50.899 18.9157 50.9384 18.9288C50.9777 18.9418 51.0039 18.968 51.0171 18.9942C51.0302 19.0204 51.0433 19.0596 51.0433 19.112C51.0433 19.1643 51.0302 19.2036 51.0171 19.2297C50.9908 19.2559 50.9646 19.2821 50.9384 19.2952C50.899 19.3083 50.8596 19.3214 50.8203 19.3214Z" fill="black"/>
</g>
<defs>
<clipPath id="clip0_3130_31869">
<rect width="51.8697" height="20.4021" fill="white" transform="translate(0.472168 0.816406)"/>
</clipPath>
</defs>
</svg>
