<svg width="81" height="18" viewBox="0 0 81 18" fill="none" xmlns="http://www.w3.org/2000/svg">
<g clip-path="url(#clip0_3189_36305)">
<path d="M2.83178 11.5926C2.83178 12.5208 3.03551 13.2335 3.3018 13.6646C3.65094 14.2293 4.17169 14.4686 4.70258 14.4686C5.38733 14.4686 6.01375 14.2987 7.22094 12.629C8.18804 11.2908 9.3276 9.41241 10.0944 8.23481L11.3928 6.23974C12.2949 4.85417 13.3389 3.31391 14.5359 2.26988C15.5132 1.41774 16.5674 0.944336 17.6283 0.944336C19.4095 0.944336 21.1061 1.97653 22.4046 3.91243C23.8257 6.03262 24.5155 8.70315 24.5155 11.4591C24.5155 13.0974 24.1926 14.3012 23.6431 15.2522C23.1122 16.172 22.0775 17.0909 20.3369 17.0909V14.4686C21.8272 14.4686 22.1992 13.0991 22.1992 11.5318C22.1992 9.29829 21.6785 6.81966 20.5313 5.04861C19.7172 3.79239 18.6622 3.02479 17.5015 3.02479C16.2461 3.02479 15.2359 3.97161 14.1006 5.65981C13.497 6.55675 12.8773 7.64981 12.1816 8.88321L11.4157 10.24C9.87709 12.968 9.48738 13.5894 8.71809 14.6148C7.36972 16.4104 6.21833 17.0909 4.70258 17.0909C2.90448 17.0909 1.76745 16.3123 1.06326 15.139C0.488408 14.1828 0.206055 12.9283 0.206055 11.4988L2.83178 11.5926Z" fill="#0081FB"/>
<path d="M2.27588 4.09757C3.47969 2.24198 5.21692 0.944336 7.20946 0.944336C8.36339 0.944336 9.51056 1.28587 10.7084 2.26396C12.0188 3.33335 13.4153 5.09426 15.1576 7.99642L15.7824 9.03791C17.2905 11.5504 18.1486 12.8429 18.6507 13.4524C19.2966 14.2352 19.7488 14.4686 20.3364 14.4686C21.8268 14.4686 22.1987 13.0991 22.1987 11.5318L24.515 11.4591C24.515 13.0974 24.1921 14.3012 23.6426 15.2522C23.1117 16.172 22.077 17.0909 20.3364 17.0909C19.2543 17.0909 18.2956 16.8559 17.2356 15.8558C16.4206 15.0882 15.4679 13.7246 14.7349 12.4989L12.5547 8.857C11.4608 7.02931 10.4574 5.66657 9.8766 5.04945C9.25187 4.38584 8.44877 3.58443 7.16719 3.58443C6.12992 3.58443 5.24905 4.31229 4.51188 5.42564L2.27588 4.09757Z" fill="url(#paint0_linear_3189_36305)"/>
<path d="M7.16768 3.58443C6.13041 3.58443 5.24953 4.31229 4.51237 5.42564C3.47003 6.99888 2.83178 9.34225 2.83178 11.5926C2.83178 12.5208 3.03551 13.2335 3.3018 13.6646L1.06326 15.139C0.488408 14.1828 0.206055 12.9283 0.206055 11.4988C0.206055 8.89927 0.919547 6.18986 2.27637 4.09757C3.48017 2.24198 5.21741 0.944336 7.20995 0.944336L7.16768 3.58443Z" fill="url(#paint1_linear_3189_36305)"/>
<path d="M29.6196 1.4541H32.657L37.8214 10.7971L42.9866 1.4541H45.9581V16.806H43.4803V5.04016L38.9508 13.1878H36.6261L32.0974 5.04016V16.806H29.6196V1.4541ZM53.722 7.1781C51.945 7.1781 50.8748 8.51548 50.6186 10.1716H56.6495C56.5252 8.4656 55.5412 7.1781 53.722 7.1781ZM48.162 11.115C48.162 7.63038 50.414 5.09427 53.7651 5.09427C57.0612 5.09427 59.0292 7.59825 59.0292 11.301V11.9815H50.6186C50.917 13.783 52.1124 14.9969 54.0398 14.9969C55.5776 14.9969 56.5388 14.5278 57.4501 13.6697L58.7663 15.2818C57.5261 16.4222 55.9487 17.0799 53.9519 17.0799C50.3244 17.0799 48.162 14.4348 48.162 11.115ZM62.0337 7.3979H59.7529V5.36901H62.0337V2.01374H64.4244V5.36901H67.8895V7.3979H64.4244V12.5403C64.4244 14.2961 64.9857 14.92 66.3653 14.92C66.9951 14.92 67.3561 14.8659 67.8895 14.7771V16.7841C67.2251 16.9717 66.5911 17.0579 65.9046 17.0579C63.3237 17.0579 62.0337 15.6479 62.0337 12.8252V7.3979ZM77.9562 9.371C77.476 8.15873 76.405 7.26602 74.8309 7.26602C72.7851 7.26602 71.4756 8.71752 71.4756 11.082C71.4756 13.3874 72.6811 14.909 74.7328 14.909C76.3458 14.909 77.4972 13.9707 77.9562 12.8032V9.371ZM80.3469 16.806H78.0002V15.2049C77.3442 16.1475 76.1505 17.0799 74.2171 17.0799C71.1079 17.0799 69.03 14.477 69.03 11.082C69.03 7.65489 71.1577 5.09427 74.349 5.09427C75.9265 5.09427 77.1641 5.72491 78.0002 6.83827V5.36901H80.3469V16.806Z" fill="#192830"/>
</g>
<defs>
<linearGradient id="paint0_linear_3189_36305" x1="5.36233" y1="10.8352" x2="22.1007" y2="11.6805" gradientUnits="userSpaceOnUse">
<stop stop-color="#0064E1"/>
<stop offset="0.4" stop-color="#0064E1"/>
<stop offset="0.83" stop-color="#0073EE"/>
<stop offset="1" stop-color="#0082FB"/>
</linearGradient>
<linearGradient id="paint1_linear_3189_36305" x1="4.01022" y1="12.695" x2="4.01022" y2="6.52378" gradientUnits="userSpaceOnUse">
<stop stop-color="#0082FB"/>
<stop offset="1" stop-color="#0064E0"/>
</linearGradient>
<clipPath id="clip0_3189_36305">
<rect width="80.1411" height="16.1466" fill="white" transform="translate(0.206055 0.944336)"/>
</clipPath>
</defs>
</svg>
