<svg width="32" height="32" viewBox="0 0 32 32" fill="none" xmlns="http://www.w3.org/2000/svg">
<rect width="32" height="32" rx="6" fill="url(#paint0_linear_3_41933)"/>
<path d="M25.3751 17.875C25.3751 18.0408 25.3093 18.1997 25.192 18.3169C25.0748 18.4342 24.9159 18.5 24.7501 18.5H23.5001V19.75C23.5001 19.9158 23.4343 20.0747 23.317 20.1919C23.1998 20.3092 23.0409 20.375 22.8751 20.375C22.7093 20.375 22.5504 20.3092 22.4332 20.1919C22.316 20.0747 22.2501 19.9158 22.2501 19.75V18.5H21.0001C20.8343 18.5 20.6754 18.4342 20.5582 18.3169C20.441 18.1997 20.3751 18.0408 20.3751 17.875C20.3751 17.7092 20.441 17.5503 20.5582 17.4331C20.6754 17.3158 20.8343 17.25 21.0001 17.25H22.2501V16C22.2501 15.8342 22.316 15.6753 22.4332 15.5581C22.5504 15.4408 22.7093 15.375 22.8751 15.375C23.0409 15.375 23.1998 15.4408 23.317 15.5581C23.4343 15.6753 23.5001 15.8342 23.5001 16V17.25H24.7501C24.9159 17.25 25.0748 17.3158 25.192 17.4331C25.3093 17.5503 25.3751 17.7092 25.3751 17.875ZM10.3751 11.625H11.6251V12.875C11.6251 13.0408 11.691 13.1997 11.8082 13.3169C11.9254 13.4342 12.0843 13.5 12.2501 13.5C12.4159 13.5 12.5748 13.4342 12.692 13.3169C12.8093 13.1997 12.8751 13.0408 12.8751 12.875V11.625H14.1251C14.2909 11.625 14.4498 11.5592 14.567 11.4419C14.6843 11.3247 14.7501 11.1658 14.7501 11C14.7501 10.8342 14.6843 10.6753 14.567 10.5581C14.4498 10.4408 14.2909 10.375 14.1251 10.375H12.8751V9.125C12.8751 8.95924 12.8093 8.80027 12.692 8.68306C12.5748 8.56585 12.4159 8.5 12.2501 8.5C12.0843 8.5 11.9254 8.56585 11.8082 8.68306C11.691 8.80027 11.6251 8.95924 11.6251 9.125V10.375H10.3751C10.2093 10.375 10.0504 10.4408 9.93316 10.5581C9.81595 10.6753 9.7501 10.8342 9.7501 11C9.7501 11.1658 9.81595 11.3247 9.93316 11.4419C10.0504 11.5592 10.2093 11.625 10.3751 11.625ZM20.3751 21H19.7501V20.375C19.7501 20.2092 19.6843 20.0503 19.567 19.9331C19.4498 19.8158 19.2909 19.75 19.1251 19.75C18.9593 19.75 18.8004 19.8158 18.6832 19.9331C18.566 20.0503 18.5001 20.2092 18.5001 20.375V21H17.8751C17.7093 21 17.5504 21.0658 17.4332 21.1831C17.316 21.3003 17.2501 21.4592 17.2501 21.625C17.2501 21.7908 17.316 21.9497 17.4332 22.0669C17.5504 22.1842 17.7093 22.25 17.8751 22.25H18.5001V22.875C18.5001 23.0408 18.566 23.1997 18.6832 23.3169C18.8004 23.4342 18.9593 23.5 19.1251 23.5C19.2909 23.5 19.4498 23.4342 19.567 23.3169C19.6843 23.1997 19.7501 23.0408 19.7501 22.875V22.25H20.3751C20.5409 22.25 20.6998 22.1842 20.817 22.0669C20.9343 21.9497 21.0001 21.7908 21.0001 21.625C21.0001 21.4592 20.9343 21.3003 20.817 21.1831C20.6998 21.0658 20.5409 21 20.3751 21ZM23.1337 12.25L12.2501 23.1336C12.0157 23.3678 11.6979 23.4994 11.3665 23.4994C11.0351 23.4994 10.7173 23.3678 10.4829 23.1336L8.86573 21.518C8.74963 21.4019 8.65753 21.2641 8.59469 21.1124C8.53185 20.9607 8.49951 20.7982 8.49951 20.634C8.49951 20.4698 8.53185 20.3072 8.59469 20.1556C8.65753 20.0039 8.74963 19.8661 8.86573 19.75L19.7501 8.86641C19.8662 8.7503 20.004 8.6582 20.1557 8.59537C20.3073 8.53253 20.4699 8.50019 20.6341 8.50019C20.7983 8.50019 20.9608 8.53253 21.1125 8.59537C21.2642 8.6582 21.402 8.7503 21.5181 8.86641L23.1337 10.482C23.2498 10.5981 23.3419 10.7359 23.4047 10.8876C23.4676 11.0393 23.4999 11.2018 23.4999 11.366C23.4999 11.5302 23.4676 11.6928 23.4047 11.8444C23.3419 11.9961 23.2498 12.1339 23.1337 12.25ZM22.2501 11.3664L20.6337 9.75L18.1337 12.25L19.7501 13.8664L22.2501 11.3664Z" fill="white"/>
<defs>
<linearGradient id="paint0_linear_3_41933" x1="0" y1="0" x2="32" y2="32" gradientUnits="userSpaceOnUse">
<stop stop-color="#8B5CF6"/>
<stop offset="0.185" stop-color="#A855F7"/>
<stop offset="0.455" stop-color="#9333EA"/>
<stop offset="0.715" stop-color="#792AC1"/>
<stop offset="1" stop-color="#531D84"/>
</linearGradient>
</defs>
</svg>
