<svg width="91" height="24" viewBox="0 0 91 24" fill="none" xmlns="http://www.w3.org/2000/svg">
<rect x="0.666504" width="90" height="24" rx="3" fill="#4ADE80" fill-opacity="0.12"/>
<g clip-path="url(#clip0_3_41925)">
<path d="M12.1665 7.02474V12.5001H17.6418C17.391 15.0267 15.2592 17.0001 12.6665 17.0001C9.90508 17.0001 7.6665 14.7615 7.6665 12.0001C7.6665 9.40737 9.63984 7.2756 12.1665 7.02474ZM13.1665 6.27148C15.9433 6.51067 18.1559 8.72331 18.3951 11.5001H13.1665V6.27148Z" fill="#059669"/>
</g>
<path d="M24.7851 17V6.81818H28.4144C29.2032 6.81818 29.8578 6.95407 30.3782 7.22585C30.9018 7.49763 31.2929 7.87382 31.5514 8.3544C31.81 8.83168 31.9392 9.38352 31.9392 10.0099C31.9392 10.633 31.8083 11.1816 31.5465 11.6555C31.288 12.1262 30.8969 12.4924 30.3732 12.7543C29.8528 13.0161 29.1982 13.147 28.4094 13.147H25.6601V11.8246H28.2702C28.7674 11.8246 29.1717 11.7533 29.4833 11.6108C29.7981 11.4683 30.0285 11.2611 30.1743 10.9893C30.3201 10.7176 30.3931 10.3911 30.3931 10.0099C30.3931 9.62547 30.3185 9.29238 30.1693 9.01065C30.0235 8.72893 29.7932 8.51349 29.4783 8.36435C29.1667 8.21188 28.7574 8.13565 28.2503 8.13565H26.3213V17H24.7851ZM29.8114 12.4062L32.327 17H30.577L28.1111 12.4062H29.8114ZM36.8847 17.1541C36.1324 17.1541 35.4844 16.9934 34.9408 16.6719C34.4006 16.3471 33.983 15.8913 33.688 15.3047C33.3963 14.7147 33.2505 14.0237 33.2505 13.2315C33.2505 12.4493 33.3963 11.7599 33.688 11.1634C33.983 10.5668 34.394 10.1011 34.9209 9.76633C35.4512 9.43158 36.071 9.2642 36.7803 9.2642C37.2112 9.2642 37.6288 9.33546 38.0332 9.47798C38.4375 9.6205 38.8004 9.84422 39.1219 10.1491C39.4434 10.4541 39.697 10.8501 39.8826 11.3374C40.0682 11.8213 40.161 12.4096 40.161 13.1023V13.6293H34.0907V12.5156H38.7043C38.7043 12.1245 38.6248 11.7782 38.4657 11.4766C38.3066 11.1716 38.0829 10.9313 37.7945 10.7557C37.5095 10.58 37.1747 10.4922 36.7903 10.4922C36.3726 10.4922 36.0081 10.5949 35.6965 10.8004C35.3883 11.0026 35.1496 11.2678 34.9806 11.5959C34.8149 11.9207 34.732 12.2737 34.732 12.6548V13.5249C34.732 14.0353 34.8215 14.4695 35.0005 14.8274C35.1828 15.1854 35.4363 15.4588 35.7611 15.6477C36.086 15.8333 36.4655 15.9261 36.8996 15.9261C37.1814 15.9261 37.4382 15.8864 37.6702 15.8068C37.9022 15.724 38.1028 15.6013 38.2718 15.4389C38.4408 15.2765 38.5701 15.076 38.6596 14.8374L40.0665 15.0909C39.9539 15.5052 39.7517 15.8681 39.46 16.1797C39.1717 16.4879 38.8087 16.7282 38.3712 16.9006C37.937 17.0696 37.4415 17.1541 36.8847 17.1541ZM47.5326 11.228L46.1853 11.4666C46.129 11.2943 46.0395 11.1302 45.9169 10.9744C45.7975 10.8187 45.6351 10.6911 45.4296 10.5916C45.2242 10.4922 44.9673 10.4425 44.659 10.4425C44.2381 10.4425 43.8868 10.5369 43.6051 10.7259C43.3233 10.9115 43.1825 11.1518 43.1825 11.4467C43.1825 11.7019 43.2769 11.9074 43.4659 12.0632C43.6548 12.219 43.9597 12.3466 44.3806 12.446L45.5937 12.7244C46.2964 12.8868 46.82 13.1371 47.1647 13.4751C47.5094 13.8132 47.6818 14.2524 47.6818 14.7926C47.6818 15.25 47.5492 15.6577 47.284 16.0156C47.0222 16.3703 46.656 16.6487 46.1853 16.8509C45.718 17.053 45.1761 17.1541 44.5596 17.1541C43.7045 17.1541 43.0068 16.9718 42.4666 16.6072C41.9263 16.2393 41.5949 15.7173 41.4723 15.0412L42.909 14.8224C42.9985 15.197 43.1825 15.4804 43.4609 15.6726C43.7393 15.8615 44.1022 15.956 44.5497 15.956C45.0369 15.956 45.4263 15.8549 45.718 15.6527C46.0097 15.4472 46.1555 15.197 46.1555 14.902C46.1555 14.6634 46.066 14.4628 45.887 14.3004C45.7114 14.138 45.4412 14.0154 45.0767 13.9325L43.784 13.6491C43.0715 13.4867 42.5445 13.2282 42.2031 12.8736C41.865 12.5189 41.696 12.0698 41.696 11.5263C41.696 11.0755 41.8219 10.6811 42.0738 10.343C42.3257 10.005 42.6737 9.74148 43.1179 9.55256C43.562 9.36032 44.0707 9.2642 44.6441 9.2642C45.4694 9.2642 46.119 9.44318 46.593 9.80114C47.067 10.1558 47.3802 10.6314 47.5326 11.228ZM52.6074 17.1541C51.855 17.1541 51.207 16.9934 50.6635 16.6719C50.1232 16.3471 49.7056 15.8913 49.4106 15.3047C49.119 14.7147 48.9731 14.0237 48.9731 13.2315C48.9731 12.4493 49.119 11.7599 49.4106 11.1634C49.7056 10.5668 50.1166 10.1011 50.6436 9.76633C51.1739 9.43158 51.7937 9.2642 52.503 9.2642C52.9338 9.2642 53.3515 9.33546 53.7558 9.47798C54.1602 9.6205 54.5231 9.84422 54.8446 10.1491C55.1661 10.4541 55.4196 10.8501 55.6052 11.3374C55.7909 11.8213 55.8837 12.4096 55.8837 13.1023V13.6293H49.8133V12.5156H54.427C54.427 12.1245 54.3474 11.7782 54.1883 11.4766C54.0293 11.1716 53.8055 10.9313 53.5172 10.7557C53.2321 10.58 52.8974 10.4922 52.5129 10.4922C52.0953 10.4922 51.7307 10.5949 51.4192 10.8004C51.1109 11.0026 50.8723 11.2678 50.7033 11.5959C50.5375 11.9207 50.4547 12.2737 50.4547 12.6548V13.5249C50.4547 14.0353 50.5442 14.4695 50.7231 14.8274C50.9054 15.1854 51.159 15.4588 51.4838 15.6477C51.8086 15.8333 52.1881 15.9261 52.6223 15.9261C52.904 15.9261 53.1609 15.8864 53.3929 15.8068C53.6249 15.724 53.8254 15.6013 53.9945 15.4389C54.1635 15.2765 54.2927 15.076 54.3822 14.8374L55.7892 15.0909C55.6765 15.5052 55.4743 15.8681 55.1827 16.1797C54.8943 16.4879 54.5314 16.7282 54.0939 16.9006C53.6597 17.0696 53.1642 17.1541 52.6074 17.1541ZM59.7553 17.169C59.2714 17.169 58.8339 17.0795 58.4428 16.9006C58.0517 16.7183 57.7418 16.4548 57.5131 16.1101C57.2877 15.7654 57.175 15.3428 57.175 14.8423C57.175 14.4115 57.2579 14.0568 57.4236 13.7784C57.5893 13.5 57.813 13.2796 58.0948 13.1172C58.3765 12.9548 58.6914 12.8321 59.0394 12.7493C59.3874 12.6664 59.742 12.6035 60.1033 12.5604C60.5607 12.5073 60.9319 12.4643 61.2169 12.4311C61.502 12.3946 61.7091 12.3366 61.8384 12.2571C61.9676 12.1776 62.0323 12.0483 62.0323 11.8693V11.8345C62.0323 11.4003 61.9096 11.0639 61.6644 10.8253C61.4224 10.5866 61.0612 10.4673 60.5806 10.4673C60.0801 10.4673 59.6857 10.5784 59.3973 10.8004C59.1123 11.0192 58.9151 11.2628 58.8057 11.5312L57.4087 11.2131C57.5744 10.7491 57.8164 10.3745 58.1345 10.0895C58.456 9.80114 58.8256 9.59233 59.2432 9.46307C59.6608 9.33049 60.1 9.2642 60.5607 9.2642C60.8656 9.2642 61.1888 9.30066 61.5301 9.37358C61.8748 9.44318 62.1963 9.57244 62.4946 9.76136C62.7962 9.95028 63.0432 10.2204 63.2354 10.5717C63.4276 10.9197 63.5237 11.3722 63.5237 11.929V17H62.072V15.956H62.0124C61.9163 16.1482 61.7721 16.3371 61.5799 16.5227C61.3876 16.7083 61.1407 16.8625 60.8391 16.9851C60.5375 17.1077 60.1762 17.169 59.7553 17.169ZM60.0784 15.9759C60.4894 15.9759 60.8407 15.8946 61.1324 15.7322C61.4274 15.5698 61.6511 15.3577 61.8036 15.0959C61.9594 14.8307 62.0372 14.5473 62.0372 14.2457V13.2614C61.9842 13.3144 61.8815 13.3641 61.729 13.4105C61.5799 13.4536 61.4092 13.4917 61.2169 13.5249C61.0247 13.5547 60.8374 13.5829 60.6551 13.6094C60.4728 13.6326 60.3204 13.6525 60.1978 13.669C59.9094 13.7055 59.6459 13.7668 59.4073 13.853C59.1719 13.9392 58.983 14.0634 58.8405 14.2259C58.7013 14.3849 58.6317 14.5971 58.6317 14.8622C58.6317 15.2301 58.7676 15.5085 59.0394 15.6974C59.3112 15.883 59.6575 15.9759 60.0784 15.9759ZM65.5037 17V9.36364H66.9405V10.5767H67.02C67.1592 10.1657 67.4045 9.84257 67.7558 9.60724C68.1105 9.36861 68.5115 9.24929 68.9589 9.24929C69.0517 9.24929 69.1611 9.2526 69.2871 9.25923C69.4163 9.26586 69.5174 9.27415 69.5903 9.28409V10.706C69.5307 10.6894 69.4246 10.6712 69.2722 10.6513C69.1197 10.6281 68.9672 10.6165 68.8148 10.6165C68.4634 10.6165 68.1502 10.6911 67.8751 10.8402C67.6034 10.986 67.3879 11.1899 67.2288 11.4517C67.0697 11.7102 66.9902 12.0052 66.9902 12.3366V17H65.5037ZM73.8199 17.1541C73.0808 17.1541 72.4444 16.9867 71.9108 16.652C71.3805 16.3139 70.9728 15.8482 70.6878 15.255C70.4028 14.6617 70.2603 13.9822 70.2603 13.2166C70.2603 12.4411 70.4061 11.7566 70.6978 11.1634C70.9894 10.5668 71.4004 10.1011 71.9307 9.76633C72.461 9.43158 73.0858 9.2642 73.805 9.2642C74.385 9.2642 74.9021 9.37192 75.3561 9.58736C75.8102 9.79948 76.1764 10.0978 76.4549 10.4822C76.7366 10.8667 76.904 11.3158 76.957 11.8295H75.5103C75.4307 11.4716 75.2484 11.1634 74.9634 10.9048C74.6817 10.6463 74.3038 10.517 73.8299 10.517C73.4156 10.517 73.0526 10.6264 72.7411 10.8452C72.4328 11.0606 72.1925 11.3688 72.0202 11.7699C71.8478 12.1676 71.7617 12.6383 71.7617 13.1818C71.7617 13.7386 71.8462 14.2192 72.0152 14.6236C72.1843 15.0279 72.4229 15.3411 72.7311 15.5632C73.0427 15.7853 73.4089 15.8963 73.8299 15.8963C74.1116 15.8963 74.3668 15.8449 74.5955 15.7422C74.8275 15.6361 75.0214 15.4853 75.1772 15.2898C75.3362 15.0942 75.4473 14.8589 75.5103 14.5838H76.957C76.904 15.0777 76.7432 15.5185 76.4747 15.9062C76.2063 16.294 75.8467 16.599 75.3959 16.821C74.9485 17.0431 74.4231 17.1541 73.8199 17.1541ZM80.0332 12.4659V17H78.5467V6.81818H80.0133V10.6065H80.1077C80.2867 10.1955 80.5601 9.86908 80.928 9.62713C81.2959 9.38518 81.7765 9.2642 82.3698 9.2642C82.8935 9.2642 83.3509 9.37192 83.742 9.58736C84.1364 9.80279 84.4413 10.1243 84.6567 10.5518C84.8755 10.9761 84.9849 11.5064 84.9849 12.1428V17H83.4984V12.3217C83.4984 11.7616 83.3542 11.3274 83.0658 11.0192C82.7775 10.7076 82.3764 10.5518 81.8627 10.5518C81.5114 10.5518 81.1965 10.6264 80.9181 10.7756C80.643 10.9247 80.4259 11.1435 80.2668 11.4318C80.111 11.7169 80.0332 12.0616 80.0332 12.4659Z" fill="#059669"/>
<defs>
<clipPath id="clip0_3_41925">
<rect width="12" height="12" fill="white" transform="translate(6.6665 6)"/>
</clipPath>
</defs>
</svg>
