<svg width="58" height="53" viewBox="0 0 58 53" fill="none" xmlns="http://www.w3.org/2000/svg">
<path d="M26.2051 13.373L19.3779 25.2535L24.4929 28.2017L31.32 16.3212L26.2051 13.373Z" fill="#0583FF"/>
<path d="M39.8595 13.373L33.0322 25.2535L38.1472 28.2017L44.9743 16.3212L39.8595 13.373Z" fill="#0583FF"/>
<path d="M45.3685 14.8471C45.3685 15.4317 45.1954 16.0031 44.8712 16.4891C44.5469 16.9752 44.086 17.354 43.5468 17.5777C43.0075 17.8014 42.4142 17.8599 41.8417 17.7459C41.2692 17.6319 40.7434 17.3504 40.3306 16.9371C39.9179 16.5237 39.6369 15.997 39.523 15.4237C39.4091 14.8504 39.4676 14.2562 39.691 13.7161C39.9143 13.176 40.2926 12.7145 40.7779 12.3897C41.2632 12.0649 41.8337 11.8916 42.4174 11.8916C42.805 11.8916 43.1887 11.968 43.5468 12.1165C43.9048 12.2651 44.2301 12.4828 44.5041 12.7572C44.7782 13.0317 44.9956 13.3575 45.1439 13.7161C45.2922 14.0747 45.3685 14.459 45.3685 14.8471Z" fill="#00EBA7"/>
<path d="M21.938 29.683C21.4188 29.6836 20.9086 29.5469 20.4591 29.2867C20.0095 29.0266 19.6366 28.6522 19.3778 28.2014L12.5506 16.3209C12.1602 15.6416 12.0553 14.8348 12.2588 14.078C12.4625 13.3213 12.9579 12.6764 13.6361 12.2855C14.3144 11.8946 15.12 11.7894 15.8756 11.9934C16.6313 12.1972 17.2751 12.6935 17.6654 13.3727L24.4927 25.2533C24.7506 25.7025 24.8862 26.2116 24.8857 26.7297C24.8852 27.2479 24.7488 27.7568 24.49 28.2055C24.2312 28.6542 23.8592 29.0269 23.4114 29.2862C22.9635 29.5455 22.4553 29.6823 21.938 29.683Z" fill="#00EBA7"/>
<path d="M35.5922 29.683C35.073 29.6836 34.5629 29.5469 34.1133 29.2867C33.6638 29.0265 33.2908 28.6522 33.0321 28.2014L26.2048 16.3209C25.8145 15.6416 25.7095 14.8348 25.9132 14.078C26.1167 13.3212 26.6121 12.6764 27.2904 12.2855C27.6262 12.0919 27.9969 11.9665 28.3812 11.9164C28.7654 11.8662 29.1557 11.8924 29.5299 11.9934C30.2855 12.1972 30.9293 12.6934 31.3198 13.3727L38.1469 25.2533C38.4049 25.7024 38.5404 26.2116 38.5399 26.7297C38.5394 27.2478 38.403 27.7568 38.1442 28.2055C37.8855 28.6542 37.5135 29.0268 37.0656 29.2861C36.6176 29.5455 36.1096 29.6824 35.5922 29.683Z" fill="#00EBA7"/>
<path d="M17.7772 35.5938L16.8555 38.5772L15.9273 35.5938H15.1163L14.1946 38.5772L13.2665 35.5938H12.1567L13.7598 40.1435H14.6229L15.5249 37.2837L16.4271 40.1435H17.2839L18.8867 35.5938H17.7772Z" fill="#9EA4A9"/>
<path d="M23.7484 40.1435L23.5732 39.591H21.957L21.7819 40.1435H20.6592L22.2817 35.5938H23.2488L24.8906 40.1435H23.7484ZM22.7683 36.8936L22.2102 38.7654H23.3134L22.7683 36.8936Z" fill="#9EA4A9"/>
<path d="M30.9573 35.5928H29.7305L28.7635 37.3803L28.7627 37.3818L28.7621 37.3807L27.7951 35.5933H26.5684L28.2305 38.5264V40.1437H29.2949V38.5264L30.9573 35.5928Z" fill="#9EA4A9"/>
<path d="M38.1076 40.1435H37.0821V37.3226L36.1022 40.1435H35.3233L34.311 37.3226V40.1435H33.2856V35.5938H34.4989L35.7127 38.7591L36.9134 35.5938H38.1076V40.1435Z" fill="#9EA4A9"/>
<path d="M40.6331 37.869C40.6299 37.3922 40.768 36.9251 41.0302 36.527C41.2923 36.1288 41.6665 35.8176 42.1054 35.6327C42.5443 35.4478 43.0282 35.3976 43.4957 35.4884C43.9631 35.5792 44.3931 35.807 44.7312 36.1428C45.0693 36.4787 45.3002 36.9074 45.3947 37.3749C45.4891 37.8423 45.4429 38.3272 45.2618 38.7683C45.0808 39.2094 44.7731 39.5867 44.3777 39.8524C43.9823 40.1182 43.517 40.2603 43.0409 40.261C42.7234 40.2717 42.4071 40.2174 42.1115 40.1013C41.8157 39.9852 41.5469 39.8097 41.3214 39.5856C41.0959 39.3617 40.9184 39.0938 40.8001 38.7986C40.6818 38.5034 40.6249 38.1871 40.6331 37.869ZM44.3714 37.869C44.3714 37.1216 43.8653 36.4262 43.0409 36.4262C42.2101 36.4262 41.7104 37.1216 41.7104 37.869C41.7104 38.6165 42.2101 39.312 43.0409 39.312C43.8653 39.312 44.3714 38.6165 44.3714 37.869Z" fill="#9EA4A9"/>
</svg>
