<svg
        xmlns="http://www.w3.org/2000/svg"
        viewBox="0 0 50 50"
        width="500px"
        height="500px"
>
    <defs>
        <style type="text/css">
            path, polyline,
            rect,
            text {
            fill: black;
            stroke: black;
            }
            @media (prefers-color-scheme: dark) {
            path, polyline,
            rect,
            text {
            fill: white;
            stroke: white;
            }
            }
        </style>
    </defs>
    <path
            style="
      fill: none;
      stroke-width: 2;
      stroke-linecap: round;
      stroke-linejoin: round;
      stroke-miterlimit: 10;
    "
            d="M9,45h32c2.209,0,4-1.791,4-4V9c0-2.209-1.791-4-4-4H9C6.791,5,5,6.791,5,9v32C5,43.209,6.791,45,9,45z"
    />
    <path
            d="M42,17.564c0,0.174-0.179,0.349-0.358,0.349h-2.058l-9.216,18.913C30.279,36.913,30.189,37,30.011,37l0,0c-0.179,0-0.268-0.087-0.358-0.174l-4.384-8.539l-4.742,8.539C20.437,36.913,20.347,37,20.168,37s-0.268-0.087-0.358-0.174L10.505,18H8.358C8.179,18,8,17.826,8,17.651v-1.303C8,16.174,8.179,16,8.358,16h7.284C15.821,16,16,16.174,16,16.349v1.303C16,17.826,15.821,18,15.642,18h-1.379l6.442,14.12l3.4-6.1L19.811,18h-1.436c-0.179,0-0.358-0.174-0.358-0.349v-1.303c0-0.174,0.179-0.349,0.358-0.349h6.267C24.821,16,25,16.174,25,16.349v1.303C25,17.826,24.821,18,24.642,18h-1.253l2.416,4.884L28.758,18h-1.4C27.179,18,27,17.826,27,17.651v-1.303C27,16.174,27.179,16,27.358,16h5.284C32.821,16,33,16.174,33,16.349v1.303C33,17.826,32.821,18,32.642,18h-1.379l-4.295,7.149l3.489,6.971L37.168,18h-1.811C35.179,18,35,17.826,35,17.651v-1.303C35,16.174,35.179,16,35.358,16h6.284C41.821,16,42,16.174,42,16.349V17.564z"
    />
</svg>
