<svg width="335" height="74" viewBox="0 0 335 74" fill="none" xmlns="http://www.w3.org/2000/svg">
<rect x="-0.00390625" width="73.5994" height="73.5994" rx="12.2666" fill="url(#paint0_linear_3799_43032)"/>
<path d="M58.7588 61.0385L50.7768 36.8267H36.4093L34.5469 42.6801H46.2537L51.9458 61.0385L58.7588 61.0385Z" fill="white"/>
<path d="M20.4799 57.1624L36.4024 12.6348L28.1544 17.1579L17.168 47.7785L20.4799 57.1624Z" fill="white"/>
<path d="M48.9131 30.9729H42.5275L40.2302 24.0433L41.5182 21.3945H45.7203L48.9131 30.9729Z" fill="white"/>
<path d="M105.728 55.7998L119.859 15.5041H130.844L145.417 55.7998H138.572L125.821 19.9201L128.526 21.1897H121.846L124.717 19.9201L112.352 55.7998H105.728ZM114.891 44.4287L116.989 38.6879H133.88L136.033 44.4287H114.891ZM157.839 55.7998V20.2513H164.463V55.7998H157.839ZM145.916 21.3553V15.5041H176.442V21.3553H145.916ZM184.256 55.7998V15.2281H190.88V55.7998H184.256ZM208.985 55.7998L196.179 38.0807H203.686L216.879 55.7998H208.985ZM188.727 41.7791V36.204H199.215C200.797 36.204 202.159 35.8912 203.3 35.2656C204.441 34.6032 205.305 33.7016 205.894 32.5608C206.52 31.42 206.833 30.0952 206.833 28.5864C206.833 27.1144 206.52 25.808 205.894 24.6673C205.305 23.5265 204.441 22.6249 203.3 21.9625C202.159 21.3001 200.797 20.9689 199.215 20.9689H188.727V15.2281H198.332C201.423 15.2281 204.109 15.7065 206.391 16.6633C208.673 17.5833 210.439 18.9817 211.69 20.8585C212.941 22.7353 213.567 25.1456 213.567 28.0896V28.9728C213.567 31.9168 212.923 34.3272 211.635 36.204C210.384 38.0807 208.617 39.4791 206.336 40.3991C204.091 41.3191 201.423 41.7791 198.332 41.7791H188.727ZM224.66 55.7998V15.5041H231.284V55.7998H224.66ZM259.618 56.7934C255.902 56.7934 252.774 56.0942 250.234 54.6958C247.732 53.2606 245.819 51.255 244.494 48.6791C243.206 46.1031 242.562 43.1039 242.562 39.6815V15.5041H249.186V40.2335C249.186 42.2943 249.59 44.1159 250.4 45.6983C251.21 47.2807 252.387 48.5135 253.933 49.3967C255.478 50.243 257.374 50.6662 259.618 50.6662C261.863 50.6662 263.74 50.243 265.249 49.3967C266.794 48.5503 267.972 47.3359 268.782 45.7535C269.591 44.1711 269.996 42.3311 269.996 40.2335V15.5041H276.62V39.6815C276.62 43.1039 275.976 46.1031 274.688 48.6791C273.4 51.255 271.486 53.2606 268.947 54.6958C266.445 56.0942 263.335 56.7934 259.618 56.7934ZM287.779 55.7998V15.5041H296.721L307.761 40.9511H308.699L319.629 15.5041H328.682V55.7998H322.113V21.4105L322.775 21.5209L311.625 47.5199H304.339L293.078 21.5209L293.851 21.4105V55.7998H287.779Z" fill="url(#paint1_linear_3799_43032)"/>
<defs>
<linearGradient id="paint0_linear_3799_43032" x1="-0.00390625" y1="0" x2="73.5955" y2="73.5994" gradientUnits="userSpaceOnUse">
<stop stop-color="#8B5CF6"/>
<stop offset="0.185" stop-color="#A855F7"/>
<stop offset="0.455" stop-color="#9333EA"/>
<stop offset="0.715" stop-color="#792AC1"/>
<stop offset="1" stop-color="#531D84"/>
</linearGradient>
<linearGradient id="paint1_linear_3799_43032" x1="104.262" y1="1.7998" x2="143.258" y2="129.931" gradientUnits="userSpaceOnUse">
<stop stop-color="#8B5CF6"/>
<stop offset="0.185" stop-color="#A855F7"/>
<stop offset="0.455" stop-color="#9333EA"/>
<stop offset="0.715" stop-color="#792AC1"/>
<stop offset="1" stop-color="#531D84"/>
</linearGradient>
</defs>
</svg>
