<svg width="231" height="70" viewBox="0 0 231 70" fill="none" xmlns="http://www.w3.org/2000/svg">
<path d="M2.2652 54L16.3963 13.7043H27.381L41.9537 54H35.1089L22.3578 18.1203L25.0626 19.3899H18.3835L21.2538 18.1203L8.88914 54H2.2652ZM11.4283 42.6289L13.5259 36.8881H30.417L32.5698 42.6289H11.4283ZM54.3766 54V18.4515H61.0005V54H54.3766ZM42.4535 19.5555V13.7043H72.9789V19.5555H42.4535ZM80.793 54V13.4283H87.417V54H80.793ZM105.522 54L92.7161 36.2809H100.223L113.416 54H105.522ZM85.2642 39.9793V34.4042H95.7521C97.3345 34.4042 98.6961 34.0914 99.8369 33.4658C100.978 32.8034 101.842 31.9018 102.431 30.761C103.057 29.6202 103.37 28.2954 103.37 26.7866C103.37 25.3146 103.057 24.0082 102.431 22.8674C101.842 21.7267 100.978 20.8251 99.8369 20.1627C98.6961 19.5003 97.3345 19.1691 95.7521 19.1691H85.2642V13.4283H94.8689C97.9601 13.4283 100.646 13.9067 102.928 14.8635C105.21 15.7835 106.976 17.1819 108.227 19.0587C109.478 20.9355 110.104 23.3458 110.104 26.2898V27.173C110.104 30.117 109.46 32.5274 108.172 34.4042C106.921 36.2809 105.154 37.6793 102.873 38.5993C100.628 39.5193 97.9601 39.9793 94.8689 39.9793H85.2642ZM121.197 54V13.7043H127.821V54H121.197ZM156.156 54.9936C152.439 54.9936 149.311 54.2944 146.772 52.896C144.269 51.4608 142.356 49.4552 141.031 46.8793C139.743 44.3033 139.099 41.3041 139.099 37.8817V13.7043H145.723V38.4337C145.723 40.4945 146.128 42.3161 146.937 43.8985C147.747 45.4809 148.924 46.7137 150.47 47.5969C152.016 48.4432 153.911 48.8664 156.156 48.8664C158.4 48.8664 160.277 48.4432 161.786 47.5969C163.331 46.7505 164.509 45.5361 165.319 43.9537C166.128 42.3713 166.533 40.5313 166.533 38.4337V13.7043H173.157V37.8817C173.157 41.3041 172.513 44.3033 171.225 46.8793C169.937 49.4552 168.023 51.4608 165.484 52.896C162.982 54.2944 159.872 54.9936 156.156 54.9936ZM184.316 54V13.7043H193.258L204.298 39.1513H205.237L216.166 13.7043H225.219V54H218.65V19.6107L219.312 19.7211L208.162 45.7201H200.876L189.615 19.7211L190.388 19.6107V54H184.316Z" fill="url(#paint0_linear_3799_43029)"/>
<defs>
<linearGradient id="paint0_linear_3799_43029" x1="0.798828" y1="0" x2="39.7954" y2="128.131" gradientUnits="userSpaceOnUse">
<stop stop-color="#8B5CF6"/>
<stop offset="0.185" stop-color="#A855F7"/>
<stop offset="0.455" stop-color="#9333EA"/>
<stop offset="0.715" stop-color="#792AC1"/>
<stop offset="1" stop-color="#531D84"/>
</linearGradient>
</defs>
</svg>
