<svg width="32" height="32" viewBox="0 0 32 32" xmlns="http://www.w3.org/2000/svg">
<style type="text/css" id="style1">
    path {
        fill: black;
    }
    @media (prefers-color-scheme: dark) {
        path { fill: white; }
    }
</style>
<path d="M25.3708 2.56H6.62829C4.38128 2.56 2.55957 4.38172 2.55957 6.62878V25.3712C2.55957 27.6183 4.38128 29.44 6.62829 29.44H17.194C17.5928 29.44 17.9158 29.1168 17.9158 28.7182V28.0619C17.9158 27.6633 17.5924 27.3401 17.194 27.3401H6.62829C5.54099 27.3401 4.65961 26.4586 4.65961 25.3712V6.62878C4.65961 5.54136 5.54099 4.65993 6.62829 4.65993H25.3708C26.4582 4.65993 27.3395 5.54136 27.3395 6.62878V25.3712C27.3395 26.4586 26.4582 27.3401 25.3708 27.3401H24.2315L16.587 19.2551H18.0641C21.1309 19.2551 23.6892 16.7463 23.6905 13.6798C23.6918 10.6026 21.189 8.09873 18.1122 8.09873H10.5418C9.99599 8.09873 9.46057 8.29669 9.03484 8.65648C8.57269 9.04704 8.3078 9.5718 8.3078 10.0966V24.072C8.3078 24.4853 8.64293 24.8202 9.05608 24.8202H9.92228C10.3354 24.8202 10.6706 24.4853 10.6706 24.072V10.4613H18.0771C19.8515 10.4613 21.3177 11.8835 21.3281 13.658C21.3381 15.4396 19.8918 16.8926 18.1126 16.8926H14.4475C13.9004 16.8926 13.3906 17.1922 13.1452 17.6813C12.8747 18.2212 12.9718 18.8672 13.3815 19.3033L22.6261 29.0909C22.8368 29.3138 23.1295 29.44 23.436 29.44H25.3708C27.6179 29.44 29.4396 27.6183 29.4396 25.3712V6.62878C29.4396 4.38172 27.6179 2.56 25.3708 2.56Z"/>
</svg>
