<?xml version="1.0" encoding="UTF-8" standalone="no"?>
<svg
   viewBox="0 0 24 24"
   width="1024px"
   height="1024px"
   fillRule="evenodd"
   clip-rule="evenodd"
   version="1.1"
   id="svg1"
   sodipodi:docname="icons8-robot.svg"
   inkscape:version="1.3 (0e150ed, 2023-07-21)"
   xmlns:inkscape="http://www.inkscape.org/namespaces/inkscape"
   xmlns:sodipodi="http://sodipodi.sourceforge.net/DTD/sodipodi-0.dtd"
   xmlns="http://www.w3.org/2000/svg"
   xmlns:svg="http://www.w3.org/2000/svg">
  <defs
     id="defs1">
    <linearGradient
       id="linearGradient5"
       inkscape:swatch="gradient">
      <stop
         style="stop-color:#000000;stop-opacity:1;"
         offset="0"
         id="stop6" />
      <stop
         style="stop-color:#000000;stop-opacity:0;"
         offset="1"
         id="stop7" />
    </linearGradient>
  </defs>
  <sodipodi:namedview
     id="namedview1"
     pagecolor="#ffffff"
     bordercolor="#000000"
     borderopacity="0.25"
     inkscape:showpageshadow="2"
     inkscape:pageopacity="0.0"
     inkscape:pagecheckerboard="0"
     inkscape:deskcolor="#d1d1d1"
     inkscape:zoom="0.52843629"
     inkscape:cx="489.17912"
     inkscape:cy="467.4168"
     inkscape:window-width="1512"
     inkscape:window-height="945"
     inkscape:window-x="4880"
     inkscape:window-y="880"
     inkscape:window-maximized="0"
     inkscape:current-layer="svg1" />
  <path
     d="M 9 1.25 C 8.005 1.25 7.0516563 1.6446562 6.3476562 2.3476562 C 5.6446562 3.0516562 5.25 4.005 5.25 5 L 5.25 6.5 C 5.25 7.495 5.6446563 8.4483437 6.3476562 9.1523438 C 7.0516562 9.8553437 8.005 10.25 9 10.25 L 15 10.25 C 15.995 10.25 16.948344 9.8553438 17.652344 9.1523438 C 18.355344 8.4483437 18.75 7.495 18.75 6.5 L 18.75 5 C 18.75 4.005 18.355344 3.0516562 17.652344 2.3476562 C 16.948344 1.6446563 15.995 1.25 15 1.25 L 9 1.25 z M 4.6933594 2.9960938 L 4.15625 3.1035156 C 3.33825 3.2665156 2.75 3.9863125 2.75 4.8203125 L 2.75 6.6640625 C 2.75 7.4980625 3.33825 8.2178594 4.15625 8.3808594 L 4.6855469 8.4863281 C 4.4015469 7.8693281 4.25 7.192 4.25 6.5 L 4.25 5 C 4.25 4.301 4.4043594 3.6170938 4.6933594 2.9960938 z M 19.306641 2.9960938 C 19.595641 3.6170937 19.75 4.301 19.75 5 L 19.75 6.5 C 19.75 7.192 19.598453 7.8693281 19.314453 8.4863281 L 19.84375 8.3808594 C 20.66175 8.2178594 21.25 7.4980625 21.25 6.6640625 L 21.25 4.8203125 C 21.25 3.9863125 20.66175 3.2665156 19.84375 3.1035156 L 19.306641 2.9960938 z M 9.5 4.2421875 C 10.328 4.2421875 11 4.9141875 11 5.7421875 C 11 6.5701875 10.328 7.2421875 9.5 7.2421875 C 8.672 7.2421875 8 6.5701875 8 5.7421875 C 8 4.9141875 8.672 4.2421875 9.5 4.2421875 z M 14.5 4.2421875 C 15.328 4.2421875 16 4.9141875 16 5.7421875 C 16 6.5701875 15.328 7.2421875 14.5 7.2421875 C 13.672 7.2421875 13 6.5701875 13 5.7421875 C 13 4.9141875 13.672 4.2421875 14.5 4.2421875 z M 9.5 10.779297 C 9.086 10.779297 8.75 11.115297 8.75 11.529297 L 8.75 15 C 8.75 15.729 9.0396875 16.429313 9.5546875 16.945312 C 10.070688 17.460313 10.771 17.75 11.5 17.75 L 12.5 17.75 C 13.229 17.75 13.929312 17.460313 14.445312 16.945312 C 14.960313 16.429313 15.25 15.729 15.25 15 L 15.25 11.529297 C 15.25 11.115297 14.914 10.779297 14.5 10.779297 L 9.5 10.779297 z M 16.115234 10.853516 C 16.202234 11.061516 16.25 11.290297 16.25 11.529297 L 16.25 15 C 16.25 15.995 15.855344 16.948344 15.152344 17.652344 C 14.448344 18.355344 13.495 18.75 12.5 18.75 L 11.5 18.75 C 10.505 18.75 9.5516563 18.355344 8.8476562 17.652344 C 8.1446563 16.948344 7.75 15.995 7.75 15 L 7.75 11.529297 C 7.75 11.293297 7.7978125 11.067328 7.8828125 10.861328 C 7.6128125 10.944328 7.3631562 11.092875 7.1601562 11.296875 L 7.1503906 11.306641 C 5.9743906 12.521641 5.25 14.176 5.25 16 C 5.25 19.725 8.275 22.75 12 22.75 C 15.725 22.75 18.75 19.725 18.75 16 C 18.75 14.178 18.025469 12.522734 16.855469 11.302734 C 16.852469 11.298734 16.849703 11.295969 16.845703 11.292969 C 16.640703 11.086969 16.388234 10.936516 16.115234 10.853516 z"
     id="path1"
     style="fill:#000000;fillOpacity:1" />
</svg>
