<?xml version="1.0" encoding="UTF-8" standalone="no"?>
<!-- Created with Inkscape (http://www.inkscape.org/) -->

<svg
   version="1.1"
   id="svg2"
   width="2800.5779"
   height="2728.811"
   viewBox="0 0 2800.5779 2728.811"
   sodipodi:docname="reframe-on-black-bg.svg"
   inkscape:version="1.3 (0e150ed, 2023-07-21)"
   xmlns:inkscape="http://www.inkscape.org/namespaces/inkscape"
   xmlns:sodipodi="http://sodipodi.sourceforge.net/DTD/sodipodi-0.dtd"
   xmlns="http://www.w3.org/2000/svg"
   xmlns:svg="http://www.w3.org/2000/svg">
  <defs
     id="defs6" />
  <sodipodi:namedview
     id="namedview4"
     pagecolor="#ffffff"
     bordercolor="#000000"
     borderopacity="0.25"
     inkscape:showpageshadow="2"
     inkscape:pageopacity="0.0"
     inkscape:pagecheckerboard="0"
     inkscape:deskcolor="#d1d1d1"
     inkscape:zoom="0.10317784"
     inkscape:cx="2049.8588"
     inkscape:cy="1264.8065"
     inkscape:window-width="1312"
     inkscape:window-height="1028"
     inkscape:window-x="0"
     inkscape:window-y="0"
     inkscape:window-maximized="0"
     inkscape:current-layer="g10" />
  <g
     id="g8"
     inkscape:groupmode="layer"
     inkscape:label="ink_ext_XXXXXX"
     transform="matrix(1.3333333,0,0,-1.3333333,-268.07677,2569.4099)">
    <g
       id="g10"
       transform="scale(0.1)">
      <path
         d="M 23014.91,-1195.5087 H 2010.5758 V 19270.575 H 23014.91 V -1195.5087"
         style="fill:#000000;fillOpacity:1;fillRule:nonzero;stroke:none;stroke-width:0.977385"
         id="path12" />
      <path
         d="m 15061.641,11429.269 c 0,-1070.897 -457.093,-2040.4847 -1196.5,-2742.8985 -9.83,-9.3478 -20.448,-19.404 -30.867,-28.7332 l -924.21,833.1278 c 22.019,19.4045 43.251,38.7889 64.286,58.9015 495.823,470.4274 802.32,1119.6864 802.32,1837.2494 0,1434.194 -1225.99,2597.111 -2737.441,2597.111 H 5699.2507 v 1323.554 h 5275.6903 c 736.459,0 1427.307,-185.267 2024.575,-508.413 1232.085,-667.935 2062.125,-1926.937 2062.125,-3369.899"
         style="fill:#ffffff;fillOpacity:1;fillRule:nonzero;stroke:none;stroke-width:1.91521"
         id="path14" />
      <path
         d="m 18493.077,2152.0641 h -850.487 c -667.453,0 -1307.382,251.5017 -1779.22,699.2793 l -4952.717,4699.519 -1285.1663,1219.5215 v 18.6771 h -19.66 l 19.66,-18.6771 V 4588.9069 H 8340.5164 V 11786.931 L 18493.077,2152.0641"
         style="fill:#ffffff;fillOpacity:1;fillRule:nonzero;stroke:none;stroke-width:1.91521"
         id="path16" />
      <path
         d="M 15445.402,2060.8294 H 5699.2507 V 13219.819 h 498.7318 V 2570.7361 h 8732.7225 l 514.697,-509.9067"
         style="fill:#ffffff;fillOpacity:1;fillRule:nonzero;stroke:none;stroke-width:1.91521"
         id="path18" />
      <path
         d="M 19590.491,15272.506 V 2152.0641 h -33.422 l -466.135,417.1794 V 14799.168 h -4860.907 l -695.566,473.338 h 6056.03"
         style="fill:#ffffff;fillOpacity:1;fillRule:nonzero;stroke:none;stroke-width:1.91521"
         id="path20" />
    </g>
  </g>
</svg>
