<svg width="32" height="32" viewBox="0 0 32 32" fill="none" xmlns="http://www.w3.org/2000/svg">
<rect width="32" height="32" rx="4" fill="#0A0A0A"/>
<path d="M22.9727 6H9.02732C7.35544 6 6 7.35545 6 9.02737V22.9726C6 24.6446 7.35544 26 9.02732 26H16.8887C17.1854 26 17.4258 25.7595 17.4258 25.4629V24.9746C17.4258 24.6781 17.1851 24.4376 16.8887 24.4376H9.02732C8.21832 24.4376 7.56253 23.7817 7.56253 22.9726V9.02737C7.56253 8.21828 8.21832 7.56245 9.02732 7.56245H22.9727C23.7817 7.56245 24.4375 8.21828 24.4375 9.02737V22.9726C24.4375 23.7817 23.7817 24.4376 22.9727 24.4376H22.125L16.4371 18.422H17.5361C19.8179 18.422 21.7214 16.5553 21.7224 14.2737C21.7234 11.9841 19.8612 10.1211 17.5719 10.1211H11.9392C11.533 10.1211 11.1347 10.2684 10.8179 10.5361C10.474 10.8267 10.277 11.2171 10.277 11.6076V22.006C10.277 22.3135 10.5263 22.5626 10.8337 22.5626H11.4782C11.7856 22.5626 12.035 22.3135 12.035 22.006V11.8789H17.5458C18.866 11.8789 19.957 12.9371 19.9647 14.2574C19.9721 15.583 18.896 16.6641 17.5722 16.6641H14.8452C14.4381 16.6641 14.0588 16.887 13.8762 17.251C13.6749 17.6527 13.7472 18.1334 14.052 18.4578L20.9305 25.7403C21.0873 25.9061 21.305 26 21.533 26H22.9727C24.6446 26 26 24.6446 26 22.9726V9.02737C26 7.35545 24.6446 6 22.9727 6Z" fill="white"/>
</svg>
