<svg class="dynamic-logo" width="400" height="100" viewBox="0 0 400 100" xmlns="http://www.w3.org/2000/svg">
<style type="text/css" id="style1">
    path, polyline, rect, text, line {
        fill: black;
    }
    @media (prefers-color-scheme: dark) {
        path, polyline, rect, text, line { fill: white; }
    }
</style>
<path d="M86.2852 8H27.7147C20.6928 8 15 13.6929 15 20.7149V79.2851C15 86.3071 20.6928 92 27.7147 92H60.7325C61.9789 92 62.9882 90.9899 62.9882 89.7443V87.6934C62.9882 86.4478 61.9775 85.4377 60.7325 85.4377H27.7147C24.3169 85.4377 21.5626 82.6832 21.5626 79.2851V20.7149C21.5626 17.3168 24.3169 14.5623 27.7147 14.5623H86.2852C89.6831 14.5623 92.4374 17.3168 92.4374 20.7149V79.2851C92.4374 82.6832 89.6831 85.4377 86.2852 85.4377H82.7248L58.8357 60.1722H63.4515C73.0353 60.1722 81.03 52.3323 81.0341 42.7494C81.0381 33.1331 73.2169 25.3085 63.6019 25.3085H39.9445C38.2388 25.3085 36.5656 25.9272 35.2352 27.0515C33.791 28.272 32.9632 29.9119 32.9632 31.5518V75.2251C32.9632 76.5166 34.0105 77.563 35.3016 77.563H38.0085C39.2996 77.563 40.3469 76.5166 40.3469 75.2251V32.6915H63.4922C69.0374 32.6915 73.6193 37.136 73.6518 42.6812C73.6829 48.2487 69.1633 52.7893 63.6033 52.7893H52.1498C50.4401 52.7893 48.8468 53.7256 48.08 55.254C47.2346 56.9413 47.5381 58.9601 48.8184 60.3227L77.708 90.9091C78.3665 91.6057 79.281 92 80.2388 92H86.2852C93.3071 92 99 86.3071 99 79.2851V20.7149C99 13.6929 93.3071 8 86.2852 8Z"/>
<path d="M118.853 64.8362C118.883 66.9732 119.25 69.0796 119.952 71.1556C120.685 73.201 121.662 75.0327 122.883 76.6507C124.134 78.2382 125.6 79.5357 127.279 80.5431C128.958 81.52 130.774 82.0085 132.728 82.0085C139.322 82.0085 143.703 78.9404 145.871 72.8041H152.053C151.534 75.1854 150.664 77.3224 149.442 79.2151C148.221 81.0774 146.741 82.6648 145.001 83.9776C143.26 85.2598 141.337 86.2367 139.231 86.9083C137.124 87.5799 134.957 87.9157 132.728 87.9157C129.523 87.9157 126.622 87.2289 124.027 85.8551C121.463 84.4813 119.265 82.6496 117.433 80.3599C115.602 78.0703 114.197 75.4296 113.22 72.4378C112.243 69.4155 111.755 66.2558 111.755 62.9587C111.755 59.8753 112.243 56.914 113.22 54.0749C114.197 51.2357 115.586 48.7324 117.388 46.5649C119.219 44.3973 121.417 42.6725 123.982 41.3903C126.577 40.1081 129.477 39.467 132.682 39.467C135.796 39.467 138.59 40.047 141.062 41.2071C143.566 42.3672 145.703 43.9699 147.473 46.0153C149.244 48.0608 150.603 50.4572 151.549 53.2048C152.495 55.9524 152.969 58.9289 152.969 62.1344V64.8362H118.853ZM145.962 59.6158C145.901 57.662 145.535 55.8303 144.863 54.1207C144.222 52.4111 143.306 50.9152 142.116 49.633C140.956 48.3508 139.536 47.3433 137.857 46.6107C136.178 45.878 134.3 45.5116 132.224 45.5116C130.332 45.5116 128.576 45.9085 126.958 46.7022C125.34 47.496 123.936 48.5492 122.745 49.8619C121.555 51.1747 120.608 52.6858 119.906 54.3954C119.234 56.0745 118.883 57.8146 118.853 59.6158H145.962Z"/>
<path d="M165.707 40.3828V29.8963C165.707 28.6141 165.997 27.4235 166.577 26.3245C167.157 25.2254 167.95 24.279 168.958 23.4853C169.965 22.661 171.156 22.0352 172.53 21.6078C173.934 21.1499 175.445 20.9209 177.063 20.9209C178.132 20.9209 179.276 21.0583 180.498 21.333C181.749 21.5773 183.062 22.0199 184.436 22.661V28.2477C183.459 27.8203 182.406 27.5151 181.276 27.3319C180.177 27.1182 179.185 27.0113 178.3 27.0113C177.506 27.0113 176.743 27.1029 176.01 27.2861C175.308 27.4693 174.697 27.7746 174.178 28.202C173.659 28.5988 173.247 29.1483 172.942 29.8505C172.636 30.5221 172.484 31.3617 172.484 32.3691V40.3828H180.589V46.3359H172.484V86.9999H165.707V46.3359H158.838V40.3828H165.707Z"/>
<path d="M189.791 40.3828H196.568L196.293 48.1218C197.728 45.5879 199.407 43.6494 201.331 42.3061C203.284 40.9629 205.559 40.2912 208.154 40.2912C208.367 40.2912 208.657 40.3065 209.024 40.337C209.421 40.3676 209.818 40.4134 210.214 40.4744C210.642 40.5049 211.039 40.566 211.405 40.6576C211.802 40.7186 212.107 40.795 212.321 40.8866V47.8013C211.619 47.557 210.825 47.3739 209.94 47.2518C209.054 47.0991 208.398 47.0228 207.971 47.0228C206.169 47.0228 204.567 47.3586 203.162 48.0302C201.758 48.7019 200.567 49.6177 199.59 50.7778C198.614 51.9074 197.866 53.2201 197.347 54.716C196.828 56.1813 196.568 57.723 196.568 59.341V86.9999H189.791V40.3828Z"/>
<path d="M257.869 87.3662C257.441 87.5189 256.877 87.641 256.175 87.7326C255.503 87.8547 254.938 87.9157 254.48 87.9157C252.587 87.9157 250.985 87.1983 249.672 85.7635C248.39 84.2981 247.672 82.0695 247.52 79.0777C246.054 80.9705 244.604 82.4969 243.169 83.657C241.765 84.8171 240.361 85.7177 238.956 86.3588C237.552 86.9694 236.133 87.3815 234.698 87.5952C233.293 87.8089 231.859 87.9157 230.393 87.9157C228.5 87.9157 226.73 87.6105 225.081 86.9999C223.433 86.3893 221.983 85.5193 220.731 84.3897C219.51 83.2601 218.548 81.9016 217.846 80.3141C217.144 78.7267 216.793 76.956 216.793 75.0022C216.793 73.0484 217.22 71.3845 218.075 70.0108C218.93 68.6065 220.059 67.4006 221.464 66.3931C222.898 65.3857 224.501 64.5462 226.272 63.8745C228.073 63.1724 229.905 62.5618 231.767 62.0428C233.66 61.4933 235.507 60.9743 237.308 60.4859C239.109 59.9974 240.712 59.4632 242.116 58.8831C243.551 58.2726 244.696 57.5857 245.551 56.8224C246.405 56.0287 246.833 55.0518 246.833 53.8917C246.833 52.5484 246.573 51.3578 246.054 50.3199C245.535 49.2819 244.803 48.4118 243.856 47.7097C242.91 46.977 241.765 46.4275 240.422 46.0611C239.079 45.6948 237.598 45.5116 235.98 45.5116C234.606 45.5116 233.309 45.6948 232.088 46.0611C230.866 46.397 229.767 46.9007 228.79 47.5723C227.814 48.2439 227.005 49.0682 226.363 50.0451C225.722 51.022 225.31 52.1516 225.127 53.4338H218.029C218.182 51.1747 218.792 49.175 219.861 47.4349C220.929 45.6948 222.288 44.2447 223.936 43.0846C225.585 41.894 227.447 40.9934 229.523 40.3828C231.63 39.7723 233.782 39.467 235.98 39.467C238.361 39.467 240.605 39.757 242.711 40.337C244.848 40.9171 246.726 41.8024 248.344 42.993C249.962 44.1836 251.244 45.6948 252.191 47.5265C253.137 49.3277 253.61 51.4494 253.61 53.8917V78.0245C253.61 79.2151 253.9 80.1768 254.48 80.9095C255.091 81.6116 255.839 81.9627 256.724 81.9627C257.121 81.9627 257.503 81.9016 257.869 81.7795V87.3662ZM246.833 61.0812C245.886 62.0886 244.65 62.9281 243.124 63.5998C241.628 64.2409 240.01 64.8209 238.27 65.3399C236.56 65.8589 234.835 66.3626 233.095 66.8511C231.355 67.3395 229.767 67.9196 228.333 68.5912C226.928 69.2628 225.783 70.0871 224.898 71.064C224.013 72.0104 223.57 73.2163 223.57 74.6816C223.57 75.9944 223.799 77.1086 224.257 78.0245C224.715 78.9404 225.31 79.7036 226.043 80.3141C226.776 80.8942 227.615 81.3216 228.561 81.5963C229.508 81.8711 230.47 82.0085 231.446 82.0085C234.255 82.0085 237.003 81.1537 239.689 79.4441C242.406 77.7345 244.787 75.109 246.833 71.5677V61.0812Z"/>
<path d="M267.369 40.3828H274.146V47.5723C275.093 46.1375 276.146 44.9163 277.306 43.9089C278.497 42.8709 279.718 42.0314 280.969 41.3903C282.252 40.7186 283.534 40.2302 284.816 39.9249C286.098 39.6196 287.319 39.467 288.479 39.467C290.8 39.467 292.982 40.1081 295.028 41.3903C297.073 42.6419 298.951 44.8247 300.66 47.9386C301.546 46.4427 302.568 45.1605 303.728 44.0921C304.919 43.0236 306.171 42.1535 307.483 41.4819C308.796 40.7797 310.139 40.276 311.513 39.9707C312.887 39.6349 314.23 39.467 315.543 39.467C317.649 39.467 319.573 39.8181 321.313 40.5202C323.083 41.2224 324.61 42.1993 325.892 43.4509C327.174 44.6721 328.166 46.1375 328.869 47.8471C329.601 49.5567 329.968 51.4036 329.968 53.388V86.9999H323.19V55.3113C323.19 53.388 322.916 51.8005 322.366 50.5488C321.847 49.2972 321.16 48.305 320.305 47.5723C319.451 46.8091 318.474 46.2901 317.375 46.0153C316.306 45.7101 315.238 45.5574 314.169 45.5574C312.765 45.5574 311.345 45.878 309.91 46.5191C308.506 47.1296 307.224 47.9997 306.064 49.1293C304.934 50.2283 304.003 51.541 303.27 53.0674C302.568 54.5633 302.217 56.1966 302.217 57.9673V86.9999H295.44V55.3113C295.44 53.388 295.165 51.8005 294.616 50.5488C294.066 49.2666 293.364 48.2592 292.509 47.5265C291.685 46.7938 290.769 46.2748 289.762 45.9696C288.754 45.6643 287.793 45.5116 286.877 45.5116C285.075 45.5116 283.396 45.9238 281.839 46.748C280.313 47.5723 278.97 48.6255 277.81 49.9077C276.68 51.1899 275.78 52.5942 275.108 54.1207C274.467 55.6471 274.146 57.0972 274.146 58.471V86.9999H267.369V40.3828Z"/>
<path d="M347.681 64.8362C347.712 66.9732 348.078 69.0796 348.78 71.1556C349.513 73.201 350.49 75.0327 351.711 76.6507C352.962 78.2382 354.428 79.5357 356.107 80.5431C357.786 81.52 359.602 82.0085 361.556 82.0085C368.15 82.0085 372.531 78.9404 374.699 72.8041H380.881C380.362 75.1854 379.492 77.3224 378.271 79.2151C377.049 81.0774 375.569 82.6648 373.829 83.9776C372.089 85.2598 370.165 86.2367 368.059 86.9083C365.952 87.5799 363.785 87.9157 361.556 87.9157C358.351 87.9157 355.451 87.2289 352.856 85.8551C350.291 84.4813 348.093 82.6496 346.261 80.3599C344.43 78.0703 343.025 75.4296 342.048 72.4378C341.072 69.4155 340.583 66.2558 340.583 62.9587C340.583 59.8753 341.072 56.914 342.048 54.0749C343.025 51.2357 344.414 48.7324 346.216 46.5649C348.047 44.3973 350.245 42.6725 352.81 41.3903C355.405 40.1081 358.305 39.467 361.51 39.467C364.624 39.467 367.418 40.047 369.891 41.2071C372.394 42.3672 374.531 43.9699 376.302 46.0153C378.072 48.0608 379.431 50.4572 380.377 53.2048C381.323 55.9524 381.797 58.9289 381.797 62.1344V64.8362H347.681ZM374.79 59.6158C374.729 57.662 374.363 55.8303 373.691 54.1207C373.05 52.4111 372.134 50.9152 370.944 49.633C369.784 48.3508 368.364 47.3433 366.685 46.6107C365.006 45.878 363.128 45.5116 361.053 45.5116C359.16 45.5116 357.404 45.9085 355.786 46.7022C354.168 47.496 352.764 48.5492 351.573 49.8619C350.383 51.1747 349.436 52.6858 348.734 54.3954C348.063 56.0745 347.712 57.8146 347.681 59.6158H374.79Z"/>
</svg>
