<svg width="100" height="100" viewBox="0 0 100 100" fill="none" xmlns="http://www.w3.org/2000/svg">
<style type="text/css" id="style1">
    path {
        fill: black;
    }
    @media (prefers-color-scheme: dark) {
        path { fill: white; }
    }
</style>
<path d="M79.2852 8H20.7147C13.6928 8 8 13.6929 8 20.7149V79.2851C8 86.3071 13.6928 92 20.7147 92H53.7325C54.9789 92 55.9882 90.9899 55.9882 89.7443V87.6934C55.9882 86.4478 54.9775 85.4377 53.7325 85.4377H20.7147C17.3169 85.4377 14.5626 82.6832 14.5626 79.2851V20.7149C14.5626 17.3168 17.3169 14.5623 20.7147 14.5623H79.2852C82.6831 14.5623 85.4374 17.3168 85.4374 20.7149V79.2851C85.4374 82.6832 82.6831 85.4377 79.2852 85.4377H75.7248L51.8357 60.1722H56.4515C66.0353 60.1722 74.03 52.3323 74.0341 42.7494C74.0381 33.1331 66.2169 25.3085 56.6019 25.3085H32.9445C31.2388 25.3085 29.5656 25.9272 28.2352 27.0515C26.791 28.272 25.9632 29.9119 25.9632 31.5518V75.2251C25.9632 76.5166 27.0105 77.563 28.3016 77.563H31.0085C32.2996 77.563 33.3469 76.5166 33.3469 75.2251V32.6915H56.4922C62.0374 32.6915 66.6193 37.136 66.6518 42.6812C66.6829 48.2487 62.1633 52.7893 56.6033 52.7893H45.1498C43.4401 52.7893 41.8468 53.7256 41.08 55.254C40.2346 56.9413 40.5381 58.9601 41.8184 60.3227L70.708 90.9091C71.3665 91.6057 72.281 92 73.2388 92H79.2852C86.3071 92 92 86.3071 92 79.2851V20.7149C92 13.6929 86.3071 8 79.2852 8Z"/>
</svg>
