<svg width="85" height="84" viewBox="0 0 85 84" fill="none" xmlns="http://www.w3.org/2000/svg" style="">
    <path d="M22 69V24.5C22 22.8431 23.3431 21.5 25 21.5H46.5285C50.0855 21.5 53.5521 22.6209 56.4356 24.7035L57.5516 25.5095C59.7902 27.1263 61.4451 29.4244 62.2688 32.0601L62.4304 32.5774C63.1258 34.8026 63.1033 37.1901 62.3661 39.4018C61.4874 42.0377 59.6526 44.2486 57.2237 45.5979L55.5984 46.5009C53.2384 47.812 50.5833 48.5 47.8836 48.5H39.629C38.4532 48.5 37.5 49.4532 37.5 50.629C37.5 51.1872 37.7192 51.7231 38.1105 52.1212L65.4559 79.9464C65.804 80.3005 66.2797 80.5 66.7762 80.5H74.5088C76.1039 80.5 77.6337 79.8663 78.7616 78.7384C79.5704 77.9296 80.1318 76.9069 80.3799 75.7903L80.7262 74.2319C80.9082 73.4131 81 72.5768 81 71.738V13.6798C81 11.9237 80.5417 10.198 79.6705 8.6733L79.6 8.54997C79.2018 7.8531 78.7124 7.21243 78.1449 6.64489C76.4514 4.9514 74.1545 4 71.7596 4H13.1554C11.7343 4 10.329 4.29822 9.03037 4.87539L8.30672 5.19701C7.12383 5.72274 6.10321 6.55551 5.35082 7.60886C4.47228 8.83881 4 10.3125 4 11.824V72.4418C4 73.7916 4.34401 75.1192 4.99955 76.2992C5.96463 78.0363 7.54583 79.3486 9.43107 79.977L9.67531 80.0584C10.5527 80.3509 11.4715 80.5 12.3963 80.5H48" stroke-width="7" stroke-linecap="round" class="kmrWrdLT_0"></path>
    <style data-made-with="vivus-instant">
        .kmrWrdLT_0 {
            stroke: #0A0A0A;
            stroke-dasharray:445 447;
            stroke-dashoffset:446;
            animation:kmrWrdLT_draw_0 5000ms linear 0ms infinite;
        }
        @media (prefers-color-scheme: dark) {
            .kmrWrdLT_0 {
                stroke: #FFFFFF;
            }
        }
        @keyframes kmrWrdLT_draw {
            100% {
                stroke-dashoffset:0;
            }
        }

        @keyframes kmrWrdLT_draw_0{
            15.384615384615385% {
                stroke-dashoffset: 446;
            }
            53.84615384615385% {
                stroke-dashoffset: 0;
            }
            100% {
                stroke-dashoffset: 446;
            }
            animation-direction: reverse;
        }
    </style>
</svg>
