<?xml version="1.0" encoding="utf-8"?>
<!-- Generator: Adobe Illustrator 27.4.1, SVG Export Plug-In . SVG Version: 6.00 Build 0)  -->
<svg version="1.1" id="Layer_1" xmlns="http://www.w3.org/2000/svg" xmlns:xlink="http://www.w3.org/1999/xlink" x="0px" y="0px"
	 viewBox="0 0 2800 2500" style="enable-background:new 0 0 2800 2500;" xml:space="preserve">
<path d="M2100.74,321.5H699.24c-168.03,0-304.25,125.85-304.25,281.09v1294.82c0,155.24,136.22,281.09,304.25,281.09h790.06
	c29.81,0,53.98-22.33,53.98-49.87v-45.34c0-27.54-24.17-49.87-53.98-49.87H699.24c-81.31,0-147.22-60.89-147.22-136.01V602.59
	c0-75.12,65.91-136.01,147.22-136.01h1401.5c81.31,0,147.22,60.89,147.22,136.01v1294.82c0,75.12-65.91,136.01-147.22,136.01h-85.19
	l-571.62-558.55h110.46c229.31,0,420.61-173.32,420.72-385.17c0.11-212.58-187.05-385.56-417.11-385.56H991.9
	c-40.83,0-80.84,13.68-112.67,38.53c-34.56,26.98-54.37,63.23-54.37,99.48v965.49c0,28.54,25.05,51.68,55.94,51.68h64.78
	c30.9,0,55.94-23.14,55.94-51.68V867.36h553.83c132.69,0,242.33,98.27,243.1,220.85c0.76,123.09-107.4,223.45-240.45,223.45h-274.06
	c-40.91,0-79.05,20.7-97.38,54.49c-20.24,37.31-12.98,81.94,17.66,112.05l691.28,676.18c15.74,15.39,37.65,24.12,60.57,24.12h144.68
	c168.03,0,304.25-125.85,304.25-281.09V602.59C2404.99,447.35,2268.77,321.5,2100.74,321.5z"/>
</svg>
