<svg width="40" height="40" viewBox="0 0 40 40" fill="none" xmlns="http://www.w3.org/2000/svg">
<rect width="40" height="40" rx="20" fill="#F5F5F5"/>
<path d="M20 21.3125C12.23 21.3125 9.5 25.25 9.5 27.875V30.3125C9.5 31.1409 10.1716 31.8125 11 31.8125H29C29.8284 31.8125 30.5 31.1409 30.5 30.3125V27.875C30.5 25.25 27.77 21.3125 20 21.3125Z" fill="#0A0A0A" fill-opacity="0.64"/>
<path d="M20 20C23.2619 20 25.9062 17.3557 25.9062 14.0938C25.9062 10.8318 23.2619 8.1875 20 8.1875C16.7381 8.1875 14.0938 10.8318 14.0938 14.0938C14.0938 17.3557 16.7381 20 20 20Z" fill="#0A0A0A" fill-opacity="0.64"/>
</svg>
