<svg width="320" height="320" viewBox="0 0 320 320" fill="none" xmlns="http://www.w3.org/2000/svg">
<style type="text/css" id="style1">
  :root {
    --gradient-color-dark: #111827;
    --gradient-color-light: #e5e7eb;
  }
  @media (prefers-color-scheme: dark) {
    :root {
      --gradient-color-dark: #6b7280;
      --gradient-color-light: #e5e7eb;
    }
  }
</style>
  <defs>
    <linearGradient id="grad1">
      <stop offset="0%" style="stop-color: var(--gradient-color-dark);"/>
      <stop offset="100%" style="stop-color: var(--gradient-color-light);"/> <!-- Adjusted stop-opacity -->
    </linearGradient>
  </defs>
  <path d="M318.959 2H243.368C237.471 2 232.69 6.78056 232.69 12.6777V132.03C232.69 142 232 147.708 222.012 147.708H0M319.849 318H243.873C237.976 318 233.196 313.219 233.196 307.322V186.97C233.196 176 231.5 171.292 222.518 171.292H0M319.849 107.218H254.127C248.23 107.218 243.449 111.998 243.449 117.895V134.03C243.449 144.842 243.449 155.606 223.873 155.606H0M319.849 211.554H254.127C248.23 211.554 243.449 206.773 243.449 200.876V184.97C243.449 170 242 163.394 223.873 163.394H0" stroke="url(#grad1)" stroke-width="1.5">
    <animate attributeName="stroke-dasharray" values="0 1000; 500 500; 1000 0; 1000 0" keyTimes="0; 0.4; 0.7; 1" dur="2s" begin="0s" repeatCount="indefinite"/>
    <animate attributeName="stroke-dashoffset" values="1000; 0; 0" keyTimes="0; 0.5; 1" dur="4s" begin="0s" repeatCount="indefinite"/>
    <!-- <animate attributeName="opacity" values="1; 0; 0; 1" keyTimes="0; 0.4; 0.7; 1" dur="4s" begin="0s" repeatCount="indefinite"/> -->
  </path>
</svg>