<svg width="284" height="258" viewBox="0 0 284 258" fill="none" xmlns="http://www.w3.org/2000/svg">
<path d="M282.959 1H241.367C235.47 1 230.69 5.78056 230.69 11.6777V110.03C230.69 115.927 225.909 120.708 220.012 120.708H161.945M283.848 257H241.873C235.976 257 231.195 252.219 231.195 246.322V158.97C231.195 153.073 226.415 148.292 220.518 148.292H161.945M283.848 86.2176H252.127C246.229 86.2176 241.449 90.9982 241.449 96.8953V110.03C241.449 120.842 232.684 129.606 221.873 129.606H161.945M283.848 173.554H252.127C246.229 173.554 241.449 168.773 241.449 162.876V158.97C241.449 148.158 232.684 139.394 221.873 139.394H161.945M94.3196 120.708H0M95.2094 129.606H0.889807M95.2094 139.394H0.889807M96.0992 148.292H1.77961" stroke="#D4D4D4" stroke-width="2"/>
</svg>
