<svg width="16" height="16" viewBox="0 0 16 16" fill="none" xmlns="http://www.w3.org/2000/svg">
<path d="M10.8353 15.8145V10.0098H12.7789L13.0698 7.7532H10.8353V6.31249C10.8353 5.65915 11.0167 5.2139 11.9536 5.2139L13.1486 5.21335V3.19509C12.9418 3.16764 12.2326 3.10617 11.4073 3.10617C9.68442 3.10617 8.505 4.15777 8.505 6.08905V7.7532H6.55642V10.0098H8.505V15.8145H1.33333C0.8731 15.8145 0.5 15.4414 0.5 14.9811V1.64779C0.5 1.18755 0.8731 0.814453 1.33333 0.814453H14.6667C15.1269 0.814453 15.5 1.18755 15.5 1.64779V14.9811C15.5 15.4414 15.1269 15.8145 14.6667 15.8145H10.8353Z" fill="#525252"/>
</svg>
