<svg width="18" height="18" viewBox="0 0 18 18" fill="none" xmlns="http://www.w3.org/2000/svg">
<path d="M9.00132 0.981445C4.39714 0.981445 0.667969 4.71061 0.667969 9.31478C0.667969 13.0023 3.05339 16.1169 6.36589 17.221C6.78255 17.2939 6.9388 17.0439 6.9388 16.8252C6.9388 16.6273 6.92839 15.971 6.92839 15.2731C4.83464 15.6585 4.29297 14.7627 4.1263 14.2939C4.03255 14.0544 3.6263 13.3148 3.27214 13.1169C2.98047 12.9606 2.5638 12.5752 3.26172 12.5648C3.91797 12.5544 4.38672 13.1689 4.54297 13.4189C5.29297 14.6794 6.49089 14.3252 6.97005 14.1064C7.04297 13.5648 7.26172 13.2002 7.50132 12.9919C5.64714 12.7835 3.70964 12.0648 3.70964 8.87728C3.70964 7.97103 4.03255 7.22103 4.5638 6.6377C4.48047 6.42936 4.1888 5.57519 4.64714 4.42936C4.64714 4.42936 5.34505 4.21061 6.9388 5.28353C7.60549 5.09603 8.31382 5.00228 9.02215 5.00228C9.73049 5.00228 10.4388 5.09603 11.1055 5.28353C12.6992 4.2002 13.3972 4.42936 13.3972 4.42936C13.8555 5.57519 13.5638 6.42936 13.4805 6.6377C14.0117 7.22103 14.3347 7.96061 14.3347 8.87728C14.3347 12.0752 12.3867 12.7835 10.5326 12.9919C10.8347 13.2523 11.0951 13.7523 11.0951 14.5335C11.0951 15.6481 11.0847 16.5439 11.0847 16.8252C11.0847 17.0439 11.2409 17.3044 11.6576 17.221C15.0497 16.0759 17.3337 12.895 17.3347 9.31478C17.3347 4.71061 13.6055 0.981445 9.00132 0.981445Z" fill="#525252"/>
</svg>
