<svg width="12" height="2" viewBox="0 0 12 2" fill="none" xmlns="http://www.w3.org/2000/svg">
<path d="M1.625 0.125C1.14375 0.125 0.75 0.51875 0.75 1C0.75 1.48125 1.14375 1.875 1.625 1.875C2.10625 1.875 2.5 1.48125 2.5 1C2.5 0.51875 2.10625 0.125 1.625 0.125ZM10.375 0.125C9.89375 0.125 9.5 0.51875 9.5 1C9.5 1.48125 9.89375 1.875 10.375 1.875C10.8562 1.875 11.25 1.48125 11.25 1C11.25 0.51875 10.8562 0.125 10.375 0.125ZM6 0.125C5.51875 0.125 5.125 0.51875 5.125 1C5.125 1.48125 5.51875 1.875 6 1.875C6.48125 1.875 6.875 1.48125 6.875 1C6.875 0.51875 6.48125 0.125 6 0.125Z" fill="#262626"/>
</svg>
