<svg width="16" height="16" viewBox="0 0 16 16" fill="none" xmlns="http://www.w3.org/2000/svg">
<path d="M13.2803 13.597H11.0591V10.1163C11.0591 9.28629 11.0422 8.2182 9.90158 8.2182C8.74349 8.2182 8.56658 9.12137 8.56658 10.055V13.597H6.34533V6.43945H8.47908V7.41504H8.50783C8.80599 6.85254 9.53099 6.25883 10.6141 6.25883C12.8647 6.25883 13.281 7.74012 13.281 9.6682L13.2803 13.597ZM3.8366 5.46008C3.1216 5.46008 2.54723 4.88133 2.54723 4.16945C2.54723 3.4582 3.12223 2.88008 3.8366 2.88008C4.5491 2.88008 5.1266 3.4582 5.1266 4.16945C5.1266 4.88133 4.54848 5.46008 3.8366 5.46008ZM4.95035 13.597H2.72285V6.43945H4.95035V13.597ZM14.3916 0.814453H1.60785C0.995977 0.814453 0.500977 1.2982 0.500977 1.89508V14.7339C0.500977 15.3313 0.995977 15.8145 1.60785 15.8145H14.3897C15.001 15.8145 15.501 15.3313 15.501 14.7339V1.89508C15.501 1.2982 15.001 0.814453 14.3897 0.814453H14.3916Z" fill="#525252"/>
</svg>
