<svg width="41" height="53" viewBox="0 0 41 53" fill="none" xmlns="http://www.w3.org/2000/svg">
<path d="M35.3888 30.2829H30.6918V15.8839C30.7271 14.5503 30.4949 13.2232 30.009 11.9808C29.523 10.7385 28.7932 9.60601 27.8624 8.65031C26.9317 7.69461 25.819 6.93503 24.5899 6.41637C23.3608 5.89771 22.0403 5.63049 20.7063 5.63049C19.3722 5.63049 18.0517 5.89771 16.8227 6.41637C15.5936 6.93503 14.4808 7.69461 13.5501 8.65031C12.6194 9.60601 11.8895 10.7385 11.4036 11.9808C10.9176 13.2232 10.6855 14.5503 10.7208 15.8839V30.2829H6.03077V15.8839C5.92408 13.8902 6.22466 11.8956 6.91416 10.0219C7.60367 8.14814 8.66765 6.4345 10.0412 4.98548C11.4148 3.53646 13.0691 2.38243 14.9033 1.59379C16.7375 0.805147 18.7132 0.398438 20.7098 0.398438C22.7063 0.398438 24.682 0.805147 26.5162 1.59379C28.3504 2.38243 30.0048 3.53646 31.3783 4.98548C32.7519 6.4345 33.8159 8.14814 34.5054 10.0219C35.1949 11.8956 35.4955 13.8902 35.3888 15.8839V30.2829Z" fill="#525252"/>
<g opacity="0.3">
<path d="M35.381 30.2829H30.684V15.8839C30.7193 14.5503 30.4871 13.2232 30.0012 11.9808C29.5152 10.7385 28.7853 9.60601 27.8546 8.65031C26.9239 7.69461 25.8111 6.93503 24.5821 6.41637C23.353 5.89771 22.0325 5.63049 20.6985 5.63049C19.3644 5.63049 18.0439 5.89771 16.8148 6.41637C15.5858 6.93503 14.473 7.69461 13.5423 8.65031C12.6116 9.60601 11.8817 10.7385 11.3957 11.9808C10.9098 13.2232 10.6776 14.5503 10.713 15.8839V30.2829H6.02295V15.8839C5.91627 13.8902 6.21684 11.8956 6.90635 10.0219C7.59585 8.14814 8.65984 6.4345 10.0334 4.98548C11.407 3.53646 13.0613 2.38243 14.8955 1.59379C16.7297 0.805147 18.7054 0.398438 20.702 0.398438C22.6985 0.398438 24.6742 0.805147 26.5084 1.59379C28.3426 2.38243 29.997 3.53646 31.3705 4.98548C32.7441 6.4345 33.808 8.14814 34.4976 10.0219C35.1871 11.8956 35.4876 13.8902 35.381 15.8839V30.2829Z" fill="white"/>
</g>
<path d="M40.3092 26.6218V50.1838C40.3102 50.5429 40.2402 50.8986 40.1034 51.2306C39.9667 51.5627 39.7657 51.8644 39.5121 52.1187C39.2585 52.3729 38.9573 52.5746 38.6256 52.7123C38.2939 52.8499 37.9383 52.9208 37.5792 52.9208H2.92223C2.56372 52.9198 2.20891 52.8483 1.87804 52.7103C1.54717 52.5722 1.24673 52.3704 0.993873 52.1162C0.741019 51.8621 0.540705 51.5606 0.404359 51.229C0.268014 50.8975 0.198307 50.5423 0.199228 50.1838V26.6218C0.198307 26.2633 0.268014 25.9081 0.404359 25.5765C0.540705 25.2449 0.741019 24.9435 0.993873 24.6893C1.24673 24.4352 1.54717 24.2333 1.87804 24.0952C2.20891 23.9572 2.56372 23.8857 2.92223 23.8848H37.5792C37.9383 23.8848 38.2939 23.9556 38.6256 24.0932C38.9573 24.2309 39.2585 24.4326 39.5121 24.6868C39.7657 24.9411 39.9667 25.2429 40.1034 25.5749C40.2402 25.9069 40.3102 26.2627 40.3092 26.6218Z" fill="#525252"/>
<path opacity="0.2" d="M40.3089 26.6218V50.1838C40.3099 50.5429 40.2399 50.8986 40.1031 51.2306C39.9664 51.5627 39.7654 51.8644 39.5118 52.1187C39.2582 52.3729 38.957 52.5746 38.6253 52.7123C38.2936 52.8499 37.938 52.9208 37.5789 52.9208H12.3159C11.5912 52.9189 10.8969 52.6297 10.3851 52.1166C9.87334 51.6035 9.58594 50.9085 9.58594 50.1838V26.6218C9.58594 25.8971 9.87334 25.202 10.3851 24.6889C10.8969 24.1758 11.5912 23.8866 12.3159 23.8848H37.5789C37.938 23.8848 38.2936 23.9556 38.6253 24.0932C38.957 24.2309 39.2582 24.4326 39.5118 24.6868C39.7654 24.9411 39.9664 25.2429 40.1031 25.5749C40.2399 25.9069 40.3099 26.2627 40.3089 26.6218Z" fill="white"/>
<path d="M29.3411 35.4425C29.3411 32.5375 27.3741 30.1855 24.9591 30.1855C22.5441 30.1855 20.5701 32.5375 20.5701 35.4425C20.5327 36.4468 20.7822 37.441 21.2892 38.3088C21.7962 39.1765 22.5398 39.8819 23.4331 40.3425L23.2021 46.6075H26.7021L26.1771 40.4545C27.1527 40.0415 27.9786 39.34 28.5442 38.4442C29.1097 37.5483 29.3878 36.5009 29.3411 35.4425Z" fill="#525252"/>
</svg>
