<svg width="203" height="48" viewBox="0 0 203 48" fill="none" xmlns="http://www.w3.org/2000/svg">
<path d="M75.9708 27.4442C75.9708 31.2293 73.0054 33.5004 67.2933 33.5004C65.2272 33.5004 62.5535 33.0852 61.5083 32.6212V14.7947H68.7274C72.3005 14.7947 74.2936 16.6506 74.2936 19.3856C74.2936 20.7776 73.5158 22.1451 72.422 22.8044C74.2936 23.3417 75.9708 25.0022 75.9708 27.4442ZM68.7031 17.5297H64.4251V22.0474H68.8003C70.5504 22.0474 71.3039 20.9729 71.3039 19.7519C71.3039 18.5309 70.5747 17.5297 68.7031 17.5297ZM72.9811 27.4198C72.9811 25.8569 71.9116 24.5627 69.6997 24.5627H64.4251V30.3502C65.2272 30.6188 66.6127 30.7409 67.585 30.7409C71.6442 30.7409 72.9811 29.349 72.9811 27.4198Z" fill="#979797"/>
<path d="M78.6196 14.0621H81.5364V29.349C81.5364 30.3746 82.1927 30.7897 82.849 30.7897C83.2622 30.7897 83.5782 30.6921 83.8456 30.5455V33.0608C83.4324 33.3538 82.7274 33.5004 82.0469 33.5004C79.8592 33.5004 78.6196 31.9131 78.6196 29.7397V14.0621Z" fill="#979797"/>
<path d="M85.354 26.443C85.354 22.5602 88.368 19.3856 92.3786 19.3856C96.3893 19.3856 99.4519 22.5602 99.4519 26.443C99.4519 30.3258 96.4379 33.5004 92.3786 33.5004C88.3194 33.5004 85.354 30.399 85.354 26.443ZM96.6323 26.443C96.6323 23.9277 94.8822 21.9497 92.3786 21.9497C89.875 21.9497 88.1736 23.9277 88.1736 26.443C88.1736 28.9582 89.9237 30.9607 92.3786 30.9607C94.8336 30.9607 96.6323 28.9827 96.6323 26.443Z" fill="#979797"/>
<path d="M101.419 26.443C101.419 22.5602 104.433 19.3856 108.443 19.3856C112.454 19.3856 115.516 22.5602 115.516 26.443C115.516 30.3258 112.502 33.5004 108.443 33.5004C104.384 33.5004 101.419 30.399 101.419 26.443ZM112.697 26.443C112.697 23.9277 110.947 21.9497 108.443 21.9497C105.94 21.9497 104.238 23.9277 104.238 26.443C104.238 28.9582 105.988 30.9607 108.443 30.9607C110.898 30.9607 112.697 28.9827 112.697 26.443Z" fill="#979797"/>
<path d="M139.679 24.9534V33.1096H136.762V25.3929C136.762 23.1463 135.668 21.852 133.772 21.852C131.633 21.852 130.223 23.4882 130.223 25.9058V33.1096H127.306V25.3929C127.306 23.1707 126.188 21.852 124.292 21.852C122.153 21.852 120.744 23.4882 120.744 25.9058V33.1096H117.827V19.7519H120.598V21.7544C121.23 20.4601 122.81 19.3856 124.803 19.3856C127.039 19.3856 128.74 20.3868 129.591 22.0718C130.345 20.631 132.046 19.3856 134.282 19.3856C137.564 19.3856 139.679 21.5346 139.679 24.9534Z" fill="#979797"/>
<path d="M152.731 15.454C152.731 14.4039 153.485 13.8423 154.676 13.8423C155.867 13.8423 156.62 14.4039 156.62 15.454C156.62 16.4308 155.915 17.0169 154.676 17.0169C153.436 17.0169 152.731 16.4308 152.731 15.454ZM153.217 19.7519H156.134V33.1096H153.217V19.7519Z" fill="#979797"/>
<path d="M159.268 14.0621H162.185V29.349C162.185 30.3746 162.841 30.7897 163.498 30.7897C163.911 30.7897 164.227 30.6921 164.494 30.5455V33.0608C164.081 33.3538 163.376 33.5004 162.695 33.5004C160.508 33.5004 159.268 31.9131 159.268 29.7397V14.0621Z" fill="#979797"/>
<path d="M149.425 16.3087C150.033 16.3087 150.495 16.382 150.884 16.5285V14.1109C150.398 13.9155 149.79 13.8179 149.061 13.8179C145.998 13.8179 144.224 15.5517 144.224 18.3111V19.7519H141.696V22.316H144.224V29.3642V32.4015C144.224 33.4271 143.567 33.8422 142.911 33.8422C142.498 33.8422 142.182 33.7446 141.915 33.598V36.1133C142.328 36.4063 143.033 36.5529 143.713 36.5529C145.901 36.5529 147.141 34.9656 147.141 32.7922V29.3245V22.316H150.86V19.7519H147.141V18.36C147.141 17.0413 147.87 16.3087 149.425 16.3087Z" fill="#979797"/>
<path d="M170.085 22.316V28.6408C170.085 29.9839 170.814 30.7653 172.127 30.7653C172.637 30.7653 173.391 30.6432 173.756 30.4479V33.1096C173.342 33.3538 172.54 33.5004 171.835 33.5004C168.967 33.5004 167.217 31.6933 167.217 28.6408V22.316H164.932V19.7519H167.217V15.8447H170.085V19.7519H173.756V22.316H170.085Z" fill="#979797"/>
<path d="M188.315 27.371H178.544C178.884 29.6176 180.537 30.9118 183.211 30.9118C185.252 30.9118 186.686 30.399 187.805 29.7153L187.853 32.3282C186.395 33.2073 184.742 33.5004 183.04 33.5004C178.617 33.5004 175.7 30.6432 175.7 26.4674C175.7 22.2916 178.568 19.3856 182.336 19.3856C185.714 19.3856 188.461 21.7788 188.461 25.9302C188.461 26.5163 188.388 27.0291 188.315 27.371ZM178.617 25.0999H185.69C185.568 23.0975 184.256 21.852 182.238 21.852C180.391 21.852 179.03 23.0975 178.617 25.0999Z" fill="#979797"/>
<path d="M199.813 19.581V22.5358C199.327 22.3404 198.719 22.1939 197.99 22.1939C195.681 22.1939 193.882 23.5614 193.882 26.2232V33.1096H190.965V19.7519H193.736V21.9253C194.466 20.5578 196.191 19.3856 198.403 19.3856C198.889 19.3856 199.473 19.4833 199.813 19.581Z" fill="#979797"/>
<path d="M34.0493 27.0557L34.0058 19.9175C36.108 20.5795 38.0058 21.811 39.4688 23.4528C38.0256 25.1133 36.1436 26.3672 34.0493 27.0557ZM11.7982 23.6223C13.2598 25.2642 15.1577 26.4956 17.2612 27.1577L17.2177 20.0195C15.1234 20.7067 13.2401 21.9619 11.7982 23.621V23.6223ZM32.6233 35.5339C33.3086 33.4405 33.4207 31.1736 32.9396 29.0127L26.8085 32.6196C28.4493 34.0986 30.4711 35.1089 32.6233 35.5339ZM32.4783 11.4578C30.3314 11.9094 28.3215 12.9448 26.6991 14.4424L32.8737 17.9737C33.3284 15.8075 33.1887 13.542 32.4783 11.4565V11.4578ZM18.7873 35.6173C20.9343 35.1658 22.9442 34.1304 24.5666 32.6328L18.392 29.1014C17.9373 31.2677 18.077 33.5332 18.7873 35.6173ZM18.6424 11.5413C17.9584 13.6347 17.845 15.9015 18.3261 18.0624L24.4572 14.4556C22.8164 12.9766 20.7946 11.9663 18.6424 11.5413ZM17.9083 9.67826C17.9491 9.58954 17.9887 9.50083 18.0308 9.41344C18.1732 9.11817 18.3221 8.82819 18.4829 8.5488V8.54748C18.6608 8.23896 18.8506 7.94104 19.0496 7.64974C19.1116 7.5597 19.1775 7.47231 19.2407 7.3836C19.3844 7.18366 19.5307 6.98769 19.6836 6.79702C19.76 6.70169 19.8378 6.60768 19.9155 6.51499C20.071 6.33094 20.2318 6.15219 20.3966 5.97741C20.473 5.89664 20.5468 5.81454 20.6246 5.7351C20.85 5.50735 21.0819 5.28755 21.3218 5.07702C21.3416 5.05981 21.36 5.04127 21.3785 5.02406C21.6394 4.79764 21.9109 4.58446 22.1903 4.37922C22.2747 4.31699 22.363 4.25873 22.4486 4.19914C22.649 4.05879 22.8519 3.92241 23.0602 3.79265C23.1643 3.72777 23.2684 3.66553 23.3738 3.6033C23.4595 3.55299 23.5426 3.4987 23.6282 3.44971C22.7254 3.24182 21.8094 3.13854 20.8974 3.13854C18.7794 3.13854 16.6773 3.69334 14.79 4.78837C12.0394 6.3839 10.0546 8.93941 9.17418 11.9544C9.2124 11.9305 9.25194 11.912 9.29016 11.8895C9.5498 11.7333 9.81208 11.5836 10.0823 11.4459C10.1692 11.4009 10.2589 11.3612 10.3472 11.3188C10.5449 11.2235 10.7439 11.1321 10.9455 11.0461C11.0615 10.9957 11.1775 10.9454 11.2961 10.8991C11.5478 10.7998 11.8022 10.7071 12.0605 10.6237C12.1962 10.5786 12.332 10.5402 12.4691 10.4992C12.643 10.4476 12.8183 10.4012 12.9949 10.3562C13.1689 10.3125 13.3429 10.2715 13.5195 10.2344C13.7396 10.188 13.9597 10.147 14.1811 10.1126C14.3181 10.0914 14.4552 10.0715 14.5936 10.0543C14.8414 10.0225 15.0892 9.99737 15.3396 9.97883C15.4621 9.97088 15.5834 9.96426 15.706 9.95897C15.9498 9.94837 16.1949 9.9444 16.4414 9.94573C16.5402 9.94573 16.6391 9.94573 16.7379 9.9497C17.0529 9.96029 17.3679 9.98015 17.6829 10.0119C17.7066 10.0146 17.729 10.0146 17.7528 10.0172C17.8015 9.90335 17.8569 9.79346 17.9083 9.68091V9.67826ZM33.3587 37.3929C33.3179 37.4816 33.2783 37.5717 33.2361 37.6604C33.0938 37.9557 32.9449 38.2456 32.7828 38.5277C32.6048 38.8362 32.4137 39.1341 32.216 39.4254C32.1541 39.5168 32.0882 39.6042 32.0249 39.6929C31.8826 39.8915 31.7363 40.0875 31.5834 40.2781C31.507 40.3735 31.4292 40.4688 31.3501 40.5628C31.1946 40.7469 31.0351 40.9243 30.8704 41.0991C30.794 41.1798 30.7188 41.2633 30.6411 41.3427C30.417 41.5691 30.1864 41.7876 29.9478 41.9968C29.9267 42.0154 29.907 42.0352 29.8859 42.0538C29.6249 42.2802 29.3534 42.4934 29.0753 42.6986C28.991 42.7608 28.904 42.8178 28.8183 42.8787C28.618 43.019 28.415 43.1554 28.2055 43.2852C28.1027 43.35 27.9973 43.4123 27.8918 43.4745C27.8062 43.5248 27.7231 43.5791 27.6361 43.6281C30.6305 44.318 33.7739 43.8558 36.4744 42.2894C39.225 40.6939 41.2098 38.1384 42.0902 35.1234C42.0124 35.1711 41.9307 35.2108 41.853 35.2558C41.6974 35.3472 41.5406 35.4346 41.3825 35.5193C41.2085 35.6133 41.0319 35.7021 40.854 35.7881C40.6879 35.8676 40.5205 35.9444 40.3518 36.0172C40.1752 36.0927 39.9986 36.1642 39.8194 36.233C39.6414 36.3006 39.4635 36.3668 39.2829 36.4263C39.109 36.4846 38.9324 36.5376 38.7558 36.5892C38.566 36.6448 38.3762 36.6978 38.1838 36.7441C38.0124 36.7865 37.8398 36.8222 37.6658 36.8567C37.4655 36.8977 37.2665 36.9361 37.0635 36.9679C36.8922 36.9944 36.7208 37.0156 36.5495 37.0354C36.3452 37.0593 36.1409 37.0831 35.934 37.0977C35.7561 37.1109 35.5782 37.1149 35.4002 37.1202C35.2605 37.1241 35.1208 37.1387 34.9811 37.1387C34.9152 37.1387 34.848 37.1321 34.7821 37.1308C34.649 37.1294 34.5159 37.1215 34.3828 37.1162C34.1614 37.1069 33.9413 37.0924 33.7198 37.0725C33.6513 37.0659 33.5828 37.0659 33.5142 37.0593C33.4668 37.1718 33.4114 37.2817 33.36 37.3943L33.3587 37.3929ZM9.82525 23.3284C9.76858 23.2489 9.71191 23.1695 9.65787 23.0887C9.47468 22.8173 9.29807 22.5432 9.13728 22.2625C8.95936 21.954 8.79856 21.6388 8.647 21.321C8.59955 21.2217 8.55738 21.1198 8.51125 21.0191C8.41108 20.7954 8.31619 20.5716 8.22789 20.3439C8.18308 20.2287 8.1409 20.1135 8.10005 19.9969C8.01965 19.7705 7.94584 19.5428 7.87863 19.3124C7.847 19.2051 7.81273 19.0979 7.78374 18.9906C7.7007 18.6834 7.62822 18.3736 7.56759 18.0624C7.56232 18.0346 7.55441 18.0068 7.54914 17.979C7.48456 17.6387 7.43711 17.2971 7.39889 16.9528C7.38703 16.8482 7.38176 16.741 7.37253 16.6364C7.35144 16.3928 7.33563 16.1491 7.32772 15.9028C7.32377 15.7797 7.32245 15.6566 7.32113 15.5334C7.32113 15.4341 7.31454 15.3348 7.31586 15.2355C5.22426 17.4957 4.05127 20.4617 4.05127 23.5945C4.05127 26.7273 5.26248 29.79 7.41998 32.0634C7.41734 31.9562 7.42261 31.8503 7.42261 31.743C7.42261 31.6172 7.42261 31.4914 7.42525 31.3656C7.43184 31.1127 7.44634 30.8612 7.46611 30.6096C7.47401 30.505 7.47929 30.399 7.48983 30.2944C7.52673 29.9422 7.57418 29.59 7.63744 29.2418C7.64535 29.1981 7.65721 29.1557 7.66512 29.112C7.72311 28.8075 7.79296 28.5043 7.87204 28.2037C7.90235 28.0898 7.93662 27.9786 7.96957 27.8661C8.03678 27.633 8.11059 27.4013 8.19098 27.1709C8.23316 27.0517 8.27533 26.9326 8.32015 26.8147C8.40845 26.583 8.50334 26.3553 8.60482 26.1288C8.65095 26.0256 8.69313 25.9223 8.74189 25.8203C8.89478 25.4986 9.05689 25.1795 9.23613 24.8683C9.38506 24.6101 9.54585 24.3559 9.71323 24.1056C9.76199 24.0328 9.81208 23.9626 9.86084 23.8911C9.92015 23.805 9.97682 23.7177 10.0388 23.6329C9.96496 23.5336 9.89774 23.4303 9.82657 23.3297L9.82525 23.3284ZM17.0582 18.6318C16.473 16.2299 16.5468 13.6942 17.2677 11.3453C17.1333 11.3347 17.0002 11.3241 16.8658 11.3175C16.8434 11.3175 16.8196 11.3148 16.7972 11.3135C14.2588 11.2116 11.7415 11.9094 9.62756 13.2838C9.58143 13.3142 9.53662 13.346 9.49049 13.3765C9.37188 13.4559 9.25458 13.5367 9.1386 13.6201C9.07665 13.6651 9.01471 13.7128 8.95277 13.7591C8.89477 13.8028 8.83942 13.8465 8.78275 13.8915C8.7643 14.0306 8.75112 14.1696 8.73794 14.3086C8.72344 14.4662 8.70631 14.6238 8.69708 14.78C8.68654 14.9641 8.68654 15.1468 8.6839 15.3308C8.68258 15.4857 8.67731 15.642 8.68127 15.7969C8.68654 15.981 8.70104 16.1637 8.71421 16.3464C8.72476 16.4987 8.73267 16.6523 8.74848 16.8032C8.76825 16.9886 8.79988 17.1713 8.82888 17.354C8.85128 17.501 8.86973 17.6493 8.89873 17.7963C8.93563 17.9843 8.98308 18.1684 9.02921 18.3537C9.06347 18.4941 9.09247 18.6358 9.13069 18.7735C9.18473 18.9655 9.25194 19.1548 9.31652 19.3455C9.36002 19.4739 9.39692 19.605 9.44568 19.7334C9.52344 19.9413 9.6157 20.1452 9.704 20.3505C9.75013 20.4564 9.78967 20.565 9.83975 20.6696C9.98473 20.9781 10.1429 21.2813 10.3142 21.5806C10.4895 21.8851 10.6819 22.183 10.8862 22.4757C10.8994 22.4955 10.9152 22.5141 10.9284 22.5326C12.5719 20.7106 14.7043 19.3521 17.0582 18.6331V18.6318ZM41.4418 23.7441C41.4984 23.8236 41.5551 23.9017 41.6091 23.9825C41.7923 24.2539 41.9689 24.5293 42.1297 24.81C42.3077 25.1185 42.4685 25.4337 42.62 25.7515C42.6675 25.8508 42.7096 25.9527 42.7558 26.0534C42.8559 26.2771 42.9508 26.5009 43.0391 26.7287C43.0839 26.8439 43.1261 26.959 43.167 27.0756C43.2474 27.302 43.3212 27.5311 43.3897 27.7601C43.4213 27.8674 43.4556 27.9733 43.4846 28.0819C43.5676 28.3904 43.6401 28.7002 43.7021 29.0127C43.7073 29.0405 43.7152 29.067 43.7205 29.0948C43.7851 29.4351 43.8325 29.7781 43.8708 30.1223C43.8826 30.2269 43.8879 30.3315 43.8971 30.4374C43.9182 30.6824 43.934 30.9274 43.9419 31.1723C43.9459 31.2941 43.9472 31.4173 43.9472 31.5404C43.9472 31.6397 43.9538 31.739 43.9525 31.8397C46.0441 29.5794 47.2171 26.6148 47.2171 23.4806C47.2171 20.2896 46.0059 17.2852 43.8484 15.0117C43.851 15.119 43.8457 15.2262 43.8457 15.3335C43.8457 15.4593 43.8457 15.5837 43.8431 15.7082C43.8365 15.9624 43.822 16.2153 43.8009 16.4682C43.793 16.5715 43.7877 16.6761 43.7772 16.7794C43.7403 17.1329 43.6928 17.4851 43.6296 17.8334C43.6217 17.8744 43.6111 17.9155 43.6032 17.9565C43.5439 18.2637 43.4754 18.5696 43.395 18.8728C43.366 18.984 43.3317 19.0939 43.2988 19.2051C43.2302 19.4395 43.1577 19.6725 43.076 19.9043C43.0352 20.0234 42.9917 20.1413 42.9469 20.2591C42.8586 20.4908 42.7624 20.7199 42.6622 20.9463C42.6174 21.0483 42.5739 21.1516 42.5264 21.2535C42.3736 21.5766 42.2114 21.8944 42.0322 22.2055C41.8833 22.4651 41.7225 22.718 41.5551 22.9695C41.5077 23.041 41.4576 23.1112 41.4088 23.1827C41.3495 23.2688 41.2928 23.3575 41.2309 23.4422C41.3047 23.5416 41.3719 23.6435 41.4431 23.7455L41.4418 23.7441ZM34.2088 28.4407C34.794 30.8426 34.7202 33.3783 33.9992 35.7285C34.1271 35.7391 34.2562 35.7484 34.3841 35.755C34.4144 35.7563 34.4447 35.759 34.475 35.7603C37.0108 35.861 39.5254 35.1645 41.6381 33.7901C41.6856 33.7596 41.7317 33.7265 41.7792 33.6947C41.8965 33.6166 42.0124 33.5358 42.1271 33.4537C42.1904 33.4074 42.2523 33.3611 42.3156 33.3134C42.3722 33.271 42.4289 33.226 42.4843 33.1823C42.5014 33.0446 42.5159 32.9069 42.5278 32.7705C42.5423 32.6116 42.5607 32.4527 42.5686 32.2938C42.5792 32.1111 42.5792 31.9297 42.5818 31.7483C42.5831 31.5921 42.5884 31.4345 42.5844 31.2782C42.5792 31.0955 42.5647 30.9128 42.5515 30.7314C42.5409 30.5778 42.533 30.4255 42.5172 30.2719C42.4974 30.0866 42.4658 29.9038 42.4368 29.7211C42.4144 29.5741 42.396 29.4258 42.367 29.2789C42.3301 29.0908 42.2826 28.9068 42.2365 28.7214C42.2022 28.5811 42.1732 28.4407 42.135 28.3017C42.081 28.1084 42.0138 27.919 41.9492 27.7283C41.9057 27.5999 41.8688 27.4701 41.8213 27.343C41.7423 27.1325 41.65 26.9259 41.5604 26.7194C41.5142 26.6161 41.476 26.5102 41.4273 26.4069C41.2849 26.105 41.1294 25.8071 40.962 25.5131C40.9581 25.5078 40.9567 25.5012 40.9528 25.4959C40.7775 25.1901 40.5838 24.8921 40.3808 24.5995C40.3676 24.5796 40.3518 24.5624 40.3386 24.5426C38.6951 26.3645 36.5627 27.7231 34.2088 28.442V28.4407ZM17.6526 37.1745C17.4575 37.1943 17.2638 37.2089 17.0687 37.2208C16.8842 37.2314 16.701 37.2393 16.5178 37.2433C16.4414 37.2433 16.3636 37.2526 16.2872 37.2526C16.1962 37.2526 16.1079 37.2433 16.0183 37.242C15.789 37.238 15.5623 37.2287 15.3343 37.2129C15.188 37.2023 15.043 37.1903 14.8981 37.1745C14.6687 37.1506 14.4407 37.1228 14.2127 37.0884C14.0625 37.0659 13.9122 37.0394 13.7633 37.0116C13.5498 36.9719 13.3389 36.9268 13.128 36.8765C12.9672 36.8381 12.8064 36.7971 12.647 36.7521C12.4532 36.6978 12.2608 36.6395 12.0697 36.5773C11.901 36.5217 11.7336 36.4634 11.5676 36.4025C11.387 36.335 11.2078 36.2635 11.0312 36.188C10.8638 36.1165 10.6964 36.0437 10.5317 35.9656C10.3577 35.8835 10.1877 35.7974 10.0164 35.7074C9.85557 35.6226 9.69478 35.5352 9.53662 35.4439C9.46413 35.4015 9.38901 35.3671 9.31784 35.3234C10.2206 38.2735 12.1896 40.7773 14.8915 42.3437C17.642 43.9393 20.8381 44.3881 23.876 43.6466C23.7824 43.5963 23.6941 43.5367 23.6005 43.4838C23.4925 43.4215 23.3844 43.358 23.2763 43.2931C23.0615 43.1607 22.8519 43.023 22.6463 42.8787C22.5594 42.8191 22.471 42.7621 22.3854 42.6999C22.0994 42.492 21.8213 42.2749 21.5524 42.0458C21.5168 42.0154 21.4852 41.9823 21.4496 41.9518C21.2177 41.7492 20.9923 41.54 20.7735 41.3215C20.6905 41.2381 20.6101 41.1507 20.5297 41.066C20.3636 40.8912 20.2015 40.7124 20.0447 40.5297C19.9617 40.4331 19.8799 40.3351 19.8009 40.2371C19.6467 40.0451 19.4977 39.8491 19.3528 39.6492C19.2869 39.5578 19.2183 39.4678 19.1551 39.3751C18.9534 39.0812 18.7597 38.7806 18.5817 38.4694C18.4328 38.2099 18.2958 37.9438 18.1626 37.6736C18.1244 37.5955 18.0875 37.5161 18.0506 37.4366C18.0058 37.3426 17.9584 37.2486 17.9162 37.1533C17.8279 37.1639 17.7396 37.1652 17.6513 37.1745H17.6526ZM19.3066 36.9123C19.3119 36.9242 19.3172 36.9361 19.3224 36.948C19.4595 37.234 19.6045 37.5161 19.7613 37.7875C19.934 38.0881 20.1198 38.3794 20.3162 38.6627C20.3821 38.7581 20.4572 38.8468 20.5257 38.9408C20.6615 39.1248 20.7946 39.3089 20.9396 39.485C21.0279 39.5923 21.1254 39.6916 21.2163 39.7962C21.3521 39.9484 21.4852 40.1047 21.6276 40.2503C21.7304 40.3549 21.8411 40.4529 21.9478 40.5549C22.0888 40.6899 22.2285 40.8263 22.3762 40.9534C22.4908 41.0527 22.6134 41.1441 22.732 41.2394C22.8796 41.3586 23.0272 41.4791 23.1801 41.5916C23.3053 41.683 23.4371 41.7664 23.5663 41.8538C23.7218 41.9584 23.8747 42.0643 24.0341 42.161C24.1686 42.2431 24.3083 42.3172 24.4467 42.394C24.6088 42.4841 24.7696 42.5754 24.9343 42.6575C25.0767 42.729 25.2243 42.7913 25.3692 42.8562C25.4958 42.9131 25.6223 42.9687 25.7515 43.0217C25.8767 42.9687 26.0005 42.9131 26.1244 42.8562C26.2681 42.7899 26.4144 42.7264 26.5554 42.6549C26.7188 42.5728 26.8757 42.4814 27.0338 42.3927C27.1696 42.3159 27.3066 42.2418 27.4384 42.161C27.594 42.0643 27.7442 41.9597 27.8958 41.8578C28.0223 41.7717 28.1501 41.6896 28.2727 41.5996C28.423 41.4884 28.5653 41.3692 28.709 41.2527C28.8236 41.16 28.9422 41.07 29.0529 40.972C29.1966 40.8462 29.3337 40.7111 29.4707 40.5774C29.5735 40.4781 29.6803 40.3827 29.7805 40.2808C29.9202 40.1365 30.0506 39.9829 30.1824 39.8319C30.2721 39.73 30.3643 39.6333 30.45 39.5287C30.591 39.3566 30.7215 39.1738 30.8533 38.9938C30.9218 38.9011 30.9943 38.8124 31.0602 38.717C31.2526 38.4363 31.4358 38.1477 31.6071 37.8497C31.7824 37.5439 31.9432 37.2274 32.0935 36.9043C32.104 36.8832 32.1119 36.8606 32.1212 36.8395C29.7291 36.3204 27.4925 35.1446 25.6948 33.4564C23.9169 35.1658 21.6935 36.3707 19.3066 36.9176V36.9123ZM17.1188 28.5466C14.7557 27.8555 12.6061 26.5221 10.9415 24.72C10.9336 24.7306 10.9257 24.7412 10.9191 24.7518C10.7399 25.014 10.5712 25.2814 10.4144 25.5529C10.2417 25.8534 10.0836 26.1606 9.93728 26.4731C9.88852 26.5777 9.84898 26.6863 9.80417 26.7922C9.71323 27.0027 9.62097 27.2119 9.54189 27.4265C9.49445 27.5562 9.45623 27.6899 9.41273 27.8224C9.34815 28.017 9.28094 28.2103 9.2269 28.4076C9.18736 28.5506 9.15837 28.6963 9.1241 28.8393C9.07929 29.0286 9.03053 29.218 8.99494 29.4086C8.96595 29.5596 8.94881 29.7118 8.92641 29.8641C8.89873 30.0521 8.8671 30.2388 8.84733 30.4269C8.83151 30.5818 8.82492 30.738 8.81438 30.8943C8.80252 31.081 8.78802 31.2677 8.78407 31.4544C8.78143 31.6119 8.7867 31.7708 8.79066 31.9284C8.79461 32.1138 8.79593 32.3005 8.80779 32.4858C8.81833 32.6447 8.83678 32.8036 8.85392 32.9638C8.86842 33.1029 8.88291 33.2406 8.90268 33.3796C9.09115 33.5239 9.28094 33.6669 9.476 33.7993C9.51553 33.8271 9.55639 33.8523 9.59725 33.8801C9.85425 34.0496 10.1139 34.2111 10.3801 34.3594C10.4052 34.3727 10.4302 34.3859 10.4552 34.3991C11.0312 34.7156 11.6269 34.9831 12.241 35.2002C12.2516 35.2042 12.2608 35.2082 12.2714 35.2108C12.5824 35.3194 12.8974 35.4147 13.2177 35.4981C13.2282 35.5008 13.2387 35.5034 13.2493 35.5061C13.5722 35.5895 13.9004 35.6584 14.2312 35.7153C14.2338 35.7153 14.2351 35.7153 14.2378 35.7153C14.9099 35.8292 15.5966 35.8861 16.2925 35.8861C16.585 35.8861 16.8803 35.8715 17.1755 35.8504C17.2229 35.8464 17.2704 35.8437 17.3178 35.8398C17.3521 35.8371 17.3864 35.8305 17.4206 35.8279C16.672 33.4882 16.5679 30.9525 17.1241 28.5453L17.1188 28.5466ZM33.7172 9.88879C33.8147 9.87952 33.9109 9.86893 34.0072 9.86231C34.3327 9.83847 34.6582 9.82258 34.9811 9.82258C35.3357 9.82258 35.6876 9.8398 36.0381 9.86628C36.1475 9.87422 36.2556 9.88879 36.365 9.89938C36.6075 9.92322 36.8487 9.95367 37.0885 9.99075C37.2098 10.0093 37.331 10.0305 37.4523 10.053C37.6869 10.0953 37.9202 10.147 38.1521 10.2013C38.2615 10.2278 38.3696 10.2516 38.4777 10.2794C38.7834 10.3615 39.0866 10.4515 39.3857 10.5548C39.4134 10.5641 39.4411 10.5707 39.4675 10.58C39.7917 10.6938 40.1119 10.8236 40.4269 10.9626C40.5231 11.005 40.618 11.0527 40.7129 11.0977C40.9343 11.201 41.1518 11.3095 41.368 11.4261C41.476 11.4843 41.5828 11.5439 41.6882 11.6048C41.7739 11.6538 41.8622 11.6988 41.9479 11.7491C41.0451 8.79906 39.076 6.29519 36.3755 4.72878C33.6249 3.13325 30.4289 2.68438 27.391 3.42587C27.4846 3.47751 27.5742 3.53577 27.6664 3.58874C27.7745 3.65097 27.8826 3.71453 27.9893 3.77941C28.2042 3.91182 28.4137 4.05085 28.6207 4.19385C28.7076 4.25343 28.7959 4.31037 28.8803 4.3726C29.1663 4.58048 29.4444 4.79764 29.7132 5.02671C29.7475 5.05584 29.7791 5.08894 29.8147 5.11807C30.0467 5.32065 30.2734 5.53119 30.4922 5.74966C30.5752 5.83308 30.6556 5.91915 30.736 6.00521C30.902 6.17999 31.0655 6.35875 31.2223 6.5428C31.3053 6.63946 31.3857 6.73611 31.4661 6.83542C31.6203 7.02742 31.7693 7.22471 31.9142 7.42464C31.9801 7.51601 32.0487 7.60472 32.1119 7.69873C32.3136 7.99268 32.5073 8.29325 32.6852 8.60442C32.8342 8.86261 32.9712 9.13008 33.1043 9.4002C33.1426 9.47832 33.1795 9.55777 33.2164 9.63721C33.2612 9.73122 33.3086 9.82523 33.3508 9.92057C33.4734 9.906 33.5959 9.89938 33.7185 9.88747L33.7172 9.88879ZM25.1426 4.2243C24.9989 4.29051 24.8552 4.35406 24.7155 4.42424C24.5521 4.50766 24.394 4.59902 24.2345 4.68906C24.1 4.76453 23.963 4.83868 23.8325 4.91945C23.6757 5.01611 23.5254 5.12072 23.3738 5.224C23.2486 5.30874 23.1208 5.39083 22.9995 5.48087C22.8493 5.59209 22.7056 5.71126 22.5607 5.82911C22.446 5.9218 22.3287 6.01183 22.218 6.10849C22.0743 6.23428 21.9373 6.36934 21.8002 6.50307C21.6974 6.60238 21.5907 6.69772 21.4905 6.79967C21.3508 6.944 21.2203 7.09892 21.0872 7.25119C20.9989 7.35182 20.9066 7.44848 20.821 7.55308C20.6786 7.72786 20.5455 7.91191 20.4124 8.09596C20.3465 8.186 20.2753 8.27207 20.2121 8.36475C20.0183 8.64546 19.8364 8.93412 19.6638 9.23336L19.6625 9.23601C19.4872 9.54055 19.3277 9.85569 19.1775 10.1788C19.1669 10.2 19.159 10.2225 19.1498 10.2436C21.5419 10.7627 23.7785 11.9385 25.5762 13.6267C27.3541 11.9173 29.5775 10.7124 31.9643 10.1655C31.959 10.1536 31.9538 10.1417 31.9485 10.1298C31.8114 9.84377 31.6665 9.56174 31.5096 9.2903C31.5083 9.28765 31.5057 9.285 31.5043 9.28235C31.333 8.98443 31.1498 8.69578 30.9548 8.41507C30.8889 8.31973 30.8137 8.23102 30.7452 8.13701C30.6095 7.95428 30.4763 7.76891 30.3314 7.59413C30.2417 7.48688 30.1455 7.38757 30.0533 7.28297C29.9188 7.13069 29.7857 6.97578 29.6434 6.83013C29.5393 6.7242 29.4286 6.62621 29.3218 6.52426C29.1808 6.39053 29.0424 6.25414 28.8961 6.12703C28.7801 6.0264 28.6589 5.93504 28.5389 5.8397C28.3913 5.72053 28.245 5.60004 28.0921 5.48882C27.9669 5.39745 27.8351 5.31403 27.706 5.22664C27.5505 5.12204 27.3976 5.01611 27.2381 4.91945C27.1037 4.83736 26.964 4.76453 26.8269 4.68774C26.6648 4.5977 26.5027 4.50634 26.3366 4.42292C26.1943 4.35274 26.048 4.28918 25.903 4.2243C25.7765 4.16737 25.6486 4.11043 25.5195 4.05879C25.393 4.11175 25.2691 4.16869 25.1452 4.22563L25.1426 4.2243ZM34.1495 18.5312C36.5126 19.2223 38.6622 20.5557 40.3268 22.3578C40.3334 22.3472 40.3426 22.3366 40.3492 22.326C40.5271 22.0639 40.6971 21.7964 40.854 21.525C41.0266 21.2244 41.1848 20.9172 41.3311 20.6047C41.3798 20.5014 41.418 20.3929 41.4642 20.2882C41.5551 20.0764 41.6487 19.8659 41.7278 19.6514C41.7752 19.5229 41.8121 19.3892 41.8556 19.2594C41.9202 19.0635 41.9874 18.8688 42.0428 18.6702C42.0823 18.5272 42.1113 18.3829 42.1456 18.2385C42.1904 18.0492 42.2391 17.8599 42.2747 17.6679C42.3037 17.5182 42.3208 17.366 42.3432 17.215C42.3722 17.027 42.4026 16.839 42.4223 16.6496C42.4381 16.4947 42.4447 16.3398 42.454 16.1835C42.4658 15.9955 42.4816 15.8088 42.4843 15.6208C42.4869 15.4632 42.4803 15.3057 42.4777 15.1481C42.4737 14.9614 42.4724 14.776 42.4605 14.5893C42.45 14.4304 42.4315 14.2716 42.4144 14.1127C42.3999 13.9736 42.3854 13.8346 42.3657 13.6969C42.2563 13.6135 42.1456 13.534 42.0348 13.4546C41.9057 13.3632 41.7792 13.2679 41.6474 13.1818C41.4945 13.0812 41.3363 12.9885 41.1795 12.8958C41.0464 12.8164 40.9159 12.7343 40.7801 12.6614C40.618 12.5727 40.452 12.4946 40.2872 12.4138C40.1515 12.3476 40.017 12.2775 39.8787 12.2166C39.7086 12.1411 39.5334 12.0762 39.3594 12.01C39.2223 11.957 39.0853 11.8988 38.9469 11.8511C38.7663 11.7889 38.5818 11.7386 38.3973 11.6843C38.2602 11.6445 38.1258 11.5995 37.9874 11.5638C37.7936 11.5148 37.596 11.4777 37.3983 11.438C37.2665 11.4115 37.1373 11.3784 37.0042 11.3572C36.7828 11.3201 36.5574 11.2976 36.3333 11.2725C36.2226 11.2606 36.1119 11.2407 35.9999 11.2314C35.6625 11.2036 35.3212 11.1891 34.9785 11.1891C34.6859 11.1891 34.3894 11.2036 34.0941 11.2248C34.0467 11.2288 34.0006 11.2301 33.9531 11.2341C33.9188 11.2367 33.8846 11.2433 33.8503 11.246C34.5989 13.5857 34.703 16.1213 34.1482 18.5285L34.1495 18.5312Z" fill="#979797"/>
</svg>
