<svg width="138" height="42" viewBox="0 0 138 42" fill="none" xmlns="http://www.w3.org/2000/svg">
<path d="M15.3738 3.03992L10.581 5.46052L10.7262 12.2866C10.8714 17.9509 10.7262 19.1612 10.1937 19.3548C9.80636 19.4516 7.43416 20.5167 5.01356 21.6786L0.51123 23.8571V30.2959V36.6863L5.30403 39.0585L10.0968 41.3823L14.7444 39.0585C17.3102 37.7514 19.392 36.4927 19.392 36.2991C19.392 36.1054 19.8277 35.9118 20.3602 35.9118C20.8927 35.9118 21.3284 36.1054 21.3284 36.2991C21.3284 36.4927 23.4586 37.7514 26.1212 39.0101L30.8656 41.3823L35.5616 39.0585C38.8536 37.4609 40.306 36.4927 40.4512 35.7181C40.5965 35.1856 40.6933 32.2808 40.5965 29.3761L40.4512 24.0508L36.0941 21.7754C33.722 20.5167 31.3498 19.5 30.914 19.4516C30.4299 19.4516 30.0426 19.1612 30.0426 18.8223C29.9942 18.5318 29.9458 15.3366 29.8974 11.7541L29.8006 5.26688L25.2498 2.89468C22.7324 1.63597 20.5539 0.570899 20.4086 0.619311C20.2634 0.619311 17.988 1.73279 15.3738 3.03992ZM24.9594 3.57245L29.0744 5.60576V11.8025V17.9993L25.2014 16.0628C23.0713 14.9977 20.9411 14.1263 20.5054 14.1263C20.0213 14.1263 17.9396 14.9977 15.8579 16.0144C13.2436 17.3215 11.9849 17.7572 11.8397 17.3215C11.6944 16.9826 11.6944 14.2231 11.7428 11.1732L11.8881 5.65417L15.7611 3.62086C17.8912 2.5558 19.9245 1.58755 20.215 1.58755C20.5539 1.53914 22.684 2.45897 24.9594 3.57245ZM23.8943 16.3048C25.6855 17.0794 27.1379 17.9024 27.1379 18.0961C27.1379 18.2897 25.6371 19.258 23.7491 20.1778L20.3602 21.8722L17.2134 20.1778C15.4706 19.258 14.0182 18.3382 14.0182 18.1445C13.9698 17.8056 19.9245 14.6588 20.4086 14.7557C20.5539 14.8041 22.1515 15.4818 23.8943 16.3048ZM16.6809 20.8556L20.457 22.7921L24.5236 20.7588C28.2998 18.9191 29.6553 18.6286 28.8323 19.9358C28.6387 20.2262 26.8958 21.1945 24.9109 22.1143L21.3769 23.7603L21.2316 29.1825C21.1348 32.9102 20.8927 34.7015 20.5054 34.7983C20.0697 34.9435 19.8761 33.588 19.7793 29.5214L19.634 24.0508L15.7611 22.0175C12.1301 20.1294 10.7746 18.9675 12.227 18.9675C12.5659 18.9675 14.5992 19.8389 16.6809 20.8556ZM10.6778 25.7936V31.0705L14.7928 33.1039C17.0682 34.2173 18.9078 35.3308 18.9078 35.5245C18.9078 36.0086 14.3571 38.6228 11.7913 39.5911L9.75795 40.3657L5.5945 38.3324L1.47947 36.2991V30.2959V24.2928L5.73974 22.1627C8.06352 21.0008 10.0968 20.1294 10.3389 20.2746C10.5325 20.3715 10.6778 22.8405 10.6778 25.7936ZM35.5132 22.3564L39.7251 24.4381V30.2959V36.2022L35.4164 38.3324L31.1077 40.4141L28.4934 39.3006C27.0895 38.7197 25.0078 37.6546 23.8459 36.9768C21.3284 35.5245 21.4737 35.3792 26.3149 33.007L29.8006 31.3126L29.9458 26.2293C30.0426 21.0008 30.2363 19.7421 30.8656 20.081C31.1077 20.1778 33.141 21.1945 35.5132 22.3564ZM18.811 29.2309C18.8594 31.8451 18.811 33.9753 18.6658 33.9753C18.5205 33.9753 16.8745 33.2007 15.0349 32.2808L11.646 30.5864V25.6968V20.8556L15.1801 22.6952L18.6658 24.5349L18.811 29.2309ZM29.0744 25.8904V30.9253L26.0728 32.2808C24.3784 33.0554 22.8776 33.7816 22.684 33.8784C22.4419 33.9753 22.2967 31.8935 22.2967 29.2793V24.4865L25.5887 22.7437C27.38 21.7754 28.8807 20.9524 28.9776 20.9524C29.026 20.904 29.0744 23.1794 29.0744 25.8904Z" fill="#737373"/>
<path d="M54.0067 6.1867C53.7162 6.23512 52.748 6.42876 51.7797 6.574C48.8266 7.05812 45.7282 9.52714 44.3242 12.4319C40.6933 19.7905 45.0504 28.7952 52.6995 29.8602C57.8312 30.538 63.205 27.488 64.1732 23.2762C64.4637 22.1143 64.3185 21.9691 62.7208 21.6786C61.2201 21.3881 60.7844 21.4849 60.2034 22.3564C58.2669 25.1158 55.7979 26.1809 52.8448 25.5031C47.9552 24.4381 45.7282 18.0477 48.6813 13.5938C50.2789 11.1247 52.6511 10.0597 55.5559 10.4954C57.2019 10.7374 57.9765 11.1732 59.1868 12.7223C60.5423 14.4168 60.9296 14.6104 62.1883 14.3199C64.4153 13.8842 64.6089 13.4485 63.4954 11.3184C62.5272 9.43032 60.8328 7.92954 58.8479 7.10653C57.5408 6.62241 54.5876 6.04147 54.0067 6.1867Z" fill="#737373"/>
<path d="M95.3989 10.4954C95.3989 12.7707 95.3021 14.6104 95.2053 14.6104C95.1084 14.6104 94.3823 14.2715 93.6561 13.8842C91.768 12.916 90.2672 12.9644 87.8466 14.1747C82.8602 16.5469 82.2308 24.8738 86.7331 28.2626C89.1053 30.0539 91.3807 30.2959 93.7045 29.134C95.9799 27.9722 95.883 27.9722 95.883 28.892C95.883 29.4245 96.4156 29.6182 97.8195 29.6182H99.756V17.9993V6.38034H97.5775H95.3989V10.4954ZM94.1886 18.2413C95.06 19.0643 95.3989 19.9357 95.3989 21.3397C95.3989 23.9055 95.06 24.6801 93.414 25.5515C89.6379 27.488 86.249 23.0825 88.3792 18.9675C89.5411 16.6921 92.3005 16.3048 94.1886 18.2413Z" fill="#737373"/>
<path d="M107.889 13.7874C104.646 15.2398 103.145 17.7572 103.145 21.6786C103.145 23.9539 103.387 24.8738 104.452 26.3745C107.357 30.538 113.408 31.2158 116.41 27.6333C118.056 25.6968 118.008 24.9222 116.168 24.5349C115.006 24.2928 114.425 24.4381 113.602 25.2127C112.101 26.6166 109.729 26.5198 108.228 25.019C107.551 24.3896 107.018 23.6151 107.018 23.3246C107.018 23.0341 109.051 22.8405 112.585 22.8405H118.153V20.7587C118.153 15.3366 112.731 11.6573 107.889 13.7874ZM113.118 17.6604C113.893 18.3381 114.28 19.0643 114.086 19.3548C113.65 20.081 107.696 20.1294 107.26 19.4516C106.776 18.677 109.245 16.5469 110.6 16.5469C111.278 16.5469 112.392 17.0794 113.118 17.6604Z" fill="#737373"/>
<path d="M65.8677 13.8358C65.8677 13.9327 66.497 15.2882 67.2716 16.8374C70.4184 23.2762 72.1613 27.1492 72.1613 27.7785C72.1613 28.1174 71.3867 29.9087 70.4668 31.7483C69.5954 33.6364 68.9176 35.2824 69.0629 35.5245C69.2081 35.7181 70.1279 35.9118 71.0962 35.9118C73.0811 35.9118 72.5001 36.88 78.6969 22.8405C80.585 18.5318 81.408 16.789 82.7151 13.9811C82.8119 13.7874 81.8921 13.6422 80.7302 13.6422C78.5517 13.6422 78.5032 13.6422 77.3414 16.208C76.712 17.6604 75.889 19.5969 75.5985 20.5651C74.9207 22.5016 74.243 22.8405 73.7589 21.485C73.6136 21.0492 72.7422 19.0643 71.8708 17.1279L70.2248 13.6422H68.0462C66.8359 13.6422 65.8677 13.739 65.8677 13.8358Z" fill="#737373"/>
<path d="M122.026 13.8842C122.026 14.0295 121.978 17.3699 121.978 21.3881C121.978 25.3579 122.026 28.8436 122.026 29.134C122.026 29.3761 122.897 29.6182 123.962 29.6182H125.899V25.2611C125.899 19.6453 126.577 18.1445 129.288 17.7088C131.176 17.4183 131.224 17.3215 131.224 15.5302C131.224 13.7874 131.127 13.6422 129.82 13.6422C129.094 13.6422 127.884 14.1263 127.158 14.6588L125.851 15.6755L125.56 14.6588C125.366 13.8842 124.931 13.6422 123.672 13.6422C122.752 13.6422 122.026 13.739 122.026 13.8842Z" fill="#737373"/>
<path d="M132.773 24.5833C130.74 25.9873 131.708 29.6182 134.081 29.6182C135.727 29.6182 137.034 28.2626 137.034 26.6166C137.034 24.4865 134.565 23.3246 132.773 24.5833Z" fill="#737373"/>
</svg>
