<svg width="168" height="40" viewBox="0 0 168 40" fill="none" xmlns="http://www.w3.org/2000/svg">
<g clip-path="url(#clip0_5611_24944)">
<path d="M23.5634 0C11.0349 0 0.898926 10.1577 0.898926 22.6645C0.898926 29.2985 3.81355 35.5846 8.83802 39.8912C8.96853 39.826 24.0854 34.497 38.2671 39.8912C47.794 31.7564 48.9033 17.466 40.7902 7.9391C36.4835 2.89288 30.1757 0 23.5634 0Z" fill="#737373"/>
<path d="M38.2888 39.9783C37.2012 39.304 36.0484 38.7384 34.8521 38.2817C33.6558 37.8032 32.4378 37.4116 31.1762 37.1071L30.2409 36.8896C29.9364 36.8244 29.6101 36.7591 29.2839 36.7156C29.0446 36.6721 28.8271 36.6286 28.5878 36.5851C28.7836 36.5633 30.5237 36.7809 30.7629 36.7591C30.7629 36.7374 30.7629 36.4981 30.7847 36.4763C30.8282 36.1283 30.5672 35.8021 30.2192 35.7586C30.1974 35.7586 30.1974 35.7586 30.1757 35.7586C30.1539 35.8021 29.7841 35.7368 29.7841 35.7368C29.7624 35.7368 28.4138 34.932 28.3703 34.7363C28.5443 34.7798 28.6966 34.845 28.8488 34.932C29.0446 35.0625 29.2839 35.0843 29.5014 35.019C29.5449 34.9973 29.5449 34.932 29.5231 34.8885C29.5014 34.8015 29.4361 34.7363 29.3491 34.7145C29.0011 34.584 28.7183 34.3013 28.3268 34.2577C28.2398 34.236 28.1528 34.2142 28.0658 34.1707C27.6525 34.062 27.3915 33.6922 27.3915 33.2572C27.3915 33.1485 27.3915 33.0179 27.3915 32.9092C27.3915 32.8004 26.6738 27.2322 26.652 27.1234C26.652 27.1234 26.9565 25.2529 26.913 24.2958C26.913 24.2958 26.826 22.708 26.7825 22.534C26.6955 22.1425 26.6085 21.751 26.5215 21.3594C26.4562 21.1202 26.391 20.9027 26.3257 20.6634C26.4127 20.8374 26.4997 21.0114 26.5867 21.2072C26.7608 21.6204 26.913 22.0337 27.0218 22.4687C27.0435 22.5775 27.261 23.3605 27.3263 23.3388C27.4133 23.317 27.696 23.2083 27.522 22.6862C27.522 22.6862 28.1746 23.1213 27.435 23.4693C26.6955 23.8173 27.435 24.0783 27.609 23.9913C27.7831 23.9043 28.8271 23.7303 28.4573 22.4905C27.435 19.0973 27.3698 11.6368 27.261 11.2452C27.261 11.2017 27.2828 10.8972 27.261 10.7667C27.2393 10.571 27.261 10.3317 27 10.2447C26.6085 10.0489 26.1952 9.94019 25.7602 9.89668C25.6297 9.87493 25.4992 9.83143 25.3687 9.78793V9.26591C25.3904 9.24416 25.3904 9.2224 25.4122 9.20065C25.6297 9.07015 26.913 8.24361 26.3692 6.76455L26.2387 6.02502C26.304 5.98151 26.3692 5.93801 26.4345 5.89451C26.3692 5.89451 26.2822 5.91626 26.217 5.93801L26.1952 5.78575C26.1952 5.78575 26.3475 4.87221 26.043 4.69821C26.1952 4.76346 26.304 4.89397 26.3475 5.06797C26.3475 5.06797 26.4127 3.89342 24.9772 3.61066C24.6074 3.54541 24.2376 3.52366 23.8679 3.56716C23.5416 3.54541 23.2154 3.58891 22.9326 3.71941C22.9108 3.74117 22.7368 3.82817 22.5411 3.91517L22.5628 3.89342C22.5628 3.89342 21.5623 4.28494 21.3448 4.58945C21.3448 4.58945 21.6058 4.50245 21.8885 4.37194C21.6928 4.5677 21.5405 4.78521 21.4318 5.02447V5.00272C21.4318 5.00272 21.0185 6.00326 21.1055 6.37303C21.1055 6.37303 21.236 6.04677 21.3665 5.74225C21.3665 5.82926 21.3665 5.91626 21.3665 6.00326C21.3013 6.15552 21.0185 6.8298 21.2795 7.35182C21.236 7.17782 21.2578 6.98206 21.3448 6.8298C21.3448 6.8298 21.3448 6.80805 21.3665 6.80805C21.3665 6.8733 21.3665 6.96031 21.3665 7.02556C21.3883 7.46058 21.584 7.85209 21.9103 8.11311C22.2801 8.41762 22.6281 8.74388 22.6498 8.89614C22.6716 8.96139 22.4323 9.85318 22.1061 10.0054C22.0843 10.0489 15.82 15.4432 15.5373 15.7259C15.1675 16.074 14.776 16.3785 14.3845 16.7047C15.7113 16.2915 16.9076 15.5954 17.9081 14.6601C17.5166 15.1822 17.0598 15.6389 16.5378 16.0522C16.0158 16.4655 15.472 16.8135 14.863 17.0962C14.2757 17.379 9.05548 18.8581 7.33716 19.2713C6.59762 19.4671 5.83634 19.5976 5.05331 19.6846C4.7923 19.7064 3.05222 19.5759 2.44319 19.5324C2.09518 19.5106 2.09518 19.5324 2.16043 19.8804C2.20393 20.0979 2.37794 20.2066 2.44319 20.4024C2.63895 20.8157 2.72595 21.2507 2.7042 21.7075C2.7042 21.838 2.76946 21.9467 2.87821 22.0337C3.07397 22.2077 3.11747 22.534 3.46549 22.534C3.50899 22.534 3.57424 22.534 3.61774 22.5122L4.68354 22.1425C4.9228 22.012 5.16206 21.8815 5.40132 21.7292C5.9451 21.4029 6.46712 21.0549 7.01089 20.6852C6.61938 21.2072 6.16261 21.6639 5.64058 22.0772C5.57533 22.1425 5.48833 22.186 5.42307 22.2512C5.72759 22.534 6.0756 22.7732 6.38012 23.0343C6.68463 23.2953 7.03264 23.5345 7.38066 23.7738C7.85918 24.1436 8.2942 24.5351 8.72922 24.9483C9.4905 25.6661 10.2735 26.3622 10.9043 27.2322C11.0566 27.4497 11.2523 27.6455 11.4481 27.8195C11.7091 28.037 12.0571 28.1675 12.4051 28.1457C12.9272 28.1675 13.4274 28.2762 13.8189 28.6895C14.0147 28.8635 14.2105 29.0158 14.428 29.1463C15.4068 29.8858 16.5378 30.3861 17.7341 30.6253C17.8211 30.6471 17.9081 30.6688 17.9951 30.6906C18.0821 30.7123 18.2779 30.6906 18.3866 30.7341H18.4519C19.0609 30.5166 19.6264 30.2773 20.2355 30.0381C19.757 30.4731 19.2132 30.8429 18.6259 31.1256L18.4954 31.1909C18.4954 31.2996 18.4736 31.4084 18.4301 31.5171C18.3649 31.6694 18.3431 31.8434 18.3866 32.0174C18.4301 32.5177 18.4519 33.0397 18.4301 33.5617C18.4301 33.8445 18.3866 33.8662 18.1256 33.7792C18.0604 33.7357 17.9516 33.7575 17.9081 33.8227C17.7776 33.9532 17.7341 34.149 17.7776 34.323C17.8211 34.4318 17.8211 34.5405 17.8646 34.6275C17.9516 34.8233 17.8646 34.9755 17.8211 35.1713C17.7776 35.1713 17.7559 35.4323 17.7559 35.5628C17.7559 35.8238 17.7124 36.0848 17.7124 36.3458C17.7124 36.3893 17.7124 36.4328 17.7341 36.4763C17.9081 36.4546 18.1039 36.4328 18.2779 36.4328C18.5389 36.4328 18.7999 36.4546 19.0609 36.4981L18.8217 36.5634C18.6477 36.6069 18.4736 36.6504 18.2996 36.6939C18.1691 36.7156 18.0386 36.7591 17.9299 36.8026L17.7341 36.8244C17.1033 36.9331 16.4726 37.0636 15.8418 37.2159C14.602 37.5204 13.3622 37.8902 12.1659 38.3687C11.5568 38.6079 10.9696 38.8472 10.404 39.13C9.81677 39.391 9.27299 39.7172 8.72922 40.0653C9.99077 39.8695 11.2306 39.7172 12.4704 39.565C13.7102 39.4127 14.95 39.2822 16.168 39.1735C16.4726 39.1517 16.7771 39.1082 17.0816 39.1082C17.3861 39.1082 17.6906 39.0647 17.9951 39.043L18.9087 38.9777L19.8222 38.9342C21.0403 38.8907 22.2583 38.8472 23.4981 38.8472C24.7162 38.8472 25.9342 38.8907 27.174 38.9342C28.4138 38.9777 29.6101 39.0865 30.8499 39.1952C32.0897 39.304 33.3078 39.4562 34.5476 39.6302C35.1784 39.6955 35.7874 39.8042 36.4182 39.8912C36.7227 39.9347 37.049 39.9782 37.3535 40.0218C37.658 40.0653 37.9842 39.9565 38.2888 39.9783ZM25.7602 35.9761C25.7385 36.0631 25.7167 36.1718 25.7385 36.2588C24.9989 36.2153 24.2594 36.1718 23.5199 36.1936C22.5193 36.1936 21.5405 36.2371 20.54 36.3241C20.5835 36.2806 20.5835 36.2153 20.5617 36.1718C20.5182 36.0196 20.4095 35.8673 20.279 35.7803H20.2572C20.2355 35.8456 20.1485 35.8456 20.0832 35.8673H19.9745C19.9745 36.0196 19.9745 35.6281 19.9745 35.4976C19.9962 35.3235 19.931 35.1495 19.8005 35.0408C19.7787 34.845 19.8657 34.6275 19.7134 34.4535C19.7787 34.3883 19.8222 34.3013 19.8005 34.2142C19.8005 34.1272 19.844 33.975 19.7352 33.975C19.7352 33.9532 19.7352 33.9532 19.757 33.9532V33.9315C19.757 33.9097 19.9527 32.8439 20.1267 32.5177C20.279 32.2567 20.366 31.9739 20.366 31.6694C20.366 31.5389 20.4095 31.1474 20.4095 31.1474C20.4965 30.6471 20.5182 30.1033 20.6922 29.6248C20.714 29.5378 21.9973 27.5585 22.0843 27.3844C23.1066 25.1876 23.6286 21.751 23.7374 21.2507C23.8461 20.7504 23.9766 20.2284 24.0419 19.7064C24.1071 19.1843 24.1289 18.6623 24.1071 18.1403C24.3029 18.6406 24.4117 19.1843 24.3899 19.7281C24.3682 20.2719 24.3029 20.8157 24.1724 21.3377C24.0419 21.8597 23.8896 22.3817 23.7374 22.882L23.6504 23.1865C23.6504 23.2083 23.6721 23.23 23.6721 23.2735C23.8679 23.665 24.3029 27.776 24.4552 28.1892C24.6944 28.82 25.869 34.0837 25.7167 34.1272C25.608 34.149 25.608 34.2142 25.608 34.3013C25.608 34.3883 25.6297 34.3448 25.7167 34.41C25.9777 34.5623 25.8255 35.6716 25.7602 35.9761Z" fill="white"/>
<path d="M23.3892 16.7482L24.5637 14.8341L20.8661 12.8766L20.3658 13.7466L20.9748 14.2469C20.9748 14.2469 17.6469 18.423 15.0803 19.7716L14.406 19.3366L13.6665 19.8369C13.6665 19.8369 15.2108 21.6204 19.3218 22.2947L20.8008 20.4459L19.6915 20.2066L18.8215 21.0549L16.6029 20.2066C17.4294 19.5106 18.2125 18.7711 18.952 17.988L20.9096 18.8581L21.7144 17.9445L19.996 17.0745C19.996 17.0745 21.2793 15.6607 21.6491 14.7906L23.1282 15.3997L22.6279 16.3785L23.3892 16.7482Z" fill="#737373"/>
<path d="M55.3198 29.1245V27.9935L56.4074 27.863C56.6466 27.8195 56.6901 27.776 56.6901 27.5149V18.0968C56.6901 17.8358 56.6466 17.7705 56.4074 17.7488L55.3198 17.6183V16.4872H64.2812V19.6193L62.8022 19.5541L62.5629 18.2055C62.5194 18.0315 62.4541 17.988 62.2584 17.988H58.7565V21.9902H63.1937V23.5128H58.7565V27.6237H62.6716C62.8674 27.6237 62.9109 27.6019 62.9544 27.4279L63.2372 25.8836H64.6945V29.1028L55.3198 29.1245Z" fill="#737373"/>
<path d="M76.2223 29.1245V27.9935L77.6579 27.863C77.8971 27.8412 77.9406 27.776 77.9406 27.5149V19.5976H77.8971L74.852 26.3404H72.5899L69.5448 19.5106H69.5013V27.5149C69.5013 27.7977 69.523 27.8412 69.784 27.863L71.2849 27.9935V29.1028H66.3691V27.9717L67.4784 27.8412C67.7177 27.8195 67.7612 27.7542 67.7612 27.4932V18.0968C67.7612 17.8358 67.7177 17.7705 67.4784 17.7488L66.3691 17.6183V16.4872H70.2843L73.8732 24.6438H73.9167L77.5491 16.4872H81.2903V17.6183L80.1157 17.7488C79.8547 17.7923 79.833 17.814 79.833 18.075V27.5367C79.833 27.7542 79.8765 27.8412 80.1157 27.863L81.2903 27.9935V29.1028L76.2223 29.1245Z" fill="#737373"/>
<path d="M83.0522 29.1245V27.9935L84.1398 27.863C84.3791 27.8195 84.4226 27.776 84.4226 27.5149V18.0968C84.4226 17.8358 84.3791 17.7705 84.1398 17.7488L83.0522 17.6183V16.4872H88.664C91.8831 16.4872 92.8619 18.2055 92.8619 20.2066C92.8619 23.23 91.0348 24.3828 88.0767 24.3828H86.4454V27.5149C86.4454 27.7977 86.4671 27.8195 86.7282 27.863L89.2295 27.9935V29.1028H83.0522V29.1245ZM87.8375 22.9037C89.36 22.9037 90.7521 22.5775 90.7521 20.3154C90.7521 18.5318 89.7515 18.0098 88.0332 18.0098H86.4671V22.882H87.8375V22.9037Z" fill="#737373"/>
<path d="M94.2539 22.7732C94.2539 19.0756 96.342 16.2697 100.388 16.2697C104.433 16.2697 106.195 19.0756 106.195 22.5775C106.195 26.6884 104.216 29.3203 100.148 29.3203C96.0157 29.342 94.2539 26.6232 94.2539 22.7732ZM104.107 22.7515C104.107 19.5324 102.672 17.9663 100.366 17.9663C98.0168 17.9663 96.342 19.5541 96.342 22.7515C96.342 26.1229 97.8646 27.6455 100.192 27.6455C102.519 27.6455 104.107 26.1881 104.107 22.7515Z" fill="#737373"/>
<path d="M117.332 29.1245L115.309 21.7727H115.265L113.286 29.1245H110.698L107.914 18.0968C107.87 17.9228 107.718 17.7923 107.522 17.7923L106.565 17.6183L106.739 16.509H111.502V17.6183L109.98 17.7705L112.111 27.0799H112.177L114.352 18.9668H116.505L118.745 27.1887H118.832L120.986 17.7923L119.442 17.6183L119.616 16.509H123.966V17.6183L123.096 17.7705C122.856 17.814 122.769 17.8575 122.704 18.0968L120.029 29.1245H117.332Z" fill="#737373"/>
<path d="M125.01 29.1245V27.9935L126.097 27.863C126.337 27.8195 126.38 27.776 126.38 27.5149V18.0968C126.38 17.8358 126.337 17.7705 126.097 17.7488L125.01 17.6183V16.4872H133.971V19.6193L132.492 19.5541L132.253 18.2055C132.209 18.0315 132.144 17.988 131.948 17.988H128.425V21.9902H132.862V23.5128H128.425V27.6237H132.34C132.536 27.6237 132.579 27.6019 132.623 27.4279L132.905 25.8836H134.363V29.1028L125.01 29.1245Z" fill="#737373"/>
<path d="M142.172 29.1245V28.037L143.324 27.8847L142.019 24.5786C141.802 24.0348 141.541 23.839 140.932 23.839H139.453V27.5367C139.453 27.8195 139.474 27.8412 139.735 27.8847L140.845 28.0152V29.1245H136.06V27.9935L137.169 27.863C137.408 27.8195 137.452 27.776 137.452 27.5149V18.0968C137.452 17.8358 137.408 17.7705 137.169 17.7488L136.06 17.6183V16.4872H141.628C144.782 16.4872 145.608 18.2055 145.608 19.9456C145.608 21.7727 144.629 22.7732 143.259 23.317C143.803 23.578 143.977 23.9913 144.303 24.8396L145.347 27.5149C145.434 27.7325 145.652 27.863 145.869 27.8412L146.935 28.0152V29.1245H142.172ZM140.758 22.3382C142.237 22.3382 143.52 21.925 143.52 20.0326C143.52 18.423 142.541 18.0098 140.649 18.0098H139.453V22.3382H140.758Z" fill="#737373"/>
<path d="M147.892 29.1245V27.9935L148.98 27.863C149.219 27.8195 149.262 27.776 149.262 27.5149V18.0968C149.262 17.8358 149.219 17.7705 148.98 17.7488L147.892 17.6183V16.4872H153.047V17.6183L151.59 17.7488C151.329 17.7705 151.307 17.8358 151.307 18.075V27.6237H155.222C155.418 27.6237 155.461 27.6019 155.505 27.4279L155.788 25.7749H157.245V29.1028L147.892 29.1245Z" fill="#737373"/>
<path d="M159.072 29.1245V27.9935L160.768 27.863C161.007 27.8412 161.051 27.7759 161.051 27.5149V24.2958L157.571 18.075C157.484 17.901 157.332 17.7923 157.158 17.7705L156.375 17.5748L156.549 16.4655H160.964V17.5748L159.637 17.727L162.117 22.4905H162.204L164.705 17.7488L163.4 17.5965L163.574 16.4872H167.511V17.6183L166.771 17.814C166.576 17.8358 166.423 17.9663 166.336 18.1403L163.096 24.274V27.5149C163.096 27.7977 163.117 27.8195 163.378 27.863L165.184 27.9935V29.1028L159.072 29.1245Z" fill="#737373"/>
</g>
<defs>
<clipPath id="clip0_5611_24944">
<rect width="166.612" height="40" fill="white" transform="translate(0.898926)"/>
</clipPath>
</defs>
</svg>
