<svg width="335" height="74" viewBox="0 0 335 74" fill="none" xmlns="http://www.w3.org/2000/svg">
<rect x="-0.00390625" y="0.19873" width="73.5994" height="73.5994" rx="12.2666" fill="#0A0A0A"/>
<path d="M58.7588 61.2358L50.7768 37.0239H36.4093L34.5469 42.8773H46.2537L51.9458 61.2358L58.7588 61.2358Z" fill="white"/>
<path d="M20.4799 57.3597L36.4024 12.832L28.1544 17.3551L17.168 47.9757L20.4799 57.3597Z" fill="white"/>
<path d="M48.9131 31.1701H42.5275L40.2302 24.2406L41.5182 21.5918H45.7203L48.9131 31.1701Z" fill="white"/>
<path d="M105.728 55.9985L119.859 15.7029H130.844L145.417 55.9985H138.572L125.821 20.1188L128.526 21.3884H121.846L124.717 20.1188L112.352 55.9985H105.728ZM114.891 44.6274L116.989 38.8867H133.88L136.033 44.6274H114.891ZM157.839 55.9985V20.45H164.463V55.9985H157.839ZM145.916 21.554V15.7029H176.442V21.554H145.916ZM184.256 55.9985V15.4269H190.88V55.9985H184.256ZM208.985 55.9985L196.179 38.2795H203.686L216.879 55.9985H208.985ZM188.727 41.9778V36.4027H199.215C200.797 36.4027 202.159 36.0899 203.3 35.4643C204.441 34.8019 205.305 33.9003 205.894 32.7595C206.52 31.6187 206.833 30.2939 206.833 28.7852C206.833 27.3132 206.52 26.0068 205.894 24.866C205.305 23.7252 204.441 22.8236 203.3 22.1612C202.159 21.4988 200.797 21.1676 199.215 21.1676H188.727V15.4269H198.332C201.423 15.4269 204.109 15.9053 206.391 16.862C208.673 17.782 210.439 19.1804 211.69 21.0572C212.941 22.934 213.567 25.3444 213.567 28.2884V29.1715C213.567 32.1155 212.923 34.5259 211.635 36.4027C210.384 38.2795 208.617 39.6779 206.336 40.5979C204.091 41.5179 201.423 41.9778 198.332 41.9778H188.727ZM224.66 55.9985V15.7029H231.284V55.9985H224.66ZM259.618 56.9921C255.902 56.9921 252.774 56.2929 250.234 54.8945C247.732 53.4594 245.819 51.4538 244.494 48.8778C243.206 46.3018 242.562 43.3026 242.562 39.8803V15.7029H249.186V40.4323C249.186 42.493 249.59 44.3146 250.4 45.897C251.21 47.4794 252.387 48.7122 253.933 49.5954C255.478 50.4418 257.374 50.865 259.618 50.865C261.863 50.865 263.74 50.4418 265.249 49.5954C266.794 48.749 267.972 47.5346 268.782 45.9522C269.591 44.3698 269.996 42.5298 269.996 40.4323V15.7029H276.62V39.8803C276.62 43.3026 275.976 46.3018 274.688 48.8778C273.4 51.4538 271.486 53.4594 268.947 54.8945C266.445 56.2929 263.335 56.9921 259.618 56.9921ZM287.779 55.9985V15.7029H296.721L307.761 41.1499H308.699L319.629 15.7029H328.682V55.9985H322.113V21.6092L322.775 21.7196L311.625 47.7186H304.339L293.078 21.7196L293.851 21.6092V55.9985H287.779Z" fill="#0A0A0A"/>
</svg>
