<svg width="231" height="71" viewBox="0 0 231 71" fill="none" xmlns="http://www.w3.org/2000/svg">
<path d="M2.2652 54.1318L16.3963 13.8362H27.381L41.9537 54.1318H35.1089L22.3578 18.2521L25.0626 19.5217H18.3835L21.2538 18.2521L8.88914 54.1318H2.2652ZM11.4283 42.7607L13.5259 37.02H30.417L32.5698 42.7607H11.4283ZM54.3766 54.1318V18.5833H61.0005V54.1318H54.3766ZM42.4535 19.6873V13.8362H72.9789V19.6873H42.4535ZM80.793 54.1318V13.5602H87.417V54.1318H80.793ZM105.522 54.1318L92.7161 36.4128H100.223L113.416 54.1318H105.522ZM85.2642 40.1111V34.536H95.7521C97.3345 34.536 98.6961 34.2232 99.8369 33.5976C100.978 32.9352 101.842 32.0336 102.431 30.8928C103.057 29.752 103.37 28.4272 103.37 26.9185C103.37 25.4465 103.057 24.1401 102.431 22.9993C101.842 21.8585 100.978 20.9569 99.8369 20.2945C98.6961 19.6321 97.3345 19.3009 95.7521 19.3009H85.2642V13.5602H94.8689C97.9601 13.5602 100.646 14.0386 102.928 14.9953C105.21 15.9153 106.976 17.3137 108.227 19.1905C109.478 21.0673 110.104 23.4777 110.104 26.4217V27.3048C110.104 30.2488 109.46 32.6592 108.172 34.536C106.921 36.4128 105.154 37.8112 102.873 38.7312C100.628 39.6512 97.9601 40.1111 94.8689 40.1111H85.2642ZM121.197 54.1318V13.8362H127.821V54.1318H121.197ZM156.156 55.1254C152.439 55.1254 149.311 54.4262 146.772 53.0278C144.269 51.5927 142.356 49.5871 141.031 47.0111C139.743 44.4351 139.099 41.4359 139.099 38.0136V13.8362H145.723V38.5656C145.723 40.6263 146.128 42.4479 146.937 44.0303C147.747 45.6127 148.924 46.8455 150.47 47.7287C152.016 48.5751 153.911 48.9983 156.156 48.9983C158.4 48.9983 160.277 48.5751 161.786 47.7287C163.331 46.8823 164.509 45.6679 165.319 44.0855C166.128 42.5031 166.533 40.6631 166.533 38.5656V13.8362H173.157V38.0136C173.157 41.4359 172.513 44.4351 171.225 47.0111C169.937 49.5871 168.023 51.5927 165.484 53.0278C162.982 54.4262 159.872 55.1254 156.156 55.1254ZM184.316 54.1318V13.8362H193.258L204.298 39.2832H205.237L216.166 13.8362H225.219V54.1318H218.65V19.7425L219.312 19.8529L208.162 45.8519H200.876L189.615 19.8529L190.388 19.7425V54.1318H184.316Z" fill="#0A0A0A"/>
</svg>
